<svg xmlns="http://www.w3.org/2000/svg" xmlns:xlink="http://www.w3.org/1999/xlink" width="680" zoomAndPan="magnify" viewBox="0 0 510 155.999997" height="208" preserveAspectRatio="xMidYMid meet" version="1.2"><defs><clipPath id="d6b2050cfd"><path d="M 0 6.777344 L 148.636719 6.777344 L 148.636719 155.414062 L 0 155.414062 Z M 0 6.777344 "/></clipPath><clipPath id="9873ba0728"><path d="M 24.75 6.777344 L 123.886719 6.777344 C 130.449219 6.777344 136.746094 9.386719 141.386719 14.027344 C 146.027344 18.667969 148.636719 24.964844 148.636719 31.527344 L 148.636719 130.664062 C 148.636719 137.230469 146.027344 143.523438 141.386719 148.167969 C 136.746094 152.808594 130.449219 155.414062 123.886719 155.414062 L 24.75 155.414062 C 18.1875 155.414062 11.890625 152.808594 7.25 148.167969 C 2.609375 143.523438 0 137.230469 0 130.664062 L 0 31.527344 C 0 24.964844 2.609375 18.667969 7.25 14.027344 C 11.890625 9.386719 18.1875 6.777344 24.75 6.777344 Z M 24.75 6.777344 "/></clipPath><clipPath id="1371598d84"><path d="M 50.597656 109.75 L 51.339844 109.75 L 51.339844 117.882812 L 50.597656 117.882812 Z M 50.597656 109.75 "/></clipPath><clipPath id="743145929a"><path d="M 52 109.742188 L 54 109.742188 L 54 115 L 52 115 Z M 52 109.742188 "/></clipPath><clipPath id="ea81ea8465"><path d="M 54 109.742188 L 56 109.742188 L 56 115 L 54 115 Z M 54 109.742188 "/></clipPath><clipPath id="a5de6dcff4"><path d="M 56 109.742188 L 58 109.742188 L 58 115 L 56 115 Z M 56 109.742188 "/></clipPath><clipPath id="a642c7f780"><path d="M 58 109.742188 L 60 109.742188 L 60 115 L 58 115 Z M 58 109.742188 "/></clipPath><clipPath id="064a42fa70"><path d="M 61.011719 109.75 L 61.753906 109.75 L 61.753906 117.882812 L 61.011719 117.882812 Z M 61.011719 109.75 "/></clipPath><clipPath id="5abe625b98"><path d="M 63 109.742188 L 64 109.742188 L 64 115 L 63 115 Z M 63 109.742188 "/></clipPath><clipPath id="1aae69cf02"><path d="M 65 109.742188 L 66 109.742188 L 66 115 L 65 115 Z M 65 109.742188 "/></clipPath><clipPath id="92c413fc51"><path d="M 67 109.742188 L 68 109.742188 L 68 115 L 67 115 Z M 67 109.742188 "/></clipPath><clipPath id="5686242c5a"><path d="M 69 109.742188 L 71 109.742188 L 71 115 L 69 115 Z M 69 109.742188 "/></clipPath><clipPath id="bcbf5cf73b"><path d="M 71.425781 109.75 L 72.292969 109.75 L 72.292969 117.882812 L 71.425781 117.882812 Z M 71.425781 109.75 "/></clipPath><clipPath id="35bcf2fcfe"><path d="M 73 109.742188 L 75 109.742188 L 75 115 L 73 115 Z M 73 109.742188 "/></clipPath><clipPath id="1149ab50e1"><path d="M 75 109.742188 L 77 109.742188 L 77 115 L 75 115 Z M 75 109.742188 "/></clipPath><clipPath id="cd6e5b5e4d"><path d="M 77 109.742188 L 79 109.742188 L 79 115 L 77 115 Z M 77 109.742188 "/></clipPath><clipPath id="b92b7d0715"><path d="M 79 109.742188 L 81 109.742188 L 81 115 L 79 115 Z M 79 109.742188 "/></clipPath><clipPath id="cd6b8f0bc5"><path d="M 81.964844 109.75 L 82.707031 109.75 L 82.707031 117.882812 L 81.964844 117.882812 Z M 81.964844 109.75 "/></clipPath><clipPath id="bf31f0fb15"><path d="M 84 109.742188 L 85 109.742188 L 85 115 L 84 115 Z M 84 109.742188 "/></clipPath><clipPath id="19cfc3344b"><path d="M 86 109.742188 L 87 109.742188 L 87 115 L 86 115 Z M 86 109.742188 "/></clipPath><clipPath id="ff8c72d8df"><path d="M 88 109.742188 L 89 109.742188 L 89 115 L 88 115 Z M 88 109.742188 "/></clipPath><clipPath id="27802a9793"><path d="M 90 109.742188 L 92 109.742188 L 92 115 L 90 115 Z M 90 109.742188 "/></clipPath><clipPath id="524fcaba19"><path d="M 92.378906 109.75 L 93.246094 109.75 L 93.246094 117.882812 L 92.378906 117.882812 Z M 92.378906 109.75 "/></clipPath><clipPath id="97d984416b"><path d="M 102.792969 109.75 L 103.589844 109.75 L 103.589844 117.882812 L 102.792969 117.882812 Z M 102.792969 109.75 "/></clipPath><clipPath id="56148e5f96"><path d="M 94 109.742188 L 96 109.742188 L 96 115 L 94 115 Z M 94 109.742188 "/></clipPath><clipPath id="ae67f74844"><path d="M 96 109.742188 L 98 109.742188 L 98 115 L 96 115 Z M 96 109.742188 "/></clipPath><clipPath id="6b6fd33956"><path d="M 98 109.742188 L 100 109.742188 L 100 115 L 98 115 Z M 98 109.742188 "/></clipPath><clipPath id="606076e51d"><path d="M 100 109.742188 L 102 109.742188 L 102 115 L 100 115 Z M 100 109.742188 "/></clipPath><clipPath id="44421160de"><path d="M 31.808594 36.15625 L 116.558594 36.15625 L 116.558594 111 L 31.808594 111 Z M 31.808594 36.15625 "/></clipPath></defs><g id="c11651b458"><g clip-rule="nonzero" clip-path="url(#d6b2050cfd)"><g clip-rule="nonzero" clip-path="url(#9873ba0728)"><path style=" stroke:none;fill-rule:nonzero;fill:#199d5e;fill-opacity:1;" d="M 0 6.777344 L 148.636719 6.777344 L 148.636719 155.414062 L 0 155.414062 Z M 0 6.777344 "/></g></g><g clip-rule="nonzero" clip-path="url(#1371598d84)"><path style=" stroke:none;fill-rule:nonzero;fill:#ffffff;fill-opacity:1;" d="M 51.285156 109.75 L 51.285156 117.882812 L 50.597656 117.882812 L 50.597656 109.75 L 51.285156 109.75 "/></g><g clip-rule="nonzero" clip-path="url(#743145929a)"><path style=" stroke:none;fill-rule:nonzero;fill:#ffffff;fill-opacity:1;" d="M 53.367188 109.75 L 53.367188 114.339844 L 52.679688 114.339844 L 52.679688 109.75 L 53.367188 109.75 "/></g><g clip-rule="nonzero" clip-path="url(#ea81ea8465)"><path style=" stroke:none;fill-rule:nonzero;fill:#ffffff;fill-opacity:1;" d="M 55.453125 109.75 L 55.453125 114.339844 L 54.765625 114.339844 L 54.765625 109.75 L 55.453125 109.75 "/></g><g clip-rule="nonzero" clip-path="url(#a5de6dcff4)"><path style=" stroke:none;fill-rule:nonzero;fill:#ffffff;fill-opacity:1;" d="M 57.539062 109.75 L 57.539062 114.339844 L 56.847656 114.339844 L 56.847656 109.75 L 57.539062 109.75 "/></g><g clip-rule="nonzero" clip-path="url(#a642c7f780)"><path style=" stroke:none;fill-rule:nonzero;fill:#ffffff;fill-opacity:1;" d="M 59.621094 109.75 L 59.621094 114.339844 L 58.933594 114.339844 L 58.933594 109.75 L 59.621094 109.75 "/></g><g clip-rule="nonzero" clip-path="url(#064a42fa70)"><path style=" stroke:none;fill-rule:nonzero;fill:#ffffff;fill-opacity:1;" d="M 61.746094 109.75 L 61.746094 117.882812 L 61.058594 117.882812 L 61.058594 109.75 L 61.746094 109.75 "/></g><g clip-rule="nonzero" clip-path="url(#5abe625b98)"><path style=" stroke:none;fill-rule:nonzero;fill:#ffffff;fill-opacity:1;" d="M 63.828125 109.75 L 63.828125 114.339844 L 63.140625 114.339844 L 63.140625 109.75 L 63.828125 109.75 "/></g><g clip-rule="nonzero" clip-path="url(#1aae69cf02)"><path style=" stroke:none;fill-rule:nonzero;fill:#ffffff;fill-opacity:1;" d="M 65.914062 109.75 L 65.914062 114.339844 L 65.226562 114.339844 L 65.226562 109.75 L 65.914062 109.75 "/></g><g clip-rule="nonzero" clip-path="url(#92c413fc51)"><path style=" stroke:none;fill-rule:nonzero;fill:#ffffff;fill-opacity:1;" d="M 68 109.75 L 68 114.339844 L 67.308594 114.339844 L 67.308594 109.75 L 68 109.75 "/></g><g clip-rule="nonzero" clip-path="url(#5686242c5a)"><path style=" stroke:none;fill-rule:nonzero;fill:#ffffff;fill-opacity:1;" d="M 70.082031 109.75 L 70.082031 114.339844 L 69.394531 114.339844 L 69.394531 109.75 L 70.082031 109.75 "/></g><g clip-rule="nonzero" clip-path="url(#bcbf5cf73b)"><path style=" stroke:none;fill-rule:nonzero;fill:#ffffff;fill-opacity:1;" d="M 72.207031 109.75 L 72.207031 117.882812 L 71.515625 117.882812 L 71.515625 109.75 L 72.207031 109.75 "/></g><g clip-rule="nonzero" clip-path="url(#35bcf2fcfe)"><path style=" stroke:none;fill-rule:nonzero;fill:#ffffff;fill-opacity:1;" d="M 74.289062 109.75 L 74.289062 114.339844 L 73.601562 114.339844 L 73.601562 109.75 L 74.289062 109.75 "/></g><g clip-rule="nonzero" clip-path="url(#1149ab50e1)"><path style=" stroke:none;fill-rule:nonzero;fill:#ffffff;fill-opacity:1;" d="M 76.375 109.75 L 76.375 114.339844 L 75.6875 114.339844 L 75.6875 109.75 L 76.375 109.75 "/></g><g clip-rule="nonzero" clip-path="url(#cd6e5b5e4d)"><path style=" stroke:none;fill-rule:nonzero;fill:#ffffff;fill-opacity:1;" d="M 78.460938 109.75 L 78.460938 114.339844 L 77.769531 114.339844 L 77.769531 109.75 L 78.460938 109.75 "/></g><g clip-rule="nonzero" clip-path="url(#b92b7d0715)"><path style=" stroke:none;fill-rule:nonzero;fill:#ffffff;fill-opacity:1;" d="M 80.542969 109.75 L 80.542969 114.339844 L 79.855469 114.339844 L 79.855469 109.75 L 80.542969 109.75 "/></g><g clip-rule="nonzero" clip-path="url(#cd6b8f0bc5)"><path style=" stroke:none;fill-rule:nonzero;fill:#ffffff;fill-opacity:1;" d="M 82.667969 109.75 L 82.667969 117.882812 L 81.976562 117.882812 L 81.976562 109.75 L 82.667969 109.75 "/></g><g clip-rule="nonzero" clip-path="url(#bf31f0fb15)"><path style=" stroke:none;fill-rule:nonzero;fill:#ffffff;fill-opacity:1;" d="M 84.75 109.75 L 84.75 114.339844 L 84.0625 114.339844 L 84.0625 109.75 L 84.75 109.75 "/></g><g clip-rule="nonzero" clip-path="url(#19cfc3344b)"><path style=" stroke:none;fill-rule:nonzero;fill:#ffffff;fill-opacity:1;" d="M 86.835938 109.75 L 86.835938 114.339844 L 86.148438 114.339844 L 86.148438 109.75 L 86.835938 109.75 "/></g><g clip-rule="nonzero" clip-path="url(#ff8c72d8df)"><path style=" stroke:none;fill-rule:nonzero;fill:#ffffff;fill-opacity:1;" d="M 88.921875 109.75 L 88.921875 114.339844 L 88.230469 114.339844 L 88.230469 109.75 L 88.921875 109.75 "/></g><g clip-rule="nonzero" clip-path="url(#27802a9793)"><path style=" stroke:none;fill-rule:nonzero;fill:#ffffff;fill-opacity:1;" d="M 91.003906 109.75 L 91.003906 114.339844 L 90.316406 114.339844 L 90.316406 109.75 L 91.003906 109.75 "/></g><g clip-rule="nonzero" clip-path="url(#524fcaba19)"><path style=" stroke:none;fill-rule:nonzero;fill:#ffffff;fill-opacity:1;" d="M 93.128906 109.75 L 93.128906 117.882812 L 92.4375 117.882812 L 92.4375 109.75 L 93.128906 109.75 "/></g><g clip-rule="nonzero" clip-path="url(#97d984416b)"><path style=" stroke:none;fill-rule:nonzero;fill:#ffffff;fill-opacity:1;" d="M 103.589844 109.75 L 103.589844 117.882812 L 102.898438 117.882812 L 102.898438 109.75 L 103.589844 109.75 "/></g><g clip-rule="nonzero" clip-path="url(#56148e5f96)"><path style=" stroke:none;fill-rule:nonzero;fill:#ffffff;fill-opacity:1;" d="M 95.210938 109.75 L 95.210938 114.339844 L 94.523438 114.339844 L 94.523438 109.75 L 95.210938 109.75 "/></g><g clip-rule="nonzero" clip-path="url(#ae67f74844)"><path style=" stroke:none;fill-rule:nonzero;fill:#ffffff;fill-opacity:1;" d="M 97.296875 109.75 L 97.296875 114.339844 L 96.609375 114.339844 L 96.609375 109.75 L 97.296875 109.75 "/></g><g clip-rule="nonzero" clip-path="url(#6b6fd33956)"><path style=" stroke:none;fill-rule:nonzero;fill:#ffffff;fill-opacity:1;" d="M 99.382812 109.75 L 99.382812 114.339844 L 98.691406 114.339844 L 98.691406 109.75 L 99.382812 109.75 "/></g><g clip-rule="nonzero" clip-path="url(#606076e51d)"><path style=" stroke:none;fill-rule:nonzero;fill:#ffffff;fill-opacity:1;" d="M 101.464844 109.75 L 101.464844 114.339844 L 100.777344 114.339844 L 100.777344 109.75 L 101.464844 109.75 "/></g><g clip-rule="nonzero" clip-path="url(#44421160de)"><path style=" stroke:none;fill-rule:nonzero;fill:#ffffff;fill-opacity:1;" d="M 108.96875 77.730469 C 108.902344 77.085938 108.78125 76.449219 108.613281 75.820312 C 108.441406 75.191406 108.222656 74.582031 107.953125 73.988281 C 107.6875 73.398438 107.371094 72.832031 107.011719 72.289062 C 106.648438 71.746094 106.25 71.238281 105.804688 70.761719 C 105.363281 70.285156 104.882812 69.847656 104.371094 69.449219 C 103.855469 69.050781 103.316406 68.695312 102.742188 68.382812 C 102.171875 68.074219 101.582031 67.808594 100.964844 67.59375 C 100.351562 67.378906 99.726562 67.214844 99.085938 67.101562 C 99.210938 66.054688 99.234375 65.007812 99.164062 63.960938 L 98.261719 50.902344 C 98.191406 49.914062 98.035156 48.941406 97.78125 47.980469 C 97.53125 47.023438 97.191406 46.09375 96.765625 45.199219 C 96.339844 44.304688 95.832031 43.457031 95.246094 42.65625 C 94.660156 41.859375 94.007812 41.121094 93.28125 40.445312 C 92.558594 39.765625 91.777344 39.164062 90.9375 38.632812 C 90.097656 38.105469 89.21875 37.660156 88.296875 37.292969 C 87.375 36.929688 86.425781 36.65625 85.453125 36.472656 C 84.480469 36.285156 83.496094 36.195312 82.503906 36.191406 C 81.511719 36.191406 80.53125 36.285156 79.558594 36.46875 C 78.582031 36.65625 77.636719 36.929688 76.710938 37.292969 C 75.789062 37.65625 74.910156 38.101562 74.070312 38.628906 C 73.234375 39.160156 72.449219 39.761719 71.726562 40.4375 C 71 41.113281 70.34375 41.851562 69.757812 42.652344 C 69.171875 43.449219 68.667969 44.296875 68.238281 45.191406 C 67.8125 46.085938 67.472656 47.011719 67.222656 47.972656 C 66.96875 48.929688 66.808594 49.90625 66.738281 50.894531 L 66.574219 53.253906 C 65.449219 52.585938 64.238281 52.191406 62.9375 52.0625 C 62.636719 51.160156 62.199219 50.328125 61.628906 49.566406 C 61.058594 48.804688 60.386719 48.148438 59.605469 47.605469 C 58.828125 47.058594 57.984375 46.648438 57.070312 46.371094 C 56.160156 46.09375 55.230469 45.96875 54.277344 45.992188 C 53.328125 46.015625 52.402344 46.1875 51.507812 46.503906 C 50.609375 46.824219 49.785156 47.273438 49.035156 47.859375 C 48.28125 48.441406 47.640625 49.125 47.105469 49.914062 C 46.574219 50.703125 46.179688 51.554688 45.917969 52.472656 C 45.746094 52.667969 45.640625 52.898438 45.601562 53.15625 C 45.558594 53.414062 45.59375 53.664062 45.703125 53.90625 C 45.8125 54.144531 45.976562 54.335938 46.195312 54.476562 C 46.414062 54.621094 46.65625 54.691406 46.917969 54.691406 C 46.9375 54.691406 46.953125 54.691406 46.96875 54.691406 L 47.050781 54.695312 C 47.371094 54.699219 47.65625 54.601562 47.90625 54.402344 C 48.160156 54.203125 48.316406 53.945312 48.382812 53.628906 C 48.527344 52.925781 48.789062 52.269531 49.160156 51.65625 C 49.535156 51.042969 50 50.511719 50.554688 50.058594 C 51.109375 49.605469 51.726562 49.257812 52.402344 49.019531 C 53.078125 48.78125 53.773438 48.660156 54.492188 48.660156 C 55.210938 48.660156 55.90625 48.78125 56.582031 49.019531 C 57.257812 49.257812 57.875 49.605469 58.429688 50.058594 C 58.984375 50.511719 59.449219 51.042969 59.824219 51.65625 C 60.195312 52.269531 60.453125 52.925781 60.601562 53.628906 C 60.664062 53.945312 60.824219 54.203125 61.074219 54.402344 C 61.328125 54.605469 61.613281 54.699219 61.933594 54.695312 L 62.011719 54.691406 C 62.03125 54.691406 62.046875 54.691406 62.0625 54.691406 C 62.472656 54.691406 62.878906 54.730469 63.28125 54.8125 C 63.683594 54.890625 64.070312 55.011719 64.449219 55.167969 C 64.828125 55.324219 65.1875 55.515625 65.527344 55.746094 C 65.867188 55.972656 66.183594 56.230469 66.472656 56.519531 C 66.761719 56.808594 67.019531 57.125 67.25 57.464844 C 67.476562 57.804688 67.667969 58.164062 67.824219 58.542969 C 67.980469 58.921875 68.101562 59.308594 68.179688 59.710938 C 68.261719 60.113281 68.300781 60.519531 68.300781 60.929688 C 68.304688 61.941406 68.070312 62.898438 67.601562 63.800781 C 67.503906 63.988281 67.453125 64.191406 67.449219 64.40625 C 67.449219 64.617188 67.496094 64.820312 67.59375 65.011719 C 67.6875 65.203125 67.820312 65.363281 67.996094 65.488281 C 68.167969 65.617188 68.359375 65.699219 68.570312 65.734375 C 69.238281 65.84375 69.871094 66.058594 70.472656 66.375 C 71.070312 66.691406 71.605469 67.097656 72.070312 67.585938 C 72.539062 68.078125 72.914062 68.628906 73.203125 69.246094 C 73.488281 69.859375 73.671875 70.503906 73.75 71.175781 C 73.824219 71.851562 73.792969 72.519531 73.652344 73.179688 C 73.511719 73.84375 73.269531 74.46875 72.925781 75.050781 C 72.582031 75.636719 72.15625 76.152344 71.640625 76.59375 C 71.128906 77.039062 70.5625 77.390625 69.933594 77.652344 C 69.769531 77.71875 69.625 77.816406 69.496094 77.945312 C 69.371094 78.070312 69.277344 78.21875 69.207031 78.382812 C 69.140625 78.550781 69.109375 78.722656 69.109375 78.902344 C 69.113281 79.082031 69.152344 79.253906 69.222656 79.417969 C 69.480469 80.007812 69.640625 80.625 69.707031 81.265625 C 69.769531 81.90625 69.738281 82.542969 69.605469 83.171875 C 69.476562 83.804688 69.25 84.402344 68.933594 84.960938 C 68.617188 85.523438 68.222656 86.023438 67.753906 86.464844 C 67.28125 86.902344 66.753906 87.261719 66.171875 87.535156 C 65.589844 87.8125 64.980469 87.996094 64.339844 88.082031 C 63.703125 88.167969 63.066406 88.15625 62.429688 88.046875 C 61.796875 87.933594 61.191406 87.730469 60.621094 87.433594 C 60.382812 87.308594 60.128906 87.261719 59.863281 87.289062 C 59.597656 87.316406 59.359375 87.414062 59.152344 87.585938 C 58.585938 88.054688 57.953125 88.410156 57.261719 88.652344 L 57.261719 80.171875 L 62.929688 74.4375 C 63.054688 74.3125 63.152344 74.167969 63.21875 74.003906 C 63.285156 73.839844 63.320312 73.667969 63.316406 73.492188 C 63.316406 73.316406 63.28125 73.144531 63.214844 72.980469 C 63.144531 72.816406 63.046875 72.671875 62.921875 72.546875 C 62.796875 72.425781 62.652344 72.328125 62.488281 72.261719 C 62.324219 72.195312 62.152344 72.160156 61.972656 72.164062 C 61.796875 72.164062 61.625 72.199219 61.464844 72.269531 C 61.300781 72.335938 61.15625 72.433594 61.03125 72.5625 L 57.261719 76.375 L 57.261719 68.832031 C 57.261719 68.65625 57.226562 68.484375 57.160156 68.324219 C 57.089844 68.160156 56.996094 68.015625 56.871094 67.890625 C 56.746094 67.765625 56.601562 67.667969 56.4375 67.601562 C 56.273438 67.53125 56.101562 67.5 55.925781 67.5 C 55.75 67.5 55.578125 67.53125 55.414062 67.601562 C 55.25 67.667969 55.105469 67.765625 54.980469 67.890625 C 54.855469 68.015625 54.761719 68.160156 54.691406 68.324219 C 54.625 68.484375 54.589844 68.65625 54.589844 68.832031 L 54.589844 82.871094 L 50.714844 79.480469 C 50.582031 79.363281 50.429688 79.277344 50.261719 79.21875 C 50.09375 79.164062 49.921875 79.140625 49.746094 79.152344 C 49.570312 79.164062 49.402344 79.210938 49.242188 79.289062 C 49.082031 79.367188 48.945312 79.472656 48.828125 79.605469 C 48.714844 79.738281 48.625 79.890625 48.570312 80.058594 C 48.511719 80.226562 48.492188 80.398438 48.503906 80.574219 C 48.515625 80.75 48.558594 80.917969 48.636719 81.078125 C 48.714844 81.234375 48.820312 81.371094 48.957031 81.488281 L 54.589844 86.417969 L 54.589844 88.976562 C 53.472656 88.871094 52.457031 88.488281 51.546875 87.832031 C 51.332031 87.675781 51.089844 87.589844 50.824219 87.578125 C 50.5625 87.566406 50.3125 87.628906 50.085938 87.761719 C 49.53125 88.089844 48.941406 88.324219 48.316406 88.46875 C 47.6875 88.609375 47.054688 88.65625 46.414062 88.601562 C 45.773438 88.550781 45.15625 88.402344 44.5625 88.160156 C 43.96875 87.917969 43.421875 87.589844 42.929688 87.179688 C 42.433594 86.765625 42.015625 86.292969 41.667969 85.75 C 41.320312 85.210938 41.066406 84.628906 40.898438 84.007812 C 40.730469 83.386719 40.660156 82.757812 40.6875 82.113281 C 40.714844 81.472656 40.839844 80.847656 41.058594 80.246094 C 41.128906 80.054688 41.15625 79.859375 41.136719 79.65625 C 41.113281 79.453125 41.050781 79.265625 40.945312 79.09375 C 40.84375 78.921875 40.703125 78.777344 40.535156 78.667969 C 40.363281 78.558594 40.179688 78.488281 39.976562 78.464844 C 39.59375 78.414062 39.21875 78.328125 38.855469 78.210938 C 38.488281 78.089844 38.136719 77.9375 37.796875 77.753906 C 37.457031 77.570312 37.140625 77.355469 36.839844 77.113281 C 36.542969 76.871094 36.269531 76.601562 36.019531 76.304688 C 35.769531 76.011719 35.550781 75.699219 35.359375 75.363281 C 35.171875 75.027344 35.011719 74.679688 34.886719 74.316406 C 34.761719 73.949219 34.667969 73.578125 34.613281 73.195312 C 34.554688 72.816406 34.535156 72.433594 34.550781 72.046875 C 34.5625 71.664062 34.613281 71.28125 34.699219 70.90625 C 34.78125 70.53125 34.902344 70.164062 35.054688 69.8125 C 35.207031 69.457031 35.390625 69.121094 35.605469 68.800781 C 35.820312 68.480469 36.0625 68.183594 36.332031 67.910156 C 36.601562 67.632812 36.894531 67.386719 37.210938 67.164062 C 37.527344 66.945312 37.859375 66.753906 38.210938 66.597656 C 38.5625 66.4375 38.925781 66.3125 39.300781 66.222656 C 39.671875 66.128906 40.054688 66.074219 40.4375 66.050781 C 40.550781 66.046875 40.664062 66.023438 40.773438 65.992188 C 40.878906 65.957031 40.984375 65.90625 41.078125 65.847656 C 41.175781 65.785156 41.261719 65.714844 41.339844 65.628906 C 41.417969 65.546875 41.484375 65.453125 41.539062 65.355469 C 41.59375 65.253906 41.632812 65.148438 41.660156 65.035156 C 41.6875 64.925781 41.703125 64.8125 41.699219 64.699219 C 41.699219 64.585938 41.683594 64.472656 41.652344 64.363281 C 41.621094 64.253906 41.578125 64.148438 41.519531 64.050781 C 41.152344 63.417969 40.90625 62.742188 40.777344 62.019531 C 40.652344 61.300781 40.648438 60.582031 40.773438 59.863281 C 40.898438 59.140625 41.144531 58.464844 41.503906 57.828125 C 41.867188 57.195312 42.328125 56.640625 42.886719 56.167969 C 43.023438 56.054688 43.128906 55.917969 43.210938 55.761719 C 43.289062 55.605469 43.339844 55.4375 43.351562 55.261719 C 43.367188 55.085938 43.347656 54.914062 43.292969 54.742188 C 43.238281 54.574219 43.15625 54.421875 43.039062 54.289062 C 42.925781 54.152344 42.789062 54.046875 42.632812 53.964844 C 42.476562 53.882812 42.308594 53.835938 42.132812 53.820312 C 41.957031 53.808594 41.785156 53.828125 41.613281 53.882812 C 41.445312 53.933594 41.292969 54.019531 41.160156 54.132812 C 40.484375 54.707031 39.910156 55.363281 39.429688 56.105469 C 38.953125 56.847656 38.59375 57.644531 38.351562 58.496094 C 38.109375 59.34375 37.996094 60.210938 38.015625 61.09375 C 38.03125 61.980469 38.175781 62.839844 38.449219 63.679688 C 37.519531 63.933594 36.652344 64.328125 35.847656 64.863281 C 35.042969 65.398438 34.347656 66.046875 33.753906 66.804688 C 33.160156 67.566406 32.703125 68.402344 32.382812 69.3125 C 32.0625 70.222656 31.894531 71.160156 31.875 72.125 C 31.859375 73.089844 31.996094 74.03125 32.285156 74.953125 C 32.574219 75.875 33.003906 76.722656 33.570312 77.503906 C 34.136719 78.285156 34.8125 78.957031 35.597656 79.519531 C 36.378906 80.082031 37.234375 80.503906 38.15625 80.789062 C 38.007812 81.59375 37.972656 82.402344 38.050781 83.21875 C 38.125 84.03125 38.308594 84.820312 38.601562 85.582031 C 38.894531 86.347656 39.289062 87.054688 39.777344 87.710938 C 40.265625 88.367188 40.832031 88.945312 41.480469 89.441406 C 42.125 89.941406 42.828125 90.34375 43.585938 90.648438 C 44.34375 90.957031 45.132812 91.152344 45.945312 91.242188 C 46.757812 91.332031 47.566406 91.3125 48.371094 91.175781 C 49.179688 91.042969 49.953125 90.804688 50.691406 90.457031 C 51.898438 91.167969 53.195312 91.566406 54.589844 91.65625 L 54.589844 108.242188 L 50.957031 108.242188 C 50.78125 108.242188 50.609375 108.277344 50.445312 108.34375 C 50.285156 108.414062 50.140625 108.507812 50.015625 108.632812 C 49.886719 108.761719 49.792969 108.902344 49.722656 109.066406 C 49.65625 109.230469 49.621094 109.402344 49.621094 109.578125 C 49.621094 109.753906 49.65625 109.925781 49.722656 110.089844 C 49.792969 110.253906 49.886719 110.398438 50.015625 110.523438 C 50.140625 110.648438 50.285156 110.746094 50.445312 110.8125 C 50.609375 110.878906 50.78125 110.914062 50.957031 110.914062 L 104.410156 110.914062 C 104.585938 110.914062 104.757812 110.878906 104.921875 110.8125 C 105.085938 110.746094 105.230469 110.648438 105.355469 110.523438 C 105.480469 110.398438 105.574219 110.253906 105.644531 110.089844 C 105.710938 109.925781 105.746094 109.753906 105.746094 109.578125 C 105.746094 109.402344 105.710938 109.230469 105.644531 109.066406 C 105.574219 108.902344 105.480469 108.761719 105.355469 108.632812 C 105.230469 108.507812 105.085938 108.414062 104.921875 108.34375 C 104.757812 108.277344 104.585938 108.242188 104.410156 108.242188 L 98.976562 108.242188 L 98.976562 100.421875 C 99.898438 100.308594 100.78125 100.050781 101.617188 99.644531 C 102.457031 99.242188 103.210938 98.714844 103.875 98.066406 C 104.542969 97.417969 105.085938 96.675781 105.511719 95.847656 C 105.9375 95.019531 106.21875 94.144531 106.355469 93.226562 C 106.382812 93.050781 106.375 92.878906 106.332031 92.707031 C 106.292969 92.53125 106.21875 92.375 106.113281 92.234375 C 106.007812 92.089844 105.878906 91.972656 105.730469 91.878906 C 105.578125 91.789062 105.414062 91.730469 105.238281 91.703125 C 105.0625 91.675781 104.890625 91.683594 104.71875 91.722656 C 104.546875 91.765625 104.390625 91.839844 104.246094 91.945312 C 104.105469 92.050781 103.984375 92.175781 103.894531 92.328125 C 103.800781 92.480469 103.742188 92.644531 103.714844 92.820312 C 103.621094 93.421875 103.433594 93.992188 103.160156 94.539062 C 102.886719 95.082031 102.539062 95.574219 102.117188 96.011719 C 101.691406 96.449219 101.210938 96.816406 100.675781 97.105469 C 100.140625 97.398438 99.574219 97.601562 98.976562 97.71875 L 98.976562 92.992188 L 103.882812 88.578125 C 104.015625 88.460938 104.117188 88.324219 104.195312 88.164062 C 104.273438 88.003906 104.316406 87.835938 104.324219 87.65625 C 104.332031 87.480469 104.308594 87.308594 104.25 87.140625 C 104.191406 86.976562 104.101562 86.824219 103.984375 86.695312 C 103.867188 86.5625 103.726562 86.457031 103.566406 86.382812 C 103.40625 86.304688 103.238281 86.261719 103.0625 86.253906 C 102.882812 86.242188 102.710938 86.269531 102.546875 86.328125 C 102.378906 86.386719 102.230469 86.476562 102.097656 86.59375 L 98.976562 89.402344 L 98.976562 82.9375 C 98.976562 82.761719 98.941406 82.59375 98.875 82.429688 C 98.804688 82.265625 98.710938 82.121094 98.585938 81.996094 C 98.460938 81.871094 98.316406 81.773438 98.152344 81.707031 C 97.988281 81.636719 97.816406 81.605469 97.640625 81.605469 C 97.464844 81.605469 97.292969 81.636719 97.128906 81.707031 C 96.964844 81.773438 96.820312 81.871094 96.695312 81.996094 C 96.570312 82.121094 96.476562 82.265625 96.40625 82.429688 C 96.339844 82.59375 96.304688 82.761719 96.304688 82.9375 L 96.304688 97.613281 C 95.867188 97.492188 95.449219 97.324219 95.050781 97.109375 C 94.652344 96.894531 94.285156 96.636719 93.945312 96.335938 C 93.605469 96.035156 93.304688 95.699219 93.042969 95.328125 C 92.78125 94.960938 92.5625 94.566406 92.390625 94.144531 C 92.222656 93.726562 92.097656 93.292969 92.027344 92.84375 C 91.957031 92.398438 91.9375 91.949219 91.96875 91.496094 C 92 91.042969 92.082031 90.601562 92.214844 90.167969 C 92.347656 89.734375 92.527344 89.320312 92.757812 88.929688 C 92.847656 88.777344 92.902344 88.613281 92.925781 88.4375 C 92.953125 88.261719 92.941406 88.085938 92.894531 87.914062 C 92.851562 87.742188 92.773438 87.585938 92.664062 87.445312 C 92.558594 87.304688 92.425781 87.191406 92.273438 87.101562 C 91.128906 86.4375 90.167969 85.574219 89.386719 84.503906 C 88.605469 83.4375 88.074219 82.253906 87.792969 80.964844 C 90.171875 80.167969 92.261719 78.902344 94.070312 77.164062 C 94.195312 77.039062 94.296875 76.898438 94.367188 76.734375 C 94.4375 76.574219 94.476562 76.402344 94.480469 76.226562 C 94.484375 76.050781 94.453125 75.878906 94.386719 75.714844 C 94.324219 75.546875 94.230469 75.402344 94.109375 75.273438 C 93.984375 75.148438 93.84375 75.046875 93.679688 74.976562 C 93.519531 74.90625 93.347656 74.867188 93.171875 74.863281 C 92.992188 74.863281 92.824219 74.890625 92.65625 74.957031 C 92.492188 75.019531 92.347656 75.113281 92.21875 75.238281 C 91.085938 76.328125 89.804688 77.207031 88.378906 77.863281 C 86.949219 78.523438 85.453125 78.929688 83.886719 79.082031 L 83.886719 73.453125 L 90.339844 67.554688 C 90.472656 67.433594 90.574219 67.292969 90.648438 67.132812 C 90.726562 66.972656 90.765625 66.804688 90.773438 66.628906 C 90.78125 66.453125 90.757812 66.28125 90.695312 66.113281 C 90.636719 65.945312 90.546875 65.796875 90.425781 65.667969 C 90.308594 65.535156 90.167969 65.433594 90.007812 65.359375 C 89.847656 65.285156 89.675781 65.242188 89.5 65.234375 C 89.324219 65.226562 89.152344 65.253906 88.984375 65.3125 C 88.820312 65.375 88.671875 65.464844 88.539062 65.582031 L 83.886719 69.835938 L 83.886719 55.421875 C 83.886719 55.246094 83.851562 55.078125 83.785156 54.914062 C 83.714844 54.75 83.621094 54.605469 83.496094 54.480469 C 83.371094 54.355469 83.226562 54.257812 83.0625 54.191406 C 82.898438 54.121094 82.726562 54.089844 82.550781 54.089844 C 82.375 54.089844 82.203125 54.121094 82.039062 54.191406 C 81.875 54.257812 81.730469 54.355469 81.605469 54.480469 C 81.480469 54.605469 81.386719 54.75 81.316406 54.914062 C 81.25 55.078125 81.214844 55.246094 81.214844 55.421875 L 81.214844 62.925781 L 78.207031 59.40625 C 78.09375 59.269531 77.957031 59.164062 77.796875 59.082031 C 77.640625 59 77.472656 58.953125 77.296875 58.941406 C 77.121094 58.925781 76.949219 58.949219 76.78125 59.003906 C 76.613281 59.058594 76.460938 59.140625 76.324219 59.257812 C 76.191406 59.371094 76.082031 59.507812 76.003906 59.667969 C 75.921875 59.824219 75.875 59.992188 75.863281 60.167969 C 75.847656 60.34375 75.867188 60.515625 75.921875 60.683594 C 75.976562 60.851562 76.0625 61.003906 76.179688 61.140625 L 81.214844 67.035156 L 81.214844 79.089844 C 78.933594 78.890625 76.828125 78.167969 74.902344 76.921875 C 75.09375 76.640625 75.269531 76.351562 75.429688 76.050781 C 75.585938 75.753906 75.726562 75.445312 75.851562 75.128906 C 75.972656 74.8125 76.078125 74.492188 76.164062 74.164062 C 76.25 73.835938 76.316406 73.503906 76.367188 73.171875 C 76.414062 72.835938 76.445312 72.496094 76.453125 72.160156 C 76.464844 71.820312 76.457031 71.484375 76.429688 71.144531 C 76.398438 70.808594 76.351562 70.472656 76.285156 70.140625 C 76.21875 69.808594 76.132812 69.480469 76.03125 69.160156 C 75.925781 68.835938 75.804688 68.519531 75.664062 68.210938 C 75.527344 67.902344 75.367188 67.601562 75.195312 67.3125 C 75.019531 67.023438 74.832031 66.742188 74.625 66.472656 C 74.417969 66.203125 74.199219 65.945312 73.964844 65.703125 C 73.730469 65.457031 73.480469 65.230469 73.21875 65.011719 C 72.957031 64.796875 72.6875 64.597656 72.402344 64.414062 C 72.117188 64.226562 71.824219 64.058594 71.519531 63.910156 C 71.21875 63.757812 70.90625 63.625 70.589844 63.507812 C 70.796875 62.828125 70.917969 62.132812 70.957031 61.421875 C 70.996094 60.710938 70.953125 60.007812 70.824219 59.308594 C 70.691406 58.609375 70.480469 57.933594 70.191406 57.285156 C 69.898438 56.636719 69.535156 56.03125 69.097656 55.46875 L 69.402344 51.078125 C 69.460938 50.257812 69.59375 49.449219 69.804688 48.652344 C 70.011719 47.855469 70.296875 47.085938 70.648438 46.339844 C 71.003906 45.597656 71.425781 44.894531 71.914062 44.230469 C 72.398438 43.566406 72.945312 42.953125 73.546875 42.390625 C 74.148438 41.828125 74.796875 41.328125 75.496094 40.886719 C 76.191406 40.449219 76.925781 40.078125 77.691406 39.777344 C 78.457031 39.472656 79.246094 39.246094 80.054688 39.09375 C 80.863281 38.9375 81.679688 38.863281 82.503906 38.863281 C 83.328125 38.863281 84.144531 38.941406 84.953125 39.09375 C 85.761719 39.25 86.550781 39.476562 87.316406 39.777344 C 88.082031 40.082031 88.816406 40.453125 89.511719 40.890625 C 90.207031 41.332031 90.855469 41.832031 91.460938 42.394531 C 92.0625 42.957031 92.605469 43.570312 93.09375 44.234375 C 93.578125 44.898438 94 45.605469 94.355469 46.347656 C 94.707031 47.09375 94.988281 47.863281 95.199219 48.660156 C 95.410156 49.457031 95.542969 50.265625 95.597656 51.085938 L 96.5 64.144531 C 96.667969 66.574219 96.234375 68.894531 95.199219 71.097656 C 95.121094 71.257812 95.078125 71.425781 95.070312 71.605469 C 95.0625 71.78125 95.089844 71.953125 95.148438 72.121094 C 95.207031 72.285156 95.296875 72.433594 95.414062 72.566406 C 95.535156 72.695312 95.675781 72.800781 95.835938 72.875 C 95.996094 72.953125 96.164062 72.992188 96.339844 73.003906 C 96.515625 73.011719 96.6875 72.984375 96.855469 72.925781 C 97.019531 72.867188 97.171875 72.777344 97.300781 72.660156 C 97.433594 72.539062 97.535156 72.398438 97.613281 72.238281 C 97.996094 71.425781 98.3125 70.585938 98.558594 69.71875 C 99.101562 69.8125 99.628906 69.949219 100.148438 70.136719 C 100.664062 70.320312 101.160156 70.550781 101.636719 70.824219 C 102.117188 71.097656 102.566406 71.410156 102.988281 71.761719 C 103.410156 72.113281 103.796875 72.5 104.152344 72.921875 C 104.503906 73.339844 104.820312 73.789062 105.097656 74.265625 C 105.371094 74.738281 105.601562 75.234375 105.792969 75.75 C 105.980469 76.265625 106.121094 76.796875 106.21875 77.335938 C 106.3125 77.878906 106.359375 78.425781 106.359375 78.972656 C 106.359375 79.152344 106.394531 79.320312 106.460938 79.484375 C 106.53125 79.648438 106.625 79.792969 106.753906 79.917969 C 106.878906 80.042969 107.023438 80.140625 107.183594 80.207031 C 107.347656 80.273438 107.519531 80.308594 107.695312 80.308594 C 108.414062 80.308594 109.105469 80.433594 109.777344 80.6875 C 110.449219 80.9375 111.054688 81.296875 111.597656 81.769531 C 112.136719 82.238281 112.578125 82.789062 112.921875 83.421875 C 113.261719 84.050781 113.484375 84.722656 113.582031 85.433594 C 113.679688 86.140625 113.652344 86.847656 113.496094 87.546875 C 113.339844 88.246094 113.066406 88.898438 112.675781 89.496094 C 112.28125 90.097656 111.796875 90.609375 111.222656 91.035156 C 110.644531 91.460938 110.011719 91.773438 109.320312 91.96875 C 109.148438 92.015625 108.996094 92.097656 108.855469 92.207031 C 108.71875 92.316406 108.605469 92.449219 108.519531 92.601562 C 108.433594 92.757812 108.378906 92.921875 108.359375 93.097656 C 108.335938 93.273438 108.351562 93.445312 108.398438 93.617188 C 108.449219 93.789062 108.527344 93.941406 108.636719 94.082031 C 108.746094 94.21875 108.878906 94.332031 109.035156 94.417969 C 109.1875 94.503906 109.351562 94.558594 109.53125 94.578125 C 109.707031 94.601562 109.878906 94.585938 110.050781 94.539062 C 110.519531 94.402344 110.972656 94.230469 111.414062 94.019531 C 111.855469 93.808594 112.273438 93.5625 112.675781 93.28125 C 113.074219 92.996094 113.445312 92.683594 113.789062 92.335938 C 114.136719 91.992188 114.449219 91.621094 114.730469 91.21875 C 115.011719 90.820312 115.257812 90.402344 115.46875 89.960938 C 115.679688 89.519531 115.851562 89.0625 115.984375 88.59375 C 116.117188 88.121094 116.207031 87.644531 116.261719 87.160156 C 116.3125 86.671875 116.320312 86.1875 116.289062 85.699219 C 116.257812 85.210938 116.1875 84.730469 116.074219 84.253906 C 115.960938 83.777344 115.808594 83.316406 115.617188 82.867188 C 115.421875 82.417969 115.195312 81.988281 114.929688 81.578125 C 114.664062 81.167969 114.367188 80.78125 114.035156 80.421875 C 113.707031 80.0625 113.347656 79.734375 112.960938 79.433594 C 112.574219 79.136719 112.164062 78.871094 111.734375 78.644531 C 111.300781 78.414062 110.851562 78.222656 110.390625 78.070312 C 109.925781 77.917969 109.449219 77.804688 108.96875 77.730469 Z M 85.203125 81.601562 C 85.523438 83.035156 86.089844 84.367188 86.898438 85.59375 C 87.703125 86.824219 88.703125 87.867188 89.890625 88.734375 C 89.65625 89.324219 89.488281 89.929688 89.390625 90.558594 C 89.289062 91.183594 89.261719 91.8125 89.300781 92.445312 C 89.339844 93.082031 89.449219 93.703125 89.625 94.3125 C 89.804688 94.917969 90.046875 95.503906 90.351562 96.058594 C 90.660156 96.613281 91.023438 97.128906 91.445312 97.601562 C 91.863281 98.078125 92.332031 98.5 92.847656 98.871094 C 93.363281 99.242188 93.910156 99.550781 94.496094 99.800781 C 95.078125 100.050781 95.683594 100.234375 96.304688 100.347656 L 96.304688 108.242188 L 83.886719 108.242188 L 83.886719 81.761719 C 84.328125 81.726562 84.765625 81.671875 85.203125 81.601562 Z M 81.214844 108.242188 L 57.261719 108.242188 L 57.261719 91.429688 C 58.304688 91.179688 59.273438 90.757812 60.164062 90.160156 C 60.933594 90.46875 61.730469 90.667969 62.554688 90.757812 C 63.382812 90.84375 64.203125 90.816406 65.019531 90.675781 C 65.835938 90.53125 66.621094 90.28125 67.367188 89.921875 C 68.113281 89.5625 68.796875 89.105469 69.417969 88.554688 C 70.039062 88.003906 70.570312 87.375 71.015625 86.675781 C 71.460938 85.976562 71.800781 85.230469 72.039062 84.433594 C 72.273438 83.636719 72.398438 82.824219 72.40625 81.996094 C 72.414062 81.164062 72.3125 80.351562 72.09375 79.550781 C 72.425781 79.351562 72.746094 79.132812 73.054688 78.894531 C 75.511719 80.59375 78.234375 81.554688 81.214844 81.769531 Z M 81.214844 108.242188 "/></g><g style="fill:#000000;fill-opacity:1;"><g transform="translate(172.802572, 110.488343)"><path style="stroke:none" d="M 19.046875 0.671875 C 13.941406 0.671875 10.050781 -0.898438 7.375 -4.046875 C 4.707031 -7.191406 3.222656 -11.515625 2.921875 -17.015625 L 10.421875 -19.046875 C 10.671875 -15.140625 11.429688 -11.988281 12.703125 -9.59375 C 13.984375 -7.195312 16.097656 -6 19.046875 -6 C 21.242188 -6 22.90625 -6.609375 24.03125 -7.828125 C 25.15625 -9.054688 25.71875 -10.820312 25.71875 -13.125 C 25.71875 -15.625 25.191406 -17.695312 24.140625 -19.34375 C 23.085938 -20.988281 21.410156 -22.8125 19.109375 -24.8125 L 8.921875 -33.8125 C 6.867188 -35.613281 5.378906 -37.550781 4.453125 -39.625 C 3.535156 -41.695312 3.078125 -44.234375 3.078125 -47.234375 C 3.078125 -51.679688 4.347656 -55.128906 6.890625 -57.578125 C 9.441406 -60.023438 12.914062 -61.25 17.3125 -61.25 C 22.113281 -61.25 25.738281 -59.972656 28.1875 -57.421875 C 30.632812 -54.878906 32.109375 -50.929688 32.609375 -45.578125 L 25.421875 -43.625 C 25.171875 -47.175781 24.484375 -49.914062 23.359375 -51.84375 C 22.234375 -53.769531 20.21875 -54.734375 17.3125 -54.734375 C 15.164062 -54.734375 13.515625 -54.171875 12.359375 -53.046875 C 11.210938 -51.921875 10.640625 -50.257812 10.640625 -48.0625 C 10.640625 -46.257812 10.9375 -44.742188 11.53125 -43.515625 C 12.132812 -42.296875 13.164062 -41.0625 14.625 -39.8125 L 24.890625 -30.8125 C 27.535156 -28.457031 29.644531 -25.90625 31.21875 -23.15625 C 32.800781 -20.414062 33.59375 -17.296875 33.59375 -13.796875 C 33.59375 -9.347656 32.238281 -5.820312 29.53125 -3.21875 C 26.832031 -0.625 23.335938 0.671875 19.046875 0.671875 Z M 19.046875 0.671875 "/></g></g><g style="fill:#000000;fill-opacity:1;"><g transform="translate(208.252924, 110.488343)"><path style="stroke:none" d="M 4.265625 -60.71875 L 12.296875 -60.71875 L 12.296875 -38.828125 C 15.890625 -42.234375 19.515625 -43.9375 23.171875 -43.9375 C 25.515625 -43.9375 27.171875 -43.082031 28.140625 -41.375 C 29.117188 -39.675781 29.609375 -37.578125 29.609375 -35.078125 L 29.609375 0 L 21.59375 0 L 21.59375 -32.765625 C 21.59375 -34.410156 21.34375 -35.632812 20.84375 -36.4375 C 20.34375 -37.238281 19.441406 -37.640625 18.140625 -37.640625 C 16.390625 -37.640625 14.441406 -36.6875 12.296875 -34.78125 L 12.296875 0 L 4.265625 0 Z M 4.265625 -60.71875 "/></g></g><g style="fill:#000000;fill-opacity:1;"><g transform="translate(241.604747, 110.488343)"><path style="stroke:none" d="M 11.84375 0.59375 C 10.195312 0.59375 8.707031 0.117188 7.375 -0.828125 C 6.050781 -1.773438 5.015625 -3.019531 4.265625 -4.5625 C 3.523438 -6.113281 3.15625 -7.742188 3.15625 -9.453125 C 3.15625 -12.847656 3.878906 -15.609375 5.328125 -17.734375 C 6.773438 -19.859375 8.625 -21.546875 10.875 -22.796875 C 13.125 -24.046875 16.242188 -25.46875 20.234375 -27.0625 L 20.234375 -30.140625 C 20.234375 -32.984375 19.945312 -34.992188 19.375 -36.171875 C 18.800781 -37.347656 17.640625 -37.9375 15.890625 -37.9375 C 12.835938 -37.9375 11.3125 -35.882812 11.3125 -31.78125 L 11.3125 -29.609375 L 3.375 -29.90625 C 3.476562 -34.707031 4.578125 -38.242188 6.671875 -40.515625 C 8.773438 -42.796875 12.023438 -43.9375 16.421875 -43.9375 C 20.566406 -43.9375 23.578125 -42.796875 25.453125 -40.515625 C 27.328125 -38.242188 28.265625 -34.8125 28.265625 -30.21875 L 28.265625 -10.421875 C 28.265625 -7.171875 28.515625 -3.695312 29.015625 0 L 21.671875 0 C 21.117188 -2.84375 20.765625 -4.96875 20.609375 -6.375 C 20.015625 -4.425781 18.976562 -2.773438 17.5 -1.421875 C 16.03125 -0.078125 14.144531 0.59375 11.84375 0.59375 Z M 15 -6.296875 C 16.039062 -6.296875 17.0625 -6.707031 18.0625 -7.53125 C 19.0625 -8.351562 19.785156 -9.140625 20.234375 -9.890625 L 20.234375 -22.1875 C 18.085938 -20.988281 16.425781 -19.953125 15.25 -19.078125 C 14.082031 -18.203125 13.109375 -17.1875 12.328125 -16.03125 C 11.554688 -14.882812 11.171875 -13.515625 11.171875 -11.921875 C 11.171875 -10.117188 11.492188 -8.726562 12.140625 -7.75 C 12.796875 -6.78125 13.75 -6.296875 15 -6.296875 Z M 15 -6.296875 "/></g></g><g style="fill:#000000;fill-opacity:1;"><g transform="translate(273.532546, 110.488343)"><path style="stroke:none" d="M 14.09375 0.59375 C 10.34375 0.59375 7.59375 -0.765625 5.84375 -3.484375 C 4.09375 -6.210938 3.21875 -10.722656 3.21875 -17.015625 L 3.21875 -25.421875 C 3.21875 -31.160156 3.976562 -35.679688 5.5 -38.984375 C 7.03125 -42.285156 9.820312 -43.9375 13.875 -43.9375 C 16.414062 -43.9375 18.8125 -42.8125 21.0625 -40.5625 L 21.0625 -60.71875 L 29.09375 -60.71875 L 29.09375 0 L 21.0625 0 L 21.0625 -2.78125 C 18.96875 -0.53125 16.644531 0.59375 14.09375 0.59375 Z M 16.125 -5.703125 C 17.71875 -5.703125 19.363281 -6.25 21.0625 -7.34375 L 21.0625 -35.765625 C 19.21875 -37.015625 17.519531 -37.640625 15.96875 -37.640625 C 12.820312 -37.640625 11.25 -34.613281 11.25 -28.5625 L 11.25 -16.34375 C 11.25 -12.84375 11.570312 -10.191406 12.21875 -8.390625 C 12.863281 -6.597656 14.164062 -5.703125 16.125 -5.703125 Z M 16.125 -5.703125 "/></g></g><g style="fill:#000000;fill-opacity:1;"><g transform="translate(306.659504, 110.488343)"><path style="stroke:none" d="M 16.046875 0.59375 C 12.691406 0.59375 10.085938 -0.0390625 8.234375 -1.3125 C 6.390625 -2.582031 5.09375 -4.46875 4.34375 -6.96875 C 3.59375 -9.46875 3.21875 -12.71875 3.21875 -16.71875 L 3.21875 -26.609375 C 3.21875 -32.609375 4.15625 -36.992188 6.03125 -39.765625 C 7.90625 -42.546875 11.242188 -43.9375 16.046875 -43.9375 C 19.546875 -43.9375 22.179688 -43.207031 23.953125 -41.75 C 25.722656 -40.300781 26.894531 -38.265625 27.46875 -35.640625 C 28.050781 -33.023438 28.34375 -29.492188 28.34375 -25.046875 L 28.34375 -21.515625 L 11.25 -21.515625 L 11.25 -12.8125 C 11.25 -10.164062 11.632812 -8.253906 12.40625 -7.078125 C 13.175781 -5.910156 14.414062 -5.328125 16.125 -5.328125 C 17.820312 -5.328125 18.96875 -5.910156 19.5625 -7.078125 C 20.164062 -8.253906 20.46875 -10.039062 20.46875 -12.4375 L 20.46875 -15.0625 L 28.265625 -15.0625 L 28.265625 -13.421875 C 28.265625 -8.867188 27.289062 -5.394531 25.34375 -3 C 23.394531 -0.601562 20.296875 0.59375 16.046875 0.59375 Z M 20.46875 -25.859375 L 20.46875 -29.765625 C 20.46875 -32.710938 20.179688 -34.820312 19.609375 -36.09375 C 19.035156 -37.375 17.820312 -38.015625 15.96875 -38.015625 C 14.664062 -38.015625 13.675781 -37.710938 13 -37.109375 C 12.332031 -36.503906 11.875 -35.515625 11.625 -34.140625 C 11.375 -32.773438 11.25 -30.789062 11.25 -28.1875 L 11.25 -25.859375 Z M 20.46875 -25.859375 "/></g></g><g style="fill:#000000;fill-opacity:1;"><g transform="translate(338.212559, 110.488343)"><path style="stroke:none" d="M 4.046875 -43.328125 L 12.0625 -43.328125 L 12.0625 -39.890625 C 14.414062 -42.585938 17.164062 -43.9375 20.3125 -43.9375 C 24.257812 -43.9375 26.894531 -42.25 28.21875 -38.875 C 29.550781 -35.5 30.21875 -31.757812 30.21875 -27.65625 L 30.21875 -17.171875 C 30.21875 -11.867188 29.40625 -7.582031 27.78125 -4.3125 C 26.15625 -1.039062 23.367188 0.59375 19.421875 0.59375 C 16.867188 0.59375 14.414062 -0.675781 12.0625 -3.21875 L 12.0625 14.25 L 4.046875 14.25 Z M 17.84375 -5.703125 C 19.6875 -5.703125 20.867188 -6.632812 21.390625 -8.5 C 21.921875 -10.375 22.1875 -13.265625 22.1875 -17.171875 L 22.1875 -27.65625 C 22.1875 -30.863281 21.882812 -33.328125 21.28125 -35.046875 C 20.6875 -36.773438 19.441406 -37.640625 17.546875 -37.640625 C 15.691406 -37.640625 13.863281 -36.890625 12.0625 -35.390625 L 12.0625 -7.640625 C 13.8125 -6.347656 15.738281 -5.703125 17.84375 -5.703125 Z M 17.84375 -5.703125 "/></g></g><g style="fill:#000000;fill-opacity:1;"><g transform="translate(371.639306, 110.488343)"><path style="stroke:none" d="M 15.96875 0.59375 C 11.375 0.59375 8.113281 -0.765625 6.1875 -3.484375 C 4.257812 -6.210938 3.296875 -10.175781 3.296875 -15.375 L 3.296875 -27.96875 C 3.296875 -33.164062 4.257812 -37.125 6.1875 -39.84375 C 8.113281 -42.570312 11.375 -43.9375 15.96875 -43.9375 C 20.519531 -43.9375 23.753906 -42.570312 25.671875 -39.84375 C 27.597656 -37.125 28.5625 -33.164062 28.5625 -27.96875 L 28.5625 -15.375 C 28.5625 -10.175781 27.597656 -6.210938 25.671875 -3.484375 C 23.753906 -0.765625 20.519531 0.59375 15.96875 0.59375 Z M 15.96875 -5.328125 C 17.414062 -5.328125 18.460938 -5.75 19.109375 -6.59375 C 19.765625 -7.445312 20.164062 -8.5 20.3125 -9.75 C 20.46875 -11 20.546875 -12.695312 20.546875 -14.84375 L 20.546875 -28.40625 C 20.546875 -30.5625 20.46875 -32.273438 20.3125 -33.546875 C 20.164062 -34.816406 19.765625 -35.878906 19.109375 -36.734375 C 18.460938 -37.585938 17.414062 -38.015625 15.96875 -38.015625 C 14.519531 -38.015625 13.457031 -37.585938 12.78125 -36.734375 C 12.101562 -35.878906 11.6875 -34.816406 11.53125 -33.546875 C 11.382812 -32.273438 11.3125 -30.5625 11.3125 -28.40625 L 11.3125 -14.84375 C 11.3125 -12.695312 11.382812 -11 11.53125 -9.75 C 11.6875 -8.5 12.101562 -7.445312 12.78125 -6.59375 C 13.457031 -5.75 14.519531 -5.328125 15.96875 -5.328125 Z M 15.96875 -5.328125 "/></g></g><g style="fill:#000000;fill-opacity:1;"><g transform="translate(403.49215, 110.488343)"><path style="stroke:none" d="M 4.578125 -58.171875 L 12.59375 -58.171875 L 12.59375 -49.78125 L 4.578125 -49.78125 Z M 4.578125 -43.328125 L 12.59375 -43.328125 L 12.59375 0 L 4.578125 0 Z M 4.578125 -43.328125 "/></g></g><g style="fill:#000000;fill-opacity:1;"><g transform="translate(420.655208, 110.488343)"><path style="stroke:none" d="M 4.046875 -43.328125 L 12.0625 -43.328125 L 12.0625 -39.0625 C 15.519531 -42.3125 19.046875 -43.9375 22.640625 -43.9375 C 24.992188 -43.9375 26.664062 -43.082031 27.65625 -41.375 C 28.65625 -39.675781 29.15625 -37.578125 29.15625 -35.078125 L 29.15625 0 L 21.140625 0 L 21.140625 -32.765625 C 21.140625 -34.410156 20.890625 -35.632812 20.390625 -36.4375 C 19.890625 -37.238281 18.988281 -37.640625 17.6875 -37.640625 C 16.09375 -37.640625 14.21875 -36.738281 12.0625 -34.9375 L 12.0625 0 L 4.046875 0 Z M 4.046875 -43.328125 "/></g></g><g style="fill:#000000;fill-opacity:1;"><g transform="translate(453.557332, 110.488343)"><path style="stroke:none" d="M 15.59375 0.59375 C 9.34375 0.59375 6.21875 -2.851562 6.21875 -9.75 L 6.21875 -38.015625 L 1.65625 -38.015625 L 1.65625 -43.328125 L 6.21875 -43.328125 L 6.21875 -56 L 14.25 -56 L 14.25 -43.328125 L 21.21875 -43.328125 L 21.21875 -38.015625 L 14.25 -38.015625 L 14.25 -10.265625 C 14.25 -8.515625 14.519531 -7.289062 15.0625 -6.59375 C 15.613281 -5.894531 16.664062 -5.546875 18.21875 -5.546875 C 19.21875 -5.546875 20.191406 -5.617188 21.140625 -5.765625 L 21.140625 0.15625 C 19.140625 0.445312 17.289062 0.59375 15.59375 0.59375 Z M 15.59375 0.59375 "/></g></g></g></svg>