<svg xmlns="http://www.w3.org/2000/svg" xmlns:xlink="http://www.w3.org/1999/xlink" width="680" zoomAndPan="magnify" viewBox="0 0 510 155.999997" height="208" preserveAspectRatio="xMidYMid meet" version="1.2"><defs><clipPath id="63a053515a"><path d="M 0 6.777344 L 148.636719 6.777344 L 148.636719 155.414062 L 0 155.414062 Z M 0 6.777344 "/></clipPath><clipPath id="bf81622bf3"><path d="M 24.75 6.777344 L 123.886719 6.777344 C 130.449219 6.777344 136.746094 9.386719 141.386719 14.027344 C 146.027344 18.667969 148.636719 24.964844 148.636719 31.527344 L 148.636719 130.664062 C 148.636719 137.230469 146.027344 143.523438 141.386719 148.167969 C 136.746094 152.808594 130.449219 155.414062 123.886719 155.414062 L 24.75 155.414062 C 18.1875 155.414062 11.890625 152.808594 7.25 148.167969 C 2.609375 143.523438 0 137.230469 0 130.664062 L 0 31.527344 C 0 24.964844 2.609375 18.667969 7.25 14.027344 C 11.890625 9.386719 18.1875 6.777344 24.75 6.777344 Z M 24.75 6.777344 "/></clipPath><clipPath id="e5a32d29f5"><path d="M 50.597656 113.824219 L 51.339844 113.824219 L 51.339844 121.957031 L 50.597656 121.957031 Z M 50.597656 113.824219 "/></clipPath><clipPath id="837b05c84d"><path d="M 52 113.816406 L 54 113.816406 L 54 119 L 52 119 Z M 52 113.816406 "/></clipPath><clipPath id="7697c5ef75"><path d="M 54 113.816406 L 56 113.816406 L 56 119 L 54 119 Z M 54 113.816406 "/></clipPath><clipPath id="ed3eb8edb2"><path d="M 56 113.816406 L 58 113.816406 L 58 119 L 56 119 Z M 56 113.816406 "/></clipPath><clipPath id="ea6aac750a"><path d="M 58 113.816406 L 60 113.816406 L 60 119 L 58 119 Z M 58 113.816406 "/></clipPath><clipPath id="1b584b9602"><path d="M 61.011719 113.824219 L 61.753906 113.824219 L 61.753906 121.957031 L 61.011719 121.957031 Z M 61.011719 113.824219 "/></clipPath><clipPath id="b2ce41f7b4"><path d="M 63 113.816406 L 64 113.816406 L 64 119 L 63 119 Z M 63 113.816406 "/></clipPath><clipPath id="2ca7ba06f3"><path d="M 65 113.816406 L 66 113.816406 L 66 119 L 65 119 Z M 65 113.816406 "/></clipPath><clipPath id="7ab87fe996"><path d="M 67 113.816406 L 68 113.816406 L 68 119 L 67 119 Z M 67 113.816406 "/></clipPath><clipPath id="1f141bc507"><path d="M 69 113.816406 L 71 113.816406 L 71 119 L 69 119 Z M 69 113.816406 "/></clipPath><clipPath id="373b9ea327"><path d="M 71.425781 113.824219 L 72.292969 113.824219 L 72.292969 121.957031 L 71.425781 121.957031 Z M 71.425781 113.824219 "/></clipPath><clipPath id="8e4099f6e3"><path d="M 73 113.816406 L 75 113.816406 L 75 119 L 73 119 Z M 73 113.816406 "/></clipPath><clipPath id="32b48795f5"><path d="M 75 113.816406 L 77 113.816406 L 77 119 L 75 119 Z M 75 113.816406 "/></clipPath><clipPath id="e564a6b3bc"><path d="M 77 113.816406 L 79 113.816406 L 79 119 L 77 119 Z M 77 113.816406 "/></clipPath><clipPath id="b647b1c237"><path d="M 79 113.816406 L 81 113.816406 L 81 119 L 79 119 Z M 79 113.816406 "/></clipPath><clipPath id="25f1e04f3b"><path d="M 81.964844 113.824219 L 82.707031 113.824219 L 82.707031 121.957031 L 81.964844 121.957031 Z M 81.964844 113.824219 "/></clipPath><clipPath id="6d9d4a95c7"><path d="M 84 113.816406 L 85 113.816406 L 85 119 L 84 119 Z M 84 113.816406 "/></clipPath><clipPath id="e70459ebbc"><path d="M 86 113.816406 L 87 113.816406 L 87 119 L 86 119 Z M 86 113.816406 "/></clipPath><clipPath id="3b827ff93e"><path d="M 88 113.816406 L 89 113.816406 L 89 119 L 88 119 Z M 88 113.816406 "/></clipPath><clipPath id="d9f65d72fd"><path d="M 90 113.816406 L 92 113.816406 L 92 119 L 90 119 Z M 90 113.816406 "/></clipPath><clipPath id="9a25534224"><path d="M 92.378906 113.824219 L 93.246094 113.824219 L 93.246094 121.957031 L 92.378906 121.957031 Z M 92.378906 113.824219 "/></clipPath><clipPath id="b69db3cf38"><path d="M 102.792969 113.824219 L 103.589844 113.824219 L 103.589844 121.957031 L 102.792969 121.957031 Z M 102.792969 113.824219 "/></clipPath><clipPath id="db91582f2c"><path d="M 94 113.816406 L 96 113.816406 L 96 119 L 94 119 Z M 94 113.816406 "/></clipPath><clipPath id="debb4f8997"><path d="M 96 113.816406 L 98 113.816406 L 98 119 L 96 119 Z M 96 113.816406 "/></clipPath><clipPath id="2c13506309"><path d="M 98 113.816406 L 100 113.816406 L 100 119 L 98 119 Z M 98 113.816406 "/></clipPath><clipPath id="024b3db1d9"><path d="M 100 113.816406 L 102 113.816406 L 102 119 L 100 119 Z M 100 113.816406 "/></clipPath><clipPath id="1dea931e3a"><path d="M 31.808594 40.230469 L 116.558594 40.230469 L 116.558594 115 L 31.808594 115 Z M 31.808594 40.230469 "/></clipPath></defs><g id="2d5cd4a7bf"><g clip-rule="nonzero" clip-path="url(#63a053515a)"><g clip-rule="nonzero" clip-path="url(#bf81622bf3)"><path style=" stroke:none;fill-rule:nonzero;fill:#000000;fill-opacity:1;" d="M 0 6.777344 L 148.636719 6.777344 L 148.636719 155.414062 L 0 155.414062 Z M 0 6.777344 "/></g></g><g style="fill:#000000;fill-opacity:1;"><g transform="translate(172.802572, 110.488343)"><path style="stroke:none" d="M 19.046875 0.671875 C 13.941406 0.671875 10.050781 -0.898438 7.375 -4.046875 C 4.707031 -7.191406 3.222656 -11.515625 2.921875 -17.015625 L 10.421875 -19.046875 C 10.671875 -15.140625 11.429688 -11.988281 12.703125 -9.59375 C 13.984375 -7.195312 16.097656 -6 19.046875 -6 C 21.242188 -6 22.90625 -6.609375 24.03125 -7.828125 C 25.15625 -9.054688 25.71875 -10.820312 25.71875 -13.125 C 25.71875 -15.625 25.191406 -17.695312 24.140625 -19.34375 C 23.085938 -20.988281 21.410156 -22.8125 19.109375 -24.8125 L 8.921875 -33.8125 C 6.867188 -35.613281 5.378906 -37.550781 4.453125 -39.625 C 3.535156 -41.695312 3.078125 -44.234375 3.078125 -47.234375 C 3.078125 -51.679688 4.347656 -55.128906 6.890625 -57.578125 C 9.441406 -60.023438 12.914062 -61.25 17.3125 -61.25 C 22.113281 -61.25 25.738281 -59.972656 28.1875 -57.421875 C 30.632812 -54.878906 32.109375 -50.929688 32.609375 -45.578125 L 25.421875 -43.625 C 25.171875 -47.175781 24.484375 -49.914062 23.359375 -51.84375 C 22.234375 -53.769531 20.21875 -54.734375 17.3125 -54.734375 C 15.164062 -54.734375 13.515625 -54.171875 12.359375 -53.046875 C 11.210938 -51.921875 10.640625 -50.257812 10.640625 -48.0625 C 10.640625 -46.257812 10.9375 -44.742188 11.53125 -43.515625 C 12.132812 -42.296875 13.164062 -41.0625 14.625 -39.8125 L 24.890625 -30.8125 C 27.535156 -28.457031 29.644531 -25.90625 31.21875 -23.15625 C 32.800781 -20.414062 33.59375 -17.296875 33.59375 -13.796875 C 33.59375 -9.347656 32.238281 -5.820312 29.53125 -3.21875 C 26.832031 -0.625 23.335938 0.671875 19.046875 0.671875 Z M 19.046875 0.671875 "/></g></g><g style="fill:#000000;fill-opacity:1;"><g transform="translate(208.252924, 110.488343)"><path style="stroke:none" d="M 4.265625 -60.71875 L 12.296875 -60.71875 L 12.296875 -38.828125 C 15.890625 -42.234375 19.515625 -43.9375 23.171875 -43.9375 C 25.515625 -43.9375 27.171875 -43.082031 28.140625 -41.375 C 29.117188 -39.675781 29.609375 -37.578125 29.609375 -35.078125 L 29.609375 0 L 21.59375 0 L 21.59375 -32.765625 C 21.59375 -34.410156 21.34375 -35.632812 20.84375 -36.4375 C 20.34375 -37.238281 19.441406 -37.640625 18.140625 -37.640625 C 16.390625 -37.640625 14.441406 -36.6875 12.296875 -34.78125 L 12.296875 0 L 4.265625 0 Z M 4.265625 -60.71875 "/></g></g><g style="fill:#000000;fill-opacity:1;"><g transform="translate(241.604747, 110.488343)"><path style="stroke:none" d="M 11.84375 0.59375 C 10.195312 0.59375 8.707031 0.117188 7.375 -0.828125 C 6.050781 -1.773438 5.015625 -3.019531 4.265625 -4.5625 C 3.523438 -6.113281 3.15625 -7.742188 3.15625 -9.453125 C 3.15625 -12.847656 3.878906 -15.609375 5.328125 -17.734375 C 6.773438 -19.859375 8.625 -21.546875 10.875 -22.796875 C 13.125 -24.046875 16.242188 -25.46875 20.234375 -27.0625 L 20.234375 -30.140625 C 20.234375 -32.984375 19.945312 -34.992188 19.375 -36.171875 C 18.800781 -37.347656 17.640625 -37.9375 15.890625 -37.9375 C 12.835938 -37.9375 11.3125 -35.882812 11.3125 -31.78125 L 11.3125 -29.609375 L 3.375 -29.90625 C 3.476562 -34.707031 4.578125 -38.242188 6.671875 -40.515625 C 8.773438 -42.796875 12.023438 -43.9375 16.421875 -43.9375 C 20.566406 -43.9375 23.578125 -42.796875 25.453125 -40.515625 C 27.328125 -38.242188 28.265625 -34.8125 28.265625 -30.21875 L 28.265625 -10.421875 C 28.265625 -7.171875 28.515625 -3.695312 29.015625 0 L 21.671875 0 C 21.117188 -2.84375 20.765625 -4.96875 20.609375 -6.375 C 20.015625 -4.425781 18.976562 -2.773438 17.5 -1.421875 C 16.03125 -0.078125 14.144531 0.59375 11.84375 0.59375 Z M 15 -6.296875 C 16.039062 -6.296875 17.0625 -6.707031 18.0625 -7.53125 C 19.0625 -8.351562 19.785156 -9.140625 20.234375 -9.890625 L 20.234375 -22.1875 C 18.085938 -20.988281 16.425781 -19.953125 15.25 -19.078125 C 14.082031 -18.203125 13.109375 -17.1875 12.328125 -16.03125 C 11.554688 -14.882812 11.171875 -13.515625 11.171875 -11.921875 C 11.171875 -10.117188 11.492188 -8.726562 12.140625 -7.75 C 12.796875 -6.78125 13.75 -6.296875 15 -6.296875 Z M 15 -6.296875 "/></g></g><g style="fill:#000000;fill-opacity:1;"><g transform="translate(273.532546, 110.488343)"><path style="stroke:none" d="M 14.09375 0.59375 C 10.34375 0.59375 7.59375 -0.765625 5.84375 -3.484375 C 4.09375 -6.210938 3.21875 -10.722656 3.21875 -17.015625 L 3.21875 -25.421875 C 3.21875 -31.160156 3.976562 -35.679688 5.5 -38.984375 C 7.03125 -42.285156 9.820312 -43.9375 13.875 -43.9375 C 16.414062 -43.9375 18.8125 -42.8125 21.0625 -40.5625 L 21.0625 -60.71875 L 29.09375 -60.71875 L 29.09375 0 L 21.0625 0 L 21.0625 -2.78125 C 18.96875 -0.53125 16.644531 0.59375 14.09375 0.59375 Z M 16.125 -5.703125 C 17.71875 -5.703125 19.363281 -6.25 21.0625 -7.34375 L 21.0625 -35.765625 C 19.21875 -37.015625 17.519531 -37.640625 15.96875 -37.640625 C 12.820312 -37.640625 11.25 -34.613281 11.25 -28.5625 L 11.25 -16.34375 C 11.25 -12.84375 11.570312 -10.191406 12.21875 -8.390625 C 12.863281 -6.597656 14.164062 -5.703125 16.125 -5.703125 Z M 16.125 -5.703125 "/></g></g><g style="fill:#000000;fill-opacity:1;"><g transform="translate(306.659504, 110.488343)"><path style="stroke:none" d="M 16.046875 0.59375 C 12.691406 0.59375 10.085938 -0.0390625 8.234375 -1.3125 C 6.390625 -2.582031 5.09375 -4.46875 4.34375 -6.96875 C 3.59375 -9.46875 3.21875 -12.71875 3.21875 -16.71875 L 3.21875 -26.609375 C 3.21875 -32.609375 4.15625 -36.992188 6.03125 -39.765625 C 7.90625 -42.546875 11.242188 -43.9375 16.046875 -43.9375 C 19.546875 -43.9375 22.179688 -43.207031 23.953125 -41.75 C 25.722656 -40.300781 26.894531 -38.265625 27.46875 -35.640625 C 28.050781 -33.023438 28.34375 -29.492188 28.34375 -25.046875 L 28.34375 -21.515625 L 11.25 -21.515625 L 11.25 -12.8125 C 11.25 -10.164062 11.632812 -8.253906 12.40625 -7.078125 C 13.175781 -5.910156 14.414062 -5.328125 16.125 -5.328125 C 17.820312 -5.328125 18.96875 -5.910156 19.5625 -7.078125 C 20.164062 -8.253906 20.46875 -10.039062 20.46875 -12.4375 L 20.46875 -15.0625 L 28.265625 -15.0625 L 28.265625 -13.421875 C 28.265625 -8.867188 27.289062 -5.394531 25.34375 -3 C 23.394531 -0.601562 20.296875 0.59375 16.046875 0.59375 Z M 20.46875 -25.859375 L 20.46875 -29.765625 C 20.46875 -32.710938 20.179688 -34.820312 19.609375 -36.09375 C 19.035156 -37.375 17.820312 -38.015625 15.96875 -38.015625 C 14.664062 -38.015625 13.675781 -37.710938 13 -37.109375 C 12.332031 -36.503906 11.875 -35.515625 11.625 -34.140625 C 11.375 -32.773438 11.25 -30.789062 11.25 -28.1875 L 11.25 -25.859375 Z M 20.46875 -25.859375 "/></g></g><g style="fill:#000000;fill-opacity:1;"><g transform="translate(338.212559, 110.488343)"><path style="stroke:none" d="M 4.046875 -43.328125 L 12.0625 -43.328125 L 12.0625 -39.890625 C 14.414062 -42.585938 17.164062 -43.9375 20.3125 -43.9375 C 24.257812 -43.9375 26.894531 -42.25 28.21875 -38.875 C 29.550781 -35.5 30.21875 -31.757812 30.21875 -27.65625 L 30.21875 -17.171875 C 30.21875 -11.867188 29.40625 -7.582031 27.78125 -4.3125 C 26.15625 -1.039062 23.367188 0.59375 19.421875 0.59375 C 16.867188 0.59375 14.414062 -0.675781 12.0625 -3.21875 L 12.0625 14.25 L 4.046875 14.25 Z M 17.84375 -5.703125 C 19.6875 -5.703125 20.867188 -6.632812 21.390625 -8.5 C 21.921875 -10.375 22.1875 -13.265625 22.1875 -17.171875 L 22.1875 -27.65625 C 22.1875 -30.863281 21.882812 -33.328125 21.28125 -35.046875 C 20.6875 -36.773438 19.441406 -37.640625 17.546875 -37.640625 C 15.691406 -37.640625 13.863281 -36.890625 12.0625 -35.390625 L 12.0625 -7.640625 C 13.8125 -6.347656 15.738281 -5.703125 17.84375 -5.703125 Z M 17.84375 -5.703125 "/></g></g><g style="fill:#000000;fill-opacity:1;"><g transform="translate(371.639306, 110.488343)"><path style="stroke:none" d="M 15.96875 0.59375 C 11.375 0.59375 8.113281 -0.765625 6.1875 -3.484375 C 4.257812 -6.210938 3.296875 -10.175781 3.296875 -15.375 L 3.296875 -27.96875 C 3.296875 -33.164062 4.257812 -37.125 6.1875 -39.84375 C 8.113281 -42.570312 11.375 -43.9375 15.96875 -43.9375 C 20.519531 -43.9375 23.753906 -42.570312 25.671875 -39.84375 C 27.597656 -37.125 28.5625 -33.164062 28.5625 -27.96875 L 28.5625 -15.375 C 28.5625 -10.175781 27.597656 -6.210938 25.671875 -3.484375 C 23.753906 -0.765625 20.519531 0.59375 15.96875 0.59375 Z M 15.96875 -5.328125 C 17.414062 -5.328125 18.460938 -5.75 19.109375 -6.59375 C 19.765625 -7.445312 20.164062 -8.5 20.3125 -9.75 C 20.46875 -11 20.546875 -12.695312 20.546875 -14.84375 L 20.546875 -28.40625 C 20.546875 -30.5625 20.46875 -32.273438 20.3125 -33.546875 C 20.164062 -34.816406 19.765625 -35.878906 19.109375 -36.734375 C 18.460938 -37.585938 17.414062 -38.015625 15.96875 -38.015625 C 14.519531 -38.015625 13.457031 -37.585938 12.78125 -36.734375 C 12.101562 -35.878906 11.6875 -34.816406 11.53125 -33.546875 C 11.382812 -32.273438 11.3125 -30.5625 11.3125 -28.40625 L 11.3125 -14.84375 C 11.3125 -12.695312 11.382812 -11 11.53125 -9.75 C 11.6875 -8.5 12.101562 -7.445312 12.78125 -6.59375 C 13.457031 -5.75 14.519531 -5.328125 15.96875 -5.328125 Z M 15.96875 -5.328125 "/></g></g><g style="fill:#000000;fill-opacity:1;"><g transform="translate(403.49215, 110.488343)"><path style="stroke:none" d="M 4.578125 -58.171875 L 12.59375 -58.171875 L 12.59375 -49.78125 L 4.578125 -49.78125 Z M 4.578125 -43.328125 L 12.59375 -43.328125 L 12.59375 0 L 4.578125 0 Z M 4.578125 -43.328125 "/></g></g><g style="fill:#000000;fill-opacity:1;"><g transform="translate(420.655208, 110.488343)"><path style="stroke:none" d="M 4.046875 -43.328125 L 12.0625 -43.328125 L 12.0625 -39.0625 C 15.519531 -42.3125 19.046875 -43.9375 22.640625 -43.9375 C 24.992188 -43.9375 26.664062 -43.082031 27.65625 -41.375 C 28.65625 -39.675781 29.15625 -37.578125 29.15625 -35.078125 L 29.15625 0 L 21.140625 0 L 21.140625 -32.765625 C 21.140625 -34.410156 20.890625 -35.632812 20.390625 -36.4375 C 19.890625 -37.238281 18.988281 -37.640625 17.6875 -37.640625 C 16.09375 -37.640625 14.21875 -36.738281 12.0625 -34.9375 L 12.0625 0 L 4.046875 0 Z M 4.046875 -43.328125 "/></g></g><g style="fill:#000000;fill-opacity:1;"><g transform="translate(453.557332, 110.488343)"><path style="stroke:none" d="M 15.59375 0.59375 C 9.34375 0.59375 6.21875 -2.851562 6.21875 -9.75 L 6.21875 -38.015625 L 1.65625 -38.015625 L 1.65625 -43.328125 L 6.21875 -43.328125 L 6.21875 -56 L 14.25 -56 L 14.25 -43.328125 L 21.21875 -43.328125 L 21.21875 -38.015625 L 14.25 -38.015625 L 14.25 -10.265625 C 14.25 -8.515625 14.519531 -7.289062 15.0625 -6.59375 C 15.613281 -5.894531 16.664062 -5.546875 18.21875 -5.546875 C 19.21875 -5.546875 20.191406 -5.617188 21.140625 -5.765625 L 21.140625 0.15625 C 19.140625 0.445312 17.289062 0.59375 15.59375 0.59375 Z M 15.59375 0.59375 "/></g></g><g clip-rule="nonzero" clip-path="url(#e5a32d29f5)"><path style=" stroke:none;fill-rule:nonzero;fill:#ffffff;fill-opacity:1;" d="M 51.285156 113.824219 L 51.285156 121.957031 L 50.597656 121.957031 L 50.597656 113.824219 L 51.285156 113.824219 "/></g><g clip-rule="nonzero" clip-path="url(#837b05c84d)"><path style=" stroke:none;fill-rule:nonzero;fill:#ffffff;fill-opacity:1;" d="M 53.367188 113.824219 L 53.367188 118.414062 L 52.679688 118.414062 L 52.679688 113.824219 L 53.367188 113.824219 "/></g><g clip-rule="nonzero" clip-path="url(#7697c5ef75)"><path style=" stroke:none;fill-rule:nonzero;fill:#ffffff;fill-opacity:1;" d="M 55.453125 113.824219 L 55.453125 118.414062 L 54.765625 118.414062 L 54.765625 113.824219 L 55.453125 113.824219 "/></g><g clip-rule="nonzero" clip-path="url(#ed3eb8edb2)"><path style=" stroke:none;fill-rule:nonzero;fill:#ffffff;fill-opacity:1;" d="M 57.539062 113.824219 L 57.539062 118.414062 L 56.847656 118.414062 L 56.847656 113.824219 L 57.539062 113.824219 "/></g><g clip-rule="nonzero" clip-path="url(#ea6aac750a)"><path style=" stroke:none;fill-rule:nonzero;fill:#ffffff;fill-opacity:1;" d="M 59.621094 113.824219 L 59.621094 118.414062 L 58.933594 118.414062 L 58.933594 113.824219 L 59.621094 113.824219 "/></g><g clip-rule="nonzero" clip-path="url(#1b584b9602)"><path style=" stroke:none;fill-rule:nonzero;fill:#ffffff;fill-opacity:1;" d="M 61.746094 113.824219 L 61.746094 121.957031 L 61.058594 121.957031 L 61.058594 113.824219 L 61.746094 113.824219 "/></g><g clip-rule="nonzero" clip-path="url(#b2ce41f7b4)"><path style=" stroke:none;fill-rule:nonzero;fill:#ffffff;fill-opacity:1;" d="M 63.828125 113.824219 L 63.828125 118.414062 L 63.140625 118.414062 L 63.140625 113.824219 L 63.828125 113.824219 "/></g><g clip-rule="nonzero" clip-path="url(#2ca7ba06f3)"><path style=" stroke:none;fill-rule:nonzero;fill:#ffffff;fill-opacity:1;" d="M 65.914062 113.824219 L 65.914062 118.414062 L 65.226562 118.414062 L 65.226562 113.824219 L 65.914062 113.824219 "/></g><g clip-rule="nonzero" clip-path="url(#7ab87fe996)"><path style=" stroke:none;fill-rule:nonzero;fill:#ffffff;fill-opacity:1;" d="M 68 113.824219 L 68 118.414062 L 67.308594 118.414062 L 67.308594 113.824219 L 68 113.824219 "/></g><g clip-rule="nonzero" clip-path="url(#1f141bc507)"><path style=" stroke:none;fill-rule:nonzero;fill:#ffffff;fill-opacity:1;" d="M 70.082031 113.824219 L 70.082031 118.414062 L 69.394531 118.414062 L 69.394531 113.824219 L 70.082031 113.824219 "/></g><g clip-rule="nonzero" clip-path="url(#373b9ea327)"><path style=" stroke:none;fill-rule:nonzero;fill:#ffffff;fill-opacity:1;" d="M 72.207031 113.824219 L 72.207031 121.957031 L 71.515625 121.957031 L 71.515625 113.824219 L 72.207031 113.824219 "/></g><g clip-rule="nonzero" clip-path="url(#8e4099f6e3)"><path style=" stroke:none;fill-rule:nonzero;fill:#ffffff;fill-opacity:1;" d="M 74.289062 113.824219 L 74.289062 118.414062 L 73.601562 118.414062 L 73.601562 113.824219 L 74.289062 113.824219 "/></g><g clip-rule="nonzero" clip-path="url(#32b48795f5)"><path style=" stroke:none;fill-rule:nonzero;fill:#ffffff;fill-opacity:1;" d="M 76.375 113.824219 L 76.375 118.414062 L 75.6875 118.414062 L 75.6875 113.824219 L 76.375 113.824219 "/></g><g clip-rule="nonzero" clip-path="url(#e564a6b3bc)"><path style=" stroke:none;fill-rule:nonzero;fill:#ffffff;fill-opacity:1;" d="M 78.460938 113.824219 L 78.460938 118.414062 L 77.769531 118.414062 L 77.769531 113.824219 L 78.460938 113.824219 "/></g><g clip-rule="nonzero" clip-path="url(#b647b1c237)"><path style=" stroke:none;fill-rule:nonzero;fill:#ffffff;fill-opacity:1;" d="M 80.542969 113.824219 L 80.542969 118.414062 L 79.855469 118.414062 L 79.855469 113.824219 L 80.542969 113.824219 "/></g><g clip-rule="nonzero" clip-path="url(#25f1e04f3b)"><path style=" stroke:none;fill-rule:nonzero;fill:#ffffff;fill-opacity:1;" d="M 82.667969 113.824219 L 82.667969 121.957031 L 81.976562 121.957031 L 81.976562 113.824219 L 82.667969 113.824219 "/></g><g clip-rule="nonzero" clip-path="url(#6d9d4a95c7)"><path style=" stroke:none;fill-rule:nonzero;fill:#ffffff;fill-opacity:1;" d="M 84.75 113.824219 L 84.75 118.414062 L 84.0625 118.414062 L 84.0625 113.824219 L 84.75 113.824219 "/></g><g clip-rule="nonzero" clip-path="url(#e70459ebbc)"><path style=" stroke:none;fill-rule:nonzero;fill:#ffffff;fill-opacity:1;" d="M 86.835938 113.824219 L 86.835938 118.414062 L 86.148438 118.414062 L 86.148438 113.824219 L 86.835938 113.824219 "/></g><g clip-rule="nonzero" clip-path="url(#3b827ff93e)"><path style=" stroke:none;fill-rule:nonzero;fill:#ffffff;fill-opacity:1;" d="M 88.921875 113.824219 L 88.921875 118.414062 L 88.230469 118.414062 L 88.230469 113.824219 L 88.921875 113.824219 "/></g><g clip-rule="nonzero" clip-path="url(#d9f65d72fd)"><path style=" stroke:none;fill-rule:nonzero;fill:#ffffff;fill-opacity:1;" d="M 91.003906 113.824219 L 91.003906 118.414062 L 90.316406 118.414062 L 90.316406 113.824219 L 91.003906 113.824219 "/></g><g clip-rule="nonzero" clip-path="url(#9a25534224)"><path style=" stroke:none;fill-rule:nonzero;fill:#ffffff;fill-opacity:1;" d="M 93.128906 113.824219 L 93.128906 121.957031 L 92.4375 121.957031 L 92.4375 113.824219 L 93.128906 113.824219 "/></g><g clip-rule="nonzero" clip-path="url(#b69db3cf38)"><path style=" stroke:none;fill-rule:nonzero;fill:#ffffff;fill-opacity:1;" d="M 103.589844 113.824219 L 103.589844 121.957031 L 102.898438 121.957031 L 102.898438 113.824219 L 103.589844 113.824219 "/></g><g clip-rule="nonzero" clip-path="url(#db91582f2c)"><path style=" stroke:none;fill-rule:nonzero;fill:#ffffff;fill-opacity:1;" d="M 95.210938 113.824219 L 95.210938 118.414062 L 94.523438 118.414062 L 94.523438 113.824219 L 95.210938 113.824219 "/></g><g clip-rule="nonzero" clip-path="url(#debb4f8997)"><path style=" stroke:none;fill-rule:nonzero;fill:#ffffff;fill-opacity:1;" d="M 97.296875 113.824219 L 97.296875 118.414062 L 96.609375 118.414062 L 96.609375 113.824219 L 97.296875 113.824219 "/></g><g clip-rule="nonzero" clip-path="url(#2c13506309)"><path style=" stroke:none;fill-rule:nonzero;fill:#ffffff;fill-opacity:1;" d="M 99.382812 113.824219 L 99.382812 118.414062 L 98.691406 118.414062 L 98.691406 113.824219 L 99.382812 113.824219 "/></g><g clip-rule="nonzero" clip-path="url(#024b3db1d9)"><path style=" stroke:none;fill-rule:nonzero;fill:#ffffff;fill-opacity:1;" d="M 101.464844 113.824219 L 101.464844 118.414062 L 100.777344 118.414062 L 100.777344 113.824219 L 101.464844 113.824219 "/></g><g clip-rule="nonzero" clip-path="url(#1dea931e3a)"><path style=" stroke:none;fill-rule:nonzero;fill:#ffffff;fill-opacity:1;" d="M 108.96875 81.804688 C 108.902344 81.160156 108.78125 80.523438 108.613281 79.894531 C 108.441406 79.265625 108.222656 78.65625 107.953125 78.0625 C 107.6875 77.472656 107.371094 76.90625 107.011719 76.363281 C 106.648438 75.820312 106.25 75.3125 105.804688 74.835938 C 105.363281 74.359375 104.882812 73.921875 104.371094 73.523438 C 103.855469 73.125 103.316406 72.769531 102.742188 72.457031 C 102.171875 72.148438 101.582031 71.882812 100.964844 71.667969 C 100.351562 71.453125 99.726562 71.289062 99.085938 71.175781 C 99.210938 70.128906 99.234375 69.082031 99.164062 68.035156 L 98.261719 54.976562 C 98.191406 53.988281 98.035156 53.015625 97.78125 52.054688 C 97.53125 51.097656 97.191406 50.167969 96.765625 49.273438 C 96.339844 48.378906 95.832031 47.53125 95.246094 46.730469 C 94.660156 45.933594 94.007812 45.195312 93.28125 44.515625 C 92.558594 43.839844 91.777344 43.238281 90.9375 42.707031 C 90.097656 42.179688 89.21875 41.734375 88.296875 41.367188 C 87.375 41.003906 86.425781 40.730469 85.453125 40.546875 C 84.480469 40.359375 83.496094 40.265625 82.503906 40.265625 C 81.511719 40.265625 80.53125 40.359375 79.558594 40.542969 C 78.582031 40.726562 77.636719 41.003906 76.710938 41.367188 C 75.789062 41.730469 74.910156 42.175781 74.070312 42.703125 C 73.234375 43.234375 72.449219 43.835938 71.726562 44.511719 C 71 45.1875 70.34375 45.925781 69.757812 46.722656 C 69.171875 47.523438 68.667969 48.371094 68.238281 49.265625 C 67.8125 50.160156 67.472656 51.085938 67.222656 52.046875 C 66.96875 53.003906 66.808594 53.980469 66.738281 54.96875 L 66.574219 57.328125 C 65.449219 56.660156 64.238281 56.265625 62.9375 56.136719 C 62.636719 55.234375 62.199219 54.402344 61.628906 53.640625 C 61.058594 52.878906 60.386719 52.222656 59.605469 51.679688 C 58.828125 51.132812 57.984375 50.71875 57.070312 50.445312 C 56.160156 50.167969 55.230469 50.042969 54.277344 50.066406 C 53.328125 50.089844 52.402344 50.257812 51.507812 50.578125 C 50.609375 50.898438 49.785156 51.347656 49.035156 51.929688 C 48.28125 52.515625 47.640625 53.199219 47.105469 53.988281 C 46.574219 54.777344 46.179688 55.628906 45.917969 56.546875 C 45.746094 56.742188 45.640625 56.96875 45.601562 57.230469 C 45.558594 57.488281 45.59375 57.738281 45.703125 57.976562 C 45.8125 58.21875 45.976562 58.410156 46.195312 58.550781 C 46.414062 58.695312 46.65625 58.765625 46.917969 58.765625 C 46.9375 58.765625 46.953125 58.765625 46.96875 58.765625 L 47.050781 58.769531 C 47.371094 58.773438 47.65625 58.675781 47.90625 58.476562 C 48.160156 58.277344 48.316406 58.019531 48.382812 57.703125 C 48.527344 57 48.789062 56.34375 49.160156 55.730469 C 49.535156 55.117188 50 54.585938 50.554688 54.132812 C 51.109375 53.679688 51.726562 53.332031 52.402344 53.09375 C 53.078125 52.851562 53.773438 52.734375 54.492188 52.734375 C 55.210938 52.734375 55.90625 52.851562 56.582031 53.09375 C 57.257812 53.332031 57.875 53.679688 58.429688 54.132812 C 58.984375 54.585938 59.449219 55.117188 59.824219 55.730469 C 60.195312 56.34375 60.453125 57 60.601562 57.703125 C 60.664062 58.019531 60.824219 58.277344 61.074219 58.476562 C 61.328125 58.675781 61.613281 58.773438 61.933594 58.769531 L 62.011719 58.765625 C 62.03125 58.765625 62.046875 58.765625 62.0625 58.765625 C 62.472656 58.765625 62.878906 58.804688 63.28125 58.886719 C 63.683594 58.964844 64.070312 59.085938 64.449219 59.242188 C 64.828125 59.398438 65.1875 59.589844 65.527344 59.816406 C 65.867188 60.046875 66.183594 60.304688 66.472656 60.59375 C 66.761719 60.882812 67.019531 61.199219 67.25 61.539062 C 67.476562 61.878906 67.667969 62.238281 67.824219 62.617188 C 67.980469 62.996094 68.101562 63.382812 68.179688 63.785156 C 68.261719 64.1875 68.300781 64.59375 68.300781 65.003906 C 68.304688 66.015625 68.070312 66.972656 67.601562 67.875 C 67.503906 68.0625 67.453125 68.265625 67.449219 68.480469 C 67.449219 68.691406 67.496094 68.894531 67.59375 69.085938 C 67.6875 69.277344 67.820312 69.4375 67.996094 69.5625 C 68.167969 69.691406 68.359375 69.773438 68.570312 69.804688 C 69.238281 69.917969 69.871094 70.132812 70.472656 70.449219 C 71.070312 70.765625 71.605469 71.167969 72.070312 71.660156 C 72.539062 72.152344 72.914062 72.703125 73.203125 73.320312 C 73.488281 73.933594 73.671875 74.578125 73.75 75.25 C 73.824219 75.925781 73.792969 76.59375 73.652344 77.253906 C 73.511719 77.917969 73.269531 78.542969 72.925781 79.125 C 72.582031 79.710938 72.15625 80.226562 71.640625 80.667969 C 71.128906 81.113281 70.5625 81.464844 69.933594 81.726562 C 69.769531 81.792969 69.625 81.890625 69.496094 82.019531 C 69.371094 82.144531 69.277344 82.292969 69.207031 82.457031 C 69.140625 82.625 69.109375 82.796875 69.109375 82.976562 C 69.113281 83.15625 69.152344 83.328125 69.222656 83.492188 C 69.480469 84.082031 69.640625 84.699219 69.707031 85.339844 C 69.769531 85.980469 69.738281 86.617188 69.605469 87.246094 C 69.476562 87.878906 69.25 88.472656 68.933594 89.035156 C 68.617188 89.597656 68.222656 90.097656 67.753906 90.539062 C 67.28125 90.976562 66.753906 91.335938 66.171875 91.609375 C 65.589844 91.886719 64.980469 92.066406 64.339844 92.15625 C 63.703125 92.242188 63.066406 92.230469 62.429688 92.121094 C 61.796875 92.007812 61.191406 91.804688 60.621094 91.507812 C 60.382812 91.382812 60.128906 91.335938 59.863281 91.363281 C 59.597656 91.390625 59.359375 91.488281 59.152344 91.660156 C 58.585938 92.128906 57.953125 92.484375 57.261719 92.726562 L 57.261719 84.246094 L 62.929688 78.511719 C 63.054688 78.386719 63.152344 78.242188 63.21875 78.078125 C 63.285156 77.914062 63.320312 77.742188 63.316406 77.566406 C 63.316406 77.386719 63.28125 77.21875 63.214844 77.054688 C 63.144531 76.890625 63.046875 76.746094 62.921875 76.621094 C 62.796875 76.496094 62.652344 76.402344 62.488281 76.335938 C 62.324219 76.269531 62.152344 76.234375 61.972656 76.238281 C 61.796875 76.238281 61.625 76.273438 61.464844 76.34375 C 61.300781 76.410156 61.15625 76.507812 61.03125 76.636719 L 57.261719 80.449219 L 57.261719 72.90625 C 57.261719 72.730469 57.226562 72.558594 57.160156 72.394531 C 57.089844 72.234375 56.996094 72.089844 56.871094 71.964844 C 56.746094 71.839844 56.601562 71.742188 56.4375 71.675781 C 56.273438 71.605469 56.101562 71.574219 55.925781 71.574219 C 55.75 71.574219 55.578125 71.605469 55.414062 71.675781 C 55.25 71.742188 55.105469 71.839844 54.980469 71.964844 C 54.855469 72.089844 54.761719 72.234375 54.691406 72.394531 C 54.625 72.558594 54.589844 72.730469 54.589844 72.90625 L 54.589844 86.945312 L 50.714844 83.554688 C 50.582031 83.4375 50.429688 83.351562 50.261719 83.292969 C 50.09375 83.238281 49.921875 83.214844 49.746094 83.226562 C 49.570312 83.238281 49.402344 83.285156 49.242188 83.363281 C 49.082031 83.441406 48.945312 83.546875 48.828125 83.679688 C 48.714844 83.8125 48.625 83.964844 48.570312 84.132812 C 48.511719 84.296875 48.492188 84.472656 48.503906 84.648438 C 48.515625 84.824219 48.558594 84.992188 48.636719 85.152344 C 48.714844 85.308594 48.820312 85.445312 48.957031 85.5625 L 54.589844 90.492188 L 54.589844 93.050781 C 53.472656 92.945312 52.457031 92.5625 51.546875 91.902344 C 51.332031 91.75 51.089844 91.664062 50.824219 91.652344 C 50.5625 91.640625 50.3125 91.703125 50.085938 91.835938 C 49.53125 92.164062 48.941406 92.398438 48.316406 92.539062 C 47.6875 92.683594 47.054688 92.730469 46.414062 92.675781 C 45.773438 92.625 45.15625 92.476562 44.5625 92.234375 C 43.96875 91.992188 43.421875 91.664062 42.929688 91.253906 C 42.433594 90.839844 42.015625 90.367188 41.667969 89.824219 C 41.320312 89.28125 41.066406 88.703125 40.898438 88.082031 C 40.730469 87.460938 40.660156 86.832031 40.6875 86.1875 C 40.714844 85.546875 40.839844 84.921875 41.058594 84.320312 C 41.128906 84.128906 41.15625 83.933594 41.136719 83.730469 C 41.113281 83.527344 41.050781 83.339844 40.945312 83.167969 C 40.84375 82.996094 40.703125 82.851562 40.535156 82.742188 C 40.363281 82.632812 40.179688 82.5625 39.976562 82.535156 C 39.59375 82.488281 39.21875 82.402344 38.855469 82.285156 C 38.488281 82.164062 38.136719 82.011719 37.796875 81.828125 C 37.457031 81.644531 37.140625 81.429688 36.839844 81.1875 C 36.542969 80.945312 36.269531 80.675781 36.019531 80.378906 C 35.769531 80.085938 35.550781 79.773438 35.359375 79.4375 C 35.171875 79.101562 35.011719 78.753906 34.886719 78.386719 C 34.761719 78.023438 34.667969 77.652344 34.613281 77.269531 C 34.554688 76.890625 34.535156 76.507812 34.550781 76.121094 C 34.5625 75.734375 34.613281 75.355469 34.699219 74.980469 C 34.78125 74.605469 34.902344 74.238281 35.054688 73.886719 C 35.207031 73.53125 35.390625 73.195312 35.605469 72.875 C 35.820312 72.554688 36.0625 72.257812 36.332031 71.984375 C 36.601562 71.707031 36.894531 71.460938 37.210938 71.238281 C 37.527344 71.019531 37.859375 70.828125 38.210938 70.671875 C 38.5625 70.511719 38.925781 70.386719 39.300781 70.296875 C 39.671875 70.203125 40.054688 70.148438 40.4375 70.125 C 40.550781 70.121094 40.664062 70.097656 40.773438 70.0625 C 40.878906 70.03125 40.984375 69.980469 41.078125 69.921875 C 41.175781 69.859375 41.261719 69.785156 41.339844 69.703125 C 41.417969 69.621094 41.484375 69.527344 41.539062 69.425781 C 41.59375 69.328125 41.632812 69.222656 41.660156 69.109375 C 41.6875 69 41.703125 68.886719 41.699219 68.773438 C 41.699219 68.660156 41.683594 68.546875 41.652344 68.4375 C 41.621094 68.328125 41.578125 68.222656 41.519531 68.125 C 41.152344 67.492188 40.90625 66.816406 40.777344 66.09375 C 40.652344 65.375 40.648438 64.65625 40.773438 63.933594 C 40.898438 63.214844 41.144531 62.539062 41.503906 61.902344 C 41.867188 61.269531 42.328125 60.714844 42.886719 60.242188 C 43.023438 60.128906 43.128906 59.992188 43.210938 59.835938 C 43.289062 59.679688 43.339844 59.511719 43.351562 59.335938 C 43.367188 59.160156 43.347656 58.984375 43.292969 58.816406 C 43.238281 58.648438 43.15625 58.496094 43.039062 58.363281 C 42.925781 58.226562 42.789062 58.121094 42.632812 58.039062 C 42.476562 57.957031 42.308594 57.910156 42.132812 57.894531 C 41.957031 57.882812 41.785156 57.902344 41.613281 57.957031 C 41.445312 58.007812 41.292969 58.09375 41.160156 58.207031 C 40.484375 58.777344 39.910156 59.4375 39.429688 60.179688 C 38.953125 60.921875 38.59375 61.71875 38.351562 62.570312 C 38.109375 63.417969 37.996094 64.285156 38.015625 65.167969 C 38.03125 66.050781 38.175781 66.914062 38.449219 67.753906 C 37.519531 68.007812 36.652344 68.402344 35.847656 68.9375 C 35.042969 69.472656 34.347656 70.117188 33.753906 70.878906 C 33.160156 71.640625 32.703125 72.476562 32.382812 73.386719 C 32.0625 74.296875 31.894531 75.234375 31.875 76.199219 C 31.859375 77.164062 31.996094 78.105469 32.285156 79.027344 C 32.574219 79.949219 33.003906 80.796875 33.570312 81.578125 C 34.136719 82.359375 34.8125 83.03125 35.597656 83.59375 C 36.378906 84.15625 37.234375 84.578125 38.15625 84.863281 C 38.007812 85.667969 37.972656 86.476562 38.050781 87.292969 C 38.125 88.105469 38.308594 88.894531 38.601562 89.65625 C 38.894531 90.421875 39.289062 91.128906 39.777344 91.785156 C 40.265625 92.441406 40.832031 93.019531 41.480469 93.515625 C 42.125 94.015625 42.828125 94.417969 43.585938 94.722656 C 44.34375 95.03125 45.132812 95.226562 45.945312 95.316406 C 46.757812 95.40625 47.566406 95.386719 48.371094 95.25 C 49.179688 95.117188 49.953125 94.878906 50.691406 94.53125 C 51.898438 95.242188 53.195312 95.640625 54.589844 95.730469 L 54.589844 112.316406 L 50.957031 112.316406 C 50.78125 112.316406 50.609375 112.351562 50.445312 112.417969 C 50.285156 112.488281 50.140625 112.582031 50.015625 112.707031 C 49.886719 112.832031 49.792969 112.976562 49.722656 113.140625 C 49.65625 113.304688 49.621094 113.476562 49.621094 113.652344 C 49.621094 113.828125 49.65625 114 49.722656 114.164062 C 49.792969 114.328125 49.886719 114.472656 50.015625 114.597656 C 50.140625 114.722656 50.285156 114.816406 50.445312 114.886719 C 50.609375 114.953125 50.78125 114.988281 50.957031 114.988281 L 104.410156 114.988281 C 104.585938 114.988281 104.757812 114.953125 104.921875 114.886719 C 105.085938 114.816406 105.230469 114.722656 105.355469 114.597656 C 105.480469 114.472656 105.574219 114.328125 105.644531 114.164062 C 105.710938 114 105.746094 113.828125 105.746094 113.652344 C 105.746094 113.476562 105.710938 113.304688 105.644531 113.140625 C 105.574219 112.976562 105.480469 112.832031 105.355469 112.707031 C 105.230469 112.582031 105.085938 112.488281 104.921875 112.417969 C 104.757812 112.351562 104.585938 112.316406 104.410156 112.316406 L 98.976562 112.316406 L 98.976562 104.496094 C 99.898438 104.382812 100.78125 104.125 101.617188 103.71875 C 102.457031 103.316406 103.210938 102.789062 103.875 102.140625 C 104.542969 101.492188 105.085938 100.75 105.511719 99.921875 C 105.9375 99.09375 106.21875 98.21875 106.355469 97.300781 C 106.382812 97.125 106.375 96.949219 106.332031 96.777344 C 106.292969 96.605469 106.21875 96.449219 106.113281 96.304688 C 106.007812 96.164062 105.878906 96.046875 105.730469 95.953125 C 105.578125 95.863281 105.414062 95.800781 105.238281 95.777344 C 105.0625 95.75 104.890625 95.757812 104.71875 95.796875 C 104.546875 95.839844 104.390625 95.914062 104.246094 96.019531 C 104.105469 96.125 103.984375 96.25 103.894531 96.402344 C 103.800781 96.554688 103.742188 96.71875 103.714844 96.894531 C 103.621094 97.496094 103.433594 98.066406 103.160156 98.613281 C 102.886719 99.15625 102.539062 99.648438 102.117188 100.085938 C 101.691406 100.523438 101.210938 100.890625 100.675781 101.179688 C 100.140625 101.472656 99.574219 101.675781 98.976562 101.792969 L 98.976562 97.066406 L 103.882812 92.652344 C 104.015625 92.535156 104.117188 92.394531 104.195312 92.238281 C 104.273438 92.078125 104.316406 91.910156 104.324219 91.730469 C 104.332031 91.554688 104.308594 91.382812 104.25 91.214844 C 104.191406 91.046875 104.101562 90.898438 103.984375 90.765625 C 103.867188 90.636719 103.726562 90.53125 103.566406 90.457031 C 103.40625 90.378906 103.238281 90.335938 103.0625 90.328125 C 102.882812 90.316406 102.710938 90.34375 102.546875 90.402344 C 102.378906 90.460938 102.230469 90.550781 102.097656 90.667969 L 98.976562 93.476562 L 98.976562 87.011719 C 98.976562 86.835938 98.941406 86.664062 98.875 86.503906 C 98.804688 86.339844 98.710938 86.195312 98.585938 86.070312 C 98.460938 85.945312 98.316406 85.847656 98.152344 85.78125 C 97.988281 85.710938 97.816406 85.679688 97.640625 85.679688 C 97.464844 85.679688 97.292969 85.710938 97.128906 85.78125 C 96.964844 85.847656 96.820312 85.945312 96.695312 86.070312 C 96.570312 86.195312 96.476562 86.339844 96.40625 86.503906 C 96.339844 86.664062 96.304688 86.835938 96.304688 87.011719 L 96.304688 101.6875 C 95.867188 101.566406 95.449219 101.398438 95.050781 101.183594 C 94.652344 100.96875 94.285156 100.710938 93.945312 100.410156 C 93.605469 100.109375 93.304688 99.773438 93.042969 99.402344 C 92.78125 99.035156 92.5625 98.640625 92.390625 98.21875 C 92.222656 97.800781 92.097656 97.367188 92.027344 96.917969 C 91.957031 96.472656 91.9375 96.023438 91.96875 95.570312 C 92 95.117188 92.082031 94.675781 92.214844 94.242188 C 92.347656 93.808594 92.527344 93.394531 92.757812 93.003906 C 92.847656 92.851562 92.902344 92.6875 92.925781 92.511719 C 92.953125 92.335938 92.941406 92.160156 92.894531 91.988281 C 92.851562 91.816406 92.773438 91.660156 92.664062 91.519531 C 92.558594 91.378906 92.425781 91.265625 92.273438 91.175781 C 91.128906 90.511719 90.167969 89.648438 89.386719 88.578125 C 88.605469 87.511719 88.074219 86.328125 87.792969 85.039062 C 90.171875 84.242188 92.261719 82.976562 94.070312 81.238281 C 94.195312 81.113281 94.296875 80.972656 94.367188 80.808594 C 94.4375 80.648438 94.476562 80.476562 94.480469 80.300781 C 94.484375 80.125 94.453125 79.953125 94.386719 79.789062 C 94.324219 79.621094 94.230469 79.476562 94.109375 79.347656 C 93.984375 79.222656 93.84375 79.121094 93.679688 79.050781 C 93.519531 78.980469 93.347656 78.941406 93.171875 78.9375 C 92.992188 78.933594 92.824219 78.964844 92.65625 79.03125 C 92.492188 79.09375 92.347656 79.1875 92.21875 79.3125 C 91.085938 80.402344 89.804688 81.28125 88.378906 81.9375 C 86.949219 82.597656 85.453125 83.003906 83.886719 83.15625 L 83.886719 77.527344 L 90.339844 71.628906 C 90.472656 71.507812 90.574219 71.367188 90.648438 71.207031 C 90.726562 71.046875 90.765625 70.878906 90.773438 70.703125 C 90.78125 70.527344 90.757812 70.355469 90.695312 70.1875 C 90.636719 70.019531 90.546875 69.871094 90.425781 69.742188 C 90.308594 69.609375 90.167969 69.507812 90.007812 69.433594 C 89.847656 69.359375 89.675781 69.316406 89.5 69.308594 C 89.324219 69.300781 89.152344 69.328125 88.984375 69.386719 C 88.820312 69.449219 88.671875 69.539062 88.539062 69.65625 L 83.886719 73.910156 L 83.886719 59.496094 C 83.886719 59.320312 83.851562 59.148438 83.785156 58.988281 C 83.714844 58.824219 83.621094 58.679688 83.496094 58.554688 C 83.371094 58.429688 83.226562 58.332031 83.0625 58.265625 C 82.898438 58.195312 82.726562 58.164062 82.550781 58.164062 C 82.375 58.164062 82.203125 58.195312 82.039062 58.265625 C 81.875 58.332031 81.730469 58.429688 81.605469 58.554688 C 81.480469 58.679688 81.386719 58.824219 81.316406 58.988281 C 81.25 59.148438 81.214844 59.320312 81.214844 59.496094 L 81.214844 67 L 78.207031 63.476562 C 78.09375 63.34375 77.957031 63.234375 77.796875 63.15625 C 77.640625 63.074219 77.472656 63.027344 77.296875 63.015625 C 77.121094 63 76.949219 63.019531 76.78125 63.078125 C 76.613281 63.132812 76.460938 63.214844 76.324219 63.332031 C 76.191406 63.445312 76.082031 63.582031 76.003906 63.738281 C 75.921875 63.898438 75.875 64.066406 75.863281 64.242188 C 75.847656 64.417969 75.867188 64.589844 75.921875 64.757812 C 75.976562 64.925781 76.0625 65.078125 76.179688 65.214844 L 81.214844 71.105469 L 81.214844 83.164062 C 78.933594 82.964844 76.828125 82.242188 74.902344 80.996094 C 75.09375 80.714844 75.269531 80.425781 75.429688 80.125 C 75.585938 79.828125 75.726562 79.519531 75.851562 79.203125 C 75.972656 78.886719 76.078125 78.566406 76.164062 78.238281 C 76.25 77.910156 76.316406 77.578125 76.367188 77.246094 C 76.414062 76.910156 76.445312 76.570312 76.453125 76.234375 C 76.464844 75.894531 76.457031 75.554688 76.429688 75.21875 C 76.398438 74.882812 76.351562 74.546875 76.285156 74.214844 C 76.21875 73.882812 76.132812 73.554688 76.03125 73.230469 C 75.925781 72.910156 75.804688 72.59375 75.664062 72.285156 C 75.527344 71.976562 75.367188 71.675781 75.195312 71.386719 C 75.019531 71.09375 74.832031 70.816406 74.625 70.546875 C 74.417969 70.277344 74.199219 70.019531 73.964844 69.777344 C 73.730469 69.53125 73.480469 69.304688 73.21875 69.085938 C 72.957031 68.871094 72.6875 68.671875 72.402344 68.488281 C 72.117188 68.300781 71.824219 68.132812 71.519531 67.984375 C 71.21875 67.832031 70.90625 67.699219 70.589844 67.582031 C 70.796875 66.902344 70.917969 66.207031 70.957031 65.496094 C 70.996094 64.785156 70.953125 64.082031 70.824219 63.382812 C 70.691406 62.683594 70.480469 62.007812 70.191406 61.359375 C 69.898438 60.710938 69.535156 60.105469 69.097656 59.542969 L 69.402344 55.152344 C 69.460938 54.332031 69.59375 53.523438 69.804688 52.726562 C 70.011719 51.929688 70.296875 51.160156 70.648438 50.414062 C 71.003906 49.671875 71.425781 48.96875 71.914062 48.304688 C 72.398438 47.640625 72.945312 47.027344 73.546875 46.464844 C 74.148438 45.902344 74.796875 45.402344 75.496094 44.960938 C 76.191406 44.523438 76.925781 44.152344 77.691406 43.851562 C 78.457031 43.546875 79.246094 43.320312 80.054688 43.167969 C 80.863281 43.011719 81.679688 42.9375 82.503906 42.9375 C 83.328125 42.9375 84.144531 43.015625 84.953125 43.167969 C 85.761719 43.320312 86.550781 43.550781 87.316406 43.851562 C 88.082031 44.15625 88.816406 44.527344 89.511719 44.964844 C 90.207031 45.40625 90.855469 45.90625 91.460938 46.46875 C 92.0625 47.03125 92.605469 47.644531 93.09375 48.308594 C 93.578125 48.972656 94 49.679688 94.355469 50.421875 C 94.707031 51.164062 94.988281 51.9375 95.199219 52.734375 C 95.410156 53.53125 95.542969 54.339844 95.597656 55.160156 L 96.5 68.21875 C 96.667969 70.648438 96.234375 72.96875 95.199219 75.171875 C 95.121094 75.332031 95.078125 75.5 95.070312 75.679688 C 95.0625 75.855469 95.089844 76.027344 95.148438 76.191406 C 95.207031 76.359375 95.296875 76.507812 95.414062 76.640625 C 95.535156 76.769531 95.675781 76.875 95.835938 76.949219 C 95.996094 77.027344 96.164062 77.066406 96.339844 77.078125 C 96.515625 77.085938 96.6875 77.058594 96.855469 77 C 97.019531 76.941406 97.171875 76.851562 97.300781 76.730469 C 97.433594 76.613281 97.535156 76.472656 97.613281 76.3125 C 97.996094 75.5 98.3125 74.660156 98.558594 73.792969 C 99.101562 73.886719 99.628906 74.023438 100.148438 74.210938 C 100.664062 74.394531 101.160156 74.625 101.636719 74.898438 C 102.117188 75.171875 102.566406 75.484375 102.988281 75.835938 C 103.410156 76.1875 103.796875 76.574219 104.152344 76.996094 C 104.503906 77.414062 104.820312 77.863281 105.097656 78.335938 C 105.371094 78.8125 105.601562 79.308594 105.792969 79.824219 C 105.980469 80.339844 106.121094 80.871094 106.21875 81.410156 C 106.3125 81.953125 106.359375 82.496094 106.359375 83.046875 C 106.359375 83.222656 106.394531 83.394531 106.460938 83.558594 C 106.53125 83.722656 106.625 83.867188 106.753906 83.992188 C 106.878906 84.117188 107.023438 84.214844 107.183594 84.28125 C 107.347656 84.347656 107.519531 84.382812 107.695312 84.382812 C 108.414062 84.382812 109.105469 84.507812 109.777344 84.757812 C 110.449219 85.011719 111.054688 85.371094 111.597656 85.84375 C 112.136719 86.3125 112.578125 86.863281 112.921875 87.496094 C 113.261719 88.125 113.484375 88.796875 113.582031 89.503906 C 113.679688 90.214844 113.652344 90.921875 113.496094 91.621094 C 113.339844 92.320312 113.066406 92.96875 112.675781 93.570312 C 112.28125 94.171875 111.796875 94.683594 111.222656 95.109375 C 110.644531 95.535156 110.011719 95.847656 109.320312 96.042969 C 109.148438 96.089844 108.996094 96.167969 108.855469 96.28125 C 108.71875 96.390625 108.605469 96.519531 108.519531 96.675781 C 108.433594 96.832031 108.378906 96.996094 108.359375 97.171875 C 108.335938 97.347656 108.351562 97.519531 108.398438 97.691406 C 108.449219 97.863281 108.527344 98.015625 108.636719 98.15625 C 108.746094 98.292969 108.878906 98.40625 109.035156 98.492188 C 109.1875 98.578125 109.351562 98.632812 109.53125 98.652344 C 109.707031 98.671875 109.878906 98.660156 110.050781 98.609375 C 110.519531 98.476562 110.972656 98.304688 111.414062 98.09375 C 111.855469 97.882812 112.273438 97.636719 112.675781 97.355469 C 113.074219 97.070312 113.445312 96.757812 113.789062 96.410156 C 114.136719 96.066406 114.449219 95.691406 114.730469 95.292969 C 115.011719 94.894531 115.257812 94.476562 115.46875 94.035156 C 115.679688 93.59375 115.851562 93.136719 115.984375 92.667969 C 116.117188 92.195312 116.207031 91.71875 116.261719 91.234375 C 116.3125 90.746094 116.320312 90.261719 116.289062 89.773438 C 116.257812 89.285156 116.1875 88.804688 116.074219 88.328125 C 115.960938 87.851562 115.808594 87.390625 115.617188 86.941406 C 115.421875 86.492188 115.195312 86.0625 114.929688 85.652344 C 114.664062 85.242188 114.367188 84.855469 114.035156 84.496094 C 113.707031 84.136719 113.347656 83.808594 112.960938 83.507812 C 112.574219 83.210938 112.164062 82.945312 111.734375 82.714844 C 111.300781 82.488281 110.851562 82.296875 110.390625 82.144531 C 109.925781 81.992188 109.449219 81.878906 108.96875 81.804688 Z M 85.203125 85.675781 C 85.523438 87.109375 86.089844 88.441406 86.898438 89.667969 C 87.703125 90.898438 88.703125 91.941406 89.890625 92.808594 C 89.65625 93.398438 89.488281 94.003906 89.390625 94.632812 C 89.289062 95.257812 89.261719 95.886719 89.300781 96.519531 C 89.339844 97.15625 89.449219 97.777344 89.625 98.382812 C 89.804688 98.992188 90.046875 99.574219 90.351562 100.132812 C 90.660156 100.6875 91.023438 101.203125 91.445312 101.675781 C 91.863281 102.152344 92.332031 102.574219 92.847656 102.945312 C 93.363281 103.316406 93.910156 103.625 94.496094 103.875 C 95.078125 104.125 95.683594 104.308594 96.304688 104.421875 L 96.304688 112.316406 L 83.886719 112.316406 L 83.886719 85.835938 C 84.328125 85.800781 84.765625 85.746094 85.203125 85.675781 Z M 81.214844 112.316406 L 57.261719 112.316406 L 57.261719 95.503906 C 58.304688 95.253906 59.273438 94.832031 60.164062 94.234375 C 60.933594 94.542969 61.730469 94.742188 62.554688 94.828125 C 63.382812 94.917969 64.203125 94.890625 65.019531 94.75 C 65.835938 94.605469 66.621094 94.355469 67.367188 93.996094 C 68.113281 93.636719 68.796875 93.179688 69.417969 92.628906 C 70.039062 92.078125 70.570312 91.449219 71.015625 90.75 C 71.460938 90.050781 71.800781 89.300781 72.039062 88.507812 C 72.273438 87.710938 72.398438 86.898438 72.40625 86.070312 C 72.414062 85.238281 72.3125 84.425781 72.09375 83.625 C 72.425781 83.425781 72.746094 83.207031 73.054688 82.96875 C 75.511719 84.667969 78.234375 85.625 81.214844 85.84375 Z M 81.214844 112.316406 "/></g></g></svg>