<svg xmlns="http://www.w3.org/2000/svg" xmlns:xlink="http://www.w3.org/1999/xlink" width="684" zoomAndPan="magnify" viewBox="0 0 513 153.750002" height="205" preserveAspectRatio="xMidYMid meet" version="1.2"><defs><clipPath id="6df1a1eeed"><path d="M 0.417969 1.144531 L 152.546875 1.144531 L 152.546875 153.277344 L 0.417969 153.277344 Z M 0.417969 1.144531 "/></clipPath><clipPath id="e2a63490a4"><path d="M 76.480469 1.144531 C 34.472656 1.144531 0.417969 35.199219 0.417969 77.210938 C 0.417969 119.21875 34.472656 153.277344 76.480469 153.277344 C 118.492188 153.277344 152.546875 119.21875 152.546875 77.210938 C 152.546875 35.199219 118.492188 1.144531 76.480469 1.144531 Z M 76.480469 1.144531 "/></clipPath><clipPath id="56b2f4b9de"><path d="M 34.839844 38.703125 L 118 38.703125 L 118 112.40625 L 34.839844 112.40625 Z M 34.839844 38.703125 "/></clipPath><clipPath id="ec6af732cf"><path d="M 0.417969 1.144531 L 152.355469 1.144531 L 152.355469 153.085938 L 0.417969 153.085938 Z M 0.417969 1.144531 "/></clipPath></defs><g id="34ab6e1c91"><g clip-rule="nonzero" clip-path="url(#6df1a1eeed)"><g clip-rule="nonzero" clip-path="url(#e2a63490a4)"><path style=" stroke:none;fill-rule:nonzero;fill:#199d5e;fill-opacity:1;" d="M 0.417969 1.144531 L 152.546875 1.144531 L 152.546875 153.277344 L 0.417969 153.277344 Z M 0.417969 1.144531 "/></g></g><g clip-rule="nonzero" clip-path="url(#56b2f4b9de)"><path style=" stroke:none;fill-rule:nonzero;fill:#ffffff;fill-opacity:1;" d="M 110.660156 79.554688 C 110.59375 78.917969 110.476562 78.292969 110.308594 77.675781 C 110.144531 77.058594 109.925781 76.457031 109.664062 75.875 C 109.398438 75.292969 109.089844 74.738281 108.734375 74.203125 C 108.382812 73.671875 107.988281 73.171875 107.550781 72.703125 C 107.117188 72.238281 106.648438 71.804688 106.140625 71.414062 C 105.636719 71.023438 105.105469 70.671875 104.542969 70.367188 C 103.980469 70.0625 103.398438 69.804688 102.796875 69.589844 C 102.195312 69.378906 101.578125 69.21875 100.949219 69.105469 C 101.070312 68.082031 101.097656 67.050781 101.027344 66.019531 L 100.140625 53.191406 C 100.070312 52.21875 99.914062 51.261719 99.667969 50.320312 C 99.417969 49.375 99.085938 48.464844 98.667969 47.585938 C 98.25 46.707031 97.753906 45.875 97.175781 45.089844 C 96.601562 44.300781 95.957031 43.578125 95.246094 42.910156 C 94.53125 42.246094 93.765625 41.65625 92.941406 41.132812 C 92.117188 40.613281 91.253906 40.175781 90.347656 39.816406 C 89.441406 39.460938 88.507812 39.191406 87.550781 39.007812 C 86.59375 38.828125 85.628906 38.734375 84.65625 38.734375 C 83.679688 38.734375 82.714844 38.824219 81.757812 39.007812 C 80.800781 39.1875 79.871094 39.457031 78.964844 39.816406 C 78.058594 40.171875 77.191406 40.609375 76.367188 41.128906 C 75.542969 41.648438 74.777344 42.242188 74.0625 42.90625 C 73.351562 43.570312 72.707031 44.296875 72.132812 45.082031 C 71.554688 45.867188 71.058594 46.699219 70.636719 47.578125 C 70.21875 48.457031 69.886719 49.367188 69.636719 50.308594 C 69.390625 51.253906 69.230469 52.210938 69.164062 53.179688 L 69.003906 55.5 C 67.898438 54.84375 66.707031 54.457031 65.429688 54.332031 C 65.132812 53.445312 64.703125 52.625 64.144531 51.878906 C 63.582031 51.128906 62.921875 50.484375 62.15625 49.949219 C 61.390625 49.410156 60.558594 49.007812 59.664062 48.738281 C 58.769531 48.464844 57.855469 48.34375 56.917969 48.363281 C 55.984375 48.386719 55.078125 48.554688 54.195312 48.867188 C 53.3125 49.179688 52.503906 49.625 51.765625 50.199219 C 51.027344 50.769531 50.394531 51.445312 49.871094 52.21875 C 49.347656 52.996094 48.960938 53.832031 48.707031 54.730469 C 48.535156 54.925781 48.429688 55.148438 48.390625 55.402344 C 48.351562 55.660156 48.386719 55.902344 48.492188 56.140625 C 48.597656 56.375 48.757812 56.5625 48.976562 56.703125 C 49.191406 56.84375 49.429688 56.910156 49.6875 56.910156 C 49.703125 56.910156 49.722656 56.914062 49.738281 56.914062 L 49.816406 56.914062 C 50.132812 56.921875 50.414062 56.824219 50.660156 56.628906 C 50.90625 56.429688 51.0625 56.179688 51.125 55.867188 C 51.269531 55.179688 51.523438 54.53125 51.890625 53.929688 C 52.257812 53.328125 52.714844 52.804688 53.261719 52.359375 C 53.804688 51.914062 54.410156 51.574219 55.074219 51.339844 C 55.738281 51.101562 56.425781 50.984375 57.128906 50.984375 C 57.832031 50.984375 58.519531 51.101562 59.183594 51.339844 C 59.847656 51.574219 60.453125 51.914062 61 52.359375 C 61.542969 52.804688 62 53.328125 62.367188 53.929688 C 62.734375 54.53125 62.988281 55.179688 63.132812 55.867188 C 63.195312 56.179688 63.351562 56.433594 63.597656 56.628906 C 63.84375 56.828125 64.125 56.921875 64.441406 56.914062 L 64.519531 56.914062 C 64.535156 56.914062 64.554688 56.910156 64.570312 56.910156 C 64.972656 56.914062 65.371094 56.953125 65.765625 57.03125 C 66.160156 57.109375 66.542969 57.226562 66.914062 57.378906 C 67.285156 57.535156 67.640625 57.722656 67.972656 57.945312 C 68.308594 58.171875 68.617188 58.425781 68.902344 58.710938 C 69.1875 58.992188 69.441406 59.304688 69.664062 59.636719 C 69.886719 59.972656 70.078125 60.324219 70.230469 60.695312 C 70.386719 61.070312 70.5 61.453125 70.582031 61.847656 C 70.660156 62.242188 70.699219 62.640625 70.699219 63.042969 C 70.703125 64.039062 70.472656 64.980469 70.011719 65.863281 C 69.914062 66.050781 69.863281 66.246094 69.863281 66.457031 C 69.859375 66.667969 69.90625 66.867188 70 67.054688 C 70.097656 67.242188 70.226562 67.398438 70.398438 67.523438 C 70.566406 67.648438 70.753906 67.726562 70.960938 67.761719 C 71.621094 67.871094 72.242188 68.082031 72.832031 68.394531 C 73.417969 68.703125 73.945312 69.101562 74.402344 69.585938 C 74.863281 70.066406 75.230469 70.609375 75.515625 71.214844 C 75.796875 71.816406 75.976562 72.449219 76.050781 73.113281 C 76.128906 73.773438 76.097656 74.429688 75.957031 75.082031 C 75.820312 75.734375 75.582031 76.347656 75.242188 76.917969 C 74.90625 77.492188 74.484375 78 73.980469 78.4375 C 73.480469 78.875 72.917969 79.21875 72.304688 79.472656 C 72.140625 79.539062 72 79.636719 71.875 79.761719 C 71.75 79.886719 71.65625 80.03125 71.589844 80.195312 C 71.523438 80.355469 71.492188 80.527344 71.496094 80.703125 C 71.496094 80.878906 71.53125 81.046875 71.601562 81.207031 C 71.855469 81.789062 72.015625 82.394531 72.078125 83.023438 C 72.144531 83.65625 72.109375 84.28125 71.980469 84.898438 C 71.851562 85.519531 71.632812 86.105469 71.320312 86.65625 C 71.011719 87.210938 70.625 87.703125 70.160156 88.132812 C 69.695312 88.566406 69.179688 88.917969 68.605469 89.1875 C 68.035156 89.460938 67.433594 89.636719 66.804688 89.722656 C 66.179688 89.808594 65.554688 89.796875 64.929688 89.6875 C 64.304688 89.578125 63.710938 89.378906 63.152344 89.085938 C 62.917969 88.964844 62.667969 88.917969 62.40625 88.945312 C 62.144531 88.972656 61.914062 89.070312 61.710938 89.238281 C 61.152344 89.695312 60.53125 90.042969 59.851562 90.285156 L 59.851562 81.949219 L 65.421875 76.316406 C 65.542969 76.191406 65.636719 76.050781 65.703125 75.890625 C 65.769531 75.730469 65.804688 75.5625 65.800781 75.386719 C 65.800781 75.210938 65.765625 75.046875 65.699219 74.882812 C 65.632812 74.722656 65.535156 74.582031 65.414062 74.460938 C 65.289062 74.335938 65.144531 74.242188 64.984375 74.175781 C 64.824219 74.113281 64.65625 74.078125 64.480469 74.082031 C 64.308594 74.082031 64.140625 74.117188 63.980469 74.183594 C 63.820312 74.253906 63.675781 74.347656 63.554688 74.472656 L 59.851562 78.21875 L 59.851562 70.808594 C 59.851562 70.636719 59.816406 70.46875 59.75 70.308594 C 59.683594 70.144531 59.589844 70.003906 59.464844 69.882812 C 59.34375 69.757812 59.199219 69.664062 59.039062 69.597656 C 58.878906 69.53125 58.710938 69.496094 58.539062 69.496094 C 58.363281 69.496094 58.195312 69.53125 58.035156 69.597656 C 57.875 69.664062 57.734375 69.757812 57.609375 69.882812 C 57.488281 70.003906 57.394531 70.144531 57.328125 70.308594 C 57.257812 70.46875 57.226562 70.636719 57.226562 70.808594 L 57.226562 84.605469 L 53.414062 81.269531 C 53.285156 81.15625 53.136719 81.070312 52.972656 81.015625 C 52.808594 80.960938 52.636719 80.9375 52.464844 80.949219 C 52.292969 80.960938 52.125 81.003906 51.96875 81.082031 C 51.816406 81.160156 51.679688 81.261719 51.566406 81.394531 C 51.449219 81.523438 51.367188 81.671875 51.308594 81.839844 C 51.253906 82.003906 51.230469 82.171875 51.242188 82.34375 C 51.253906 82.519531 51.300781 82.683594 51.375 82.839844 C 51.453125 82.996094 51.558594 83.132812 51.6875 83.246094 L 57.226562 88.089844 L 57.226562 90.605469 C 56.125 90.5 55.128906 90.125 54.234375 89.476562 C 54.023438 89.324219 53.785156 89.242188 53.527344 89.230469 C 53.265625 89.21875 53.023438 89.277344 52.800781 89.410156 C 52.253906 89.730469 51.675781 89.960938 51.058594 90.101562 C 50.445312 90.242188 49.820312 90.289062 49.191406 90.234375 C 48.5625 90.183594 47.957031 90.039062 47.371094 89.800781 C 46.785156 89.5625 46.25 89.238281 45.765625 88.835938 C 45.28125 88.433594 44.867188 87.964844 44.527344 87.433594 C 44.1875 86.902344 43.933594 86.328125 43.769531 85.71875 C 43.605469 85.109375 43.539062 84.488281 43.566406 83.859375 C 43.59375 83.226562 43.714844 82.617188 43.929688 82.023438 C 44 81.835938 44.023438 81.644531 44.003906 81.445312 C 43.984375 81.246094 43.921875 81.0625 43.820312 80.890625 C 43.714844 80.722656 43.582031 80.582031 43.414062 80.472656 C 43.246094 80.363281 43.0625 80.296875 42.867188 80.269531 C 42.492188 80.222656 42.121094 80.140625 41.761719 80.023438 C 41.402344 79.90625 41.054688 79.757812 40.722656 79.574219 C 40.390625 79.394531 40.078125 79.183594 39.785156 78.945312 C 39.492188 78.707031 39.222656 78.441406 38.976562 78.152344 C 38.734375 77.863281 38.519531 77.554688 38.332031 77.226562 C 38.144531 76.894531 37.988281 76.554688 37.863281 76.195312 C 37.742188 75.835938 37.652344 75.472656 37.59375 75.097656 C 37.539062 74.722656 37.519531 74.34375 37.53125 73.96875 C 37.546875 73.589844 37.59375 73.214844 37.679688 72.847656 C 37.761719 72.476562 37.878906 72.117188 38.027344 71.769531 C 38.179688 71.421875 38.359375 71.089844 38.570312 70.777344 C 38.78125 70.464844 39.019531 70.171875 39.285156 69.902344 C 39.550781 69.628906 39.835938 69.386719 40.148438 69.171875 C 40.457031 68.953125 40.785156 68.765625 41.132812 68.609375 C 41.476562 68.453125 41.832031 68.332031 42.199219 68.242188 C 42.566406 68.152344 42.941406 68.097656 43.320312 68.074219 C 43.429688 68.070312 43.539062 68.050781 43.648438 68.015625 C 43.753906 67.980469 43.855469 67.933594 43.949219 67.875 C 44.042969 67.8125 44.128906 67.742188 44.207031 67.660156 C 44.28125 67.578125 44.347656 67.488281 44.402344 67.390625 C 44.453125 67.292969 44.496094 67.1875 44.523438 67.078125 C 44.546875 66.96875 44.5625 66.859375 44.558594 66.746094 C 44.558594 66.632812 44.542969 66.523438 44.511719 66.417969 C 44.480469 66.308594 44.4375 66.207031 44.382812 66.109375 C 44.023438 65.488281 43.78125 64.820312 43.652344 64.113281 C 43.527344 63.40625 43.527344 62.699219 43.648438 61.992188 C 43.773438 61.285156 44.011719 60.621094 44.367188 59.996094 C 44.726562 59.375 45.175781 58.828125 45.726562 58.363281 C 45.859375 58.253906 45.964844 58.117188 46.042969 57.964844 C 46.121094 57.808594 46.167969 57.644531 46.183594 57.472656 C 46.199219 57.300781 46.179688 57.128906 46.125 56.964844 C 46.070312 56.796875 45.988281 56.648438 45.875 56.515625 C 45.761719 56.382812 45.628906 56.277344 45.476562 56.199219 C 45.320312 56.121094 45.15625 56.074219 44.984375 56.058594 C 44.808594 56.042969 44.640625 56.0625 44.476562 56.117188 C 44.308594 56.167969 44.160156 56.253906 44.027344 56.363281 C 43.367188 56.925781 42.800781 57.570312 42.328125 58.300781 C 41.859375 59.03125 41.503906 59.816406 41.269531 60.648438 C 41.03125 61.484375 40.921875 62.335938 40.9375 63.207031 C 40.953125 64.074219 41.097656 64.921875 41.363281 65.746094 C 40.449219 65.996094 39.597656 66.382812 38.808594 66.90625 C 38.019531 67.433594 37.332031 68.070312 36.75 68.816406 C 36.167969 69.566406 35.71875 70.386719 35.402344 71.28125 C 35.089844 72.175781 34.921875 73.097656 34.90625 74.042969 C 34.890625 74.992188 35.023438 75.917969 35.308594 76.824219 C 35.59375 77.726562 36.015625 78.5625 36.570312 79.332031 C 37.125 80.097656 37.789062 80.757812 38.5625 81.308594 C 39.332031 81.863281 40.171875 82.277344 41.078125 82.558594 C 40.933594 83.347656 40.898438 84.144531 40.972656 84.941406 C 41.046875 85.742188 41.226562 86.519531 41.515625 87.269531 C 41.804688 88.019531 42.1875 88.714844 42.667969 89.359375 C 43.148438 90.003906 43.707031 90.570312 44.34375 91.0625 C 44.976562 91.550781 45.667969 91.945312 46.414062 92.246094 C 47.160156 92.546875 47.929688 92.742188 48.730469 92.828125 C 49.527344 92.917969 50.324219 92.894531 51.117188 92.765625 C 51.90625 92.632812 52.667969 92.398438 53.394531 92.058594 C 54.578125 92.753906 55.855469 93.148438 57.226562 93.238281 L 57.226562 109.535156 L 53.65625 109.535156 C 53.480469 109.535156 53.316406 109.570312 53.152344 109.636719 C 52.992188 109.703125 52.851562 109.796875 52.726562 109.917969 C 52.605469 110.042969 52.511719 110.183594 52.445312 110.34375 C 52.378906 110.503906 52.34375 110.671875 52.34375 110.847656 C 52.34375 111.019531 52.378906 111.1875 52.445312 111.347656 C 52.511719 111.507812 52.605469 111.652344 52.726562 111.773438 C 52.851562 111.898438 52.992188 111.992188 53.152344 112.058594 C 53.316406 112.125 53.480469 112.160156 53.65625 112.160156 L 106.179688 112.160156 C 106.355469 112.160156 106.523438 112.125 106.683594 112.058594 C 106.84375 111.992188 106.984375 111.898438 107.109375 111.773438 C 107.230469 111.652344 107.324219 111.507812 107.390625 111.347656 C 107.457031 111.1875 107.492188 111.019531 107.492188 110.847656 C 107.492188 110.671875 107.457031 110.503906 107.390625 110.34375 C 107.324219 110.183594 107.230469 110.042969 107.109375 109.917969 C 106.984375 109.796875 106.84375 109.703125 106.683594 109.636719 C 106.523438 109.570312 106.355469 109.535156 106.179688 109.535156 L 100.839844 109.535156 L 100.839844 101.851562 C 101.746094 101.738281 102.613281 101.484375 103.4375 101.085938 C 104.261719 100.691406 105 100.171875 105.65625 99.535156 C 106.308594 98.894531 106.847656 98.167969 107.261719 97.355469 C 107.679688 96.542969 107.957031 95.683594 108.089844 94.777344 C 108.117188 94.605469 108.109375 94.433594 108.070312 94.265625 C 108.027344 94.097656 107.957031 93.941406 107.855469 93.800781 C 107.75 93.660156 107.625 93.546875 107.476562 93.457031 C 107.328125 93.367188 107.167969 93.308594 106.996094 93.28125 C 106.824219 93.253906 106.652344 93.261719 106.484375 93.300781 C 106.316406 93.34375 106.160156 93.417969 106.019531 93.519531 C 105.878906 93.621094 105.765625 93.746094 105.671875 93.898438 C 105.582031 94.046875 105.523438 94.207031 105.5 94.378906 C 105.402344 94.96875 105.222656 95.53125 104.953125 96.066406 C 104.683594 96.605469 104.34375 97.085938 103.925781 97.515625 C 103.507812 97.949219 103.039062 98.304688 102.511719 98.589844 C 101.984375 98.875 101.429688 99.078125 100.839844 99.191406 L 100.839844 94.550781 L 105.664062 90.210938 C 105.792969 90.097656 105.894531 89.960938 105.96875 89.804688 C 106.042969 89.644531 106.085938 89.480469 106.097656 89.304688 C 106.105469 89.132812 106.082031 88.964844 106.023438 88.800781 C 105.964844 88.636719 105.878906 88.488281 105.761719 88.359375 C 105.644531 88.230469 105.507812 88.128906 105.351562 88.050781 C 105.195312 87.976562 105.027344 87.933594 104.855469 87.925781 C 104.679688 87.917969 104.511719 87.941406 104.347656 88 C 104.183594 88.058594 104.039062 88.144531 103.90625 88.261719 L 100.839844 91.019531 L 100.839844 84.671875 C 100.839844 84.496094 100.808594 84.328125 100.742188 84.167969 C 100.671875 84.007812 100.578125 83.867188 100.457031 83.742188 C 100.332031 83.621094 100.191406 83.523438 100.03125 83.457031 C 99.871094 83.390625 99.703125 83.359375 99.527344 83.359375 C 99.355469 83.359375 99.1875 83.390625 99.027344 83.457031 C 98.867188 83.523438 98.722656 83.621094 98.601562 83.742188 C 98.476562 83.867188 98.382812 84.007812 98.316406 84.167969 C 98.25 84.328125 98.214844 84.496094 98.214844 84.671875 L 98.214844 99.089844 C 97.785156 98.972656 97.375 98.808594 96.984375 98.59375 C 96.59375 98.382812 96.230469 98.128906 95.898438 97.832031 C 95.5625 97.539062 95.269531 97.207031 95.011719 96.84375 C 94.753906 96.480469 94.539062 96.09375 94.371094 95.683594 C 94.203125 95.269531 94.082031 94.84375 94.011719 94.402344 C 93.941406 93.964844 93.921875 93.523438 93.953125 93.078125 C 93.984375 92.632812 94.066406 92.199219 94.195312 91.773438 C 94.328125 91.347656 94.503906 90.941406 94.730469 90.558594 C 94.816406 90.40625 94.875 90.246094 94.898438 90.070312 C 94.921875 89.898438 94.910156 89.730469 94.867188 89.558594 C 94.820312 89.390625 94.746094 89.238281 94.640625 89.097656 C 94.535156 88.960938 94.40625 88.847656 94.253906 88.761719 C 93.128906 88.109375 92.183594 87.257812 91.417969 86.207031 C 90.652344 85.15625 90.128906 84 89.851562 82.726562 C 92.1875 81.949219 94.246094 80.703125 96.019531 78.992188 C 96.144531 78.875 96.242188 78.734375 96.3125 78.574219 C 96.382812 78.414062 96.417969 78.246094 96.421875 78.074219 C 96.425781 77.898438 96.394531 77.730469 96.332031 77.570312 C 96.269531 77.40625 96.175781 77.265625 96.058594 77.136719 C 95.9375 77.011719 95.796875 76.914062 95.636719 76.84375 C 95.476562 76.777344 95.308594 76.738281 95.136719 76.734375 C 94.960938 76.730469 94.792969 76.761719 94.632812 76.824219 C 94.46875 76.890625 94.328125 76.980469 94.203125 77.101562 C 93.089844 78.175781 91.832031 79.035156 90.425781 79.683594 C 89.023438 80.332031 87.550781 80.730469 86.011719 80.878906 L 86.011719 75.351562 L 92.355469 69.550781 C 92.484375 69.433594 92.585938 69.296875 92.660156 69.140625 C 92.734375 68.980469 92.773438 68.816406 92.78125 68.640625 C 92.789062 68.46875 92.765625 68.300781 92.703125 68.136719 C 92.644531 67.972656 92.558594 67.828125 92.441406 67.699219 C 92.320312 67.570312 92.183594 67.46875 92.027344 67.394531 C 91.867188 67.320312 91.703125 67.28125 91.53125 67.273438 C 91.355469 67.265625 91.1875 67.289062 91.023438 67.351562 C 90.859375 67.410156 90.714844 67.5 90.585938 67.617188 L 86.011719 71.796875 L 86.011719 57.632812 C 86.011719 57.457031 85.980469 57.289062 85.914062 57.128906 C 85.847656 56.96875 85.75 56.828125 85.628906 56.703125 C 85.503906 56.582031 85.363281 56.488281 85.203125 56.421875 C 85.042969 56.355469 84.875 56.320312 84.699219 56.320312 C 84.527344 56.320312 84.359375 56.355469 84.199219 56.421875 C 84.039062 56.488281 83.894531 56.582031 83.773438 56.703125 C 83.648438 56.828125 83.554688 56.96875 83.488281 57.128906 C 83.421875 57.289062 83.390625 57.457031 83.390625 57.632812 L 83.390625 65.003906 L 80.433594 61.542969 C 80.320312 61.410156 80.1875 61.304688 80.03125 61.226562 C 79.875 61.148438 79.710938 61.101562 79.539062 61.089844 C 79.363281 61.074219 79.195312 61.09375 79.03125 61.148438 C 78.863281 61.203125 78.714844 61.285156 78.582031 61.398438 C 78.453125 61.511719 78.347656 61.644531 78.265625 61.800781 C 78.1875 61.957031 78.140625 62.121094 78.128906 62.292969 C 78.113281 62.46875 78.132812 62.636719 78.1875 62.800781 C 78.242188 62.96875 78.324219 63.117188 78.4375 63.25 L 83.390625 69.039062 L 83.390625 80.890625 C 81.144531 80.691406 79.078125 79.980469 77.1875 78.757812 C 77.375 78.480469 77.546875 78.195312 77.703125 77.902344 C 77.855469 77.609375 77.996094 77.304688 78.117188 76.996094 C 78.238281 76.6875 78.339844 76.371094 78.425781 76.046875 C 78.507812 75.726562 78.574219 75.398438 78.625 75.070312 C 78.671875 74.742188 78.699219 74.410156 78.710938 74.078125 C 78.722656 73.746094 78.710938 73.414062 78.683594 73.082031 C 78.65625 72.75 78.609375 72.417969 78.542969 72.09375 C 78.480469 71.765625 78.394531 71.445312 78.292969 71.128906 C 78.191406 70.8125 78.070312 70.5 77.933594 70.199219 C 77.796875 69.894531 77.644531 69.601562 77.472656 69.316406 C 77.300781 69.027344 77.113281 68.753906 76.914062 68.488281 C 76.710938 68.226562 76.492188 67.972656 76.261719 67.734375 C 76.03125 67.492188 75.789062 67.265625 75.53125 67.054688 C 75.273438 66.84375 75.007812 66.648438 74.726562 66.464844 C 74.449219 66.285156 74.160156 66.117188 73.863281 65.96875 C 73.566406 65.820312 73.257812 65.691406 72.945312 65.578125 C 73.148438 64.90625 73.269531 64.222656 73.308594 63.527344 C 73.347656 62.828125 73.304688 62.136719 73.175781 61.449219 C 73.046875 60.761719 72.839844 60.097656 72.554688 59.460938 C 72.269531 58.824219 71.910156 58.230469 71.480469 57.679688 L 71.78125 53.363281 C 71.835938 52.554688 71.96875 51.761719 72.175781 50.976562 C 72.378906 50.195312 72.65625 49.4375 73.007812 48.707031 C 73.355469 47.976562 73.769531 47.285156 74.246094 46.632812 C 74.726562 45.980469 75.261719 45.375 75.851562 44.824219 C 76.445312 44.273438 77.082031 43.78125 77.769531 43.347656 C 78.453125 42.917969 79.171875 42.550781 79.925781 42.257812 C 80.679688 41.960938 81.453125 41.734375 82.246094 41.585938 C 83.042969 41.433594 83.84375 41.359375 84.65625 41.359375 C 85.464844 41.359375 86.265625 41.433594 87.0625 41.585938 C 87.855469 41.738281 88.632812 41.960938 89.382812 42.257812 C 90.136719 42.554688 90.855469 42.921875 91.539062 43.351562 C 92.226562 43.785156 92.863281 44.277344 93.453125 44.828125 C 94.046875 45.382812 94.582031 45.984375 95.058594 46.636719 C 95.539062 47.292969 95.953125 47.984375 96.300781 48.714844 C 96.648438 49.445312 96.925781 50.203125 97.128906 50.984375 C 97.335938 51.769531 97.464844 52.5625 97.519531 53.371094 L 98.40625 66.203125 C 98.574219 68.589844 98.148438 70.867188 97.128906 73.035156 C 97.054688 73.191406 97.011719 73.359375 97.003906 73.53125 C 96.996094 73.707031 97.019531 73.875 97.078125 74.039062 C 97.136719 74.203125 97.226562 74.347656 97.34375 74.476562 C 97.460938 74.605469 97.597656 74.707031 97.753906 74.78125 C 97.910156 74.855469 98.078125 74.898438 98.25 74.90625 C 98.421875 74.914062 98.59375 74.890625 98.757812 74.832031 C 98.917969 74.773438 99.066406 74.683594 99.195312 74.566406 C 99.324219 74.449219 99.425781 74.3125 99.5 74.15625 C 99.878906 73.355469 100.1875 72.53125 100.429688 71.679688 C 100.964844 71.769531 101.484375 71.90625 101.992188 72.089844 C 102.5 72.273438 102.988281 72.496094 103.457031 72.765625 C 103.925781 73.035156 104.367188 73.339844 104.78125 73.6875 C 105.195312 74.03125 105.578125 74.414062 105.925781 74.824219 C 106.273438 75.238281 106.582031 75.679688 106.855469 76.144531 C 107.125 76.613281 107.351562 77.101562 107.539062 77.605469 C 107.722656 78.113281 107.863281 78.632812 107.957031 79.164062 C 108.050781 79.695312 108.097656 80.234375 108.097656 80.773438 C 108.097656 80.945312 108.128906 81.113281 108.199219 81.273438 C 108.265625 81.4375 108.359375 81.578125 108.480469 81.699219 C 108.605469 81.824219 108.746094 81.917969 108.90625 81.984375 C 109.066406 82.050781 109.234375 82.085938 109.410156 82.085938 C 110.113281 82.085938 110.796875 82.207031 111.457031 82.457031 C 112.117188 82.703125 112.710938 83.058594 113.242188 83.519531 C 113.773438 83.984375 114.207031 84.523438 114.542969 85.144531 C 114.878906 85.761719 115.09375 86.421875 115.191406 87.117188 C 115.289062 87.816406 115.261719 88.507812 115.109375 89.199219 C 114.953125 89.886719 114.6875 90.523438 114.300781 91.113281 C 113.917969 91.703125 113.441406 92.207031 112.875 92.625 C 112.304688 93.042969 111.683594 93.351562 111.007812 93.542969 C 110.839844 93.589844 110.6875 93.667969 110.550781 93.777344 C 110.414062 93.882812 110.300781 94.011719 110.21875 94.164062 C 110.132812 94.316406 110.078125 94.480469 110.058594 94.652344 C 110.039062 94.824219 110.054688 94.996094 110.101562 95.164062 C 110.148438 95.332031 110.226562 95.480469 110.332031 95.617188 C 110.441406 95.753906 110.570312 95.867188 110.722656 95.949219 C 110.875 96.035156 111.039062 96.089844 111.210938 96.109375 C 111.382812 96.128906 111.554688 96.113281 111.722656 96.066406 C 112.183594 95.933594 112.628906 95.765625 113.0625 95.558594 C 113.496094 95.351562 113.910156 95.109375 114.300781 94.832031 C 114.691406 94.554688 115.058594 94.246094 115.398438 93.90625 C 115.738281 93.566406 116.042969 93.199219 116.320312 92.808594 C 116.597656 92.414062 116.839844 92.003906 117.046875 91.570312 C 117.253906 91.136719 117.421875 90.6875 117.554688 90.226562 C 117.683594 89.761719 117.773438 89.292969 117.824219 88.816406 C 117.875 88.339844 117.886719 87.859375 117.855469 87.382812 C 117.824219 86.902344 117.753906 86.429688 117.640625 85.960938 C 117.53125 85.496094 117.378906 85.039062 117.191406 84.597656 C 117.003906 84.15625 116.777344 83.734375 116.515625 83.332031 C 116.257812 82.929688 115.964844 82.550781 115.640625 82.195312 C 115.3125 81.84375 114.960938 81.519531 114.582031 81.226562 C 114.203125 80.933594 113.800781 80.671875 113.375 80.449219 C 112.953125 80.222656 112.511719 80.035156 112.054688 79.886719 C 111.597656 79.734375 111.132812 79.625 110.660156 79.554688 Z M 87.304688 83.355469 C 87.625 84.765625 88.179688 86.074219 88.972656 87.277344 C 89.765625 88.484375 90.746094 89.515625 91.914062 90.363281 C 91.683594 90.941406 91.519531 91.539062 91.421875 92.15625 C 91.324219 92.773438 91.292969 93.390625 91.332031 94.011719 C 91.371094 94.636719 91.480469 95.246094 91.652344 95.84375 C 91.828125 96.441406 92.066406 97.015625 92.367188 97.558594 C 92.667969 98.105469 93.027344 98.613281 93.4375 99.078125 C 93.851562 99.546875 94.3125 99.960938 94.820312 100.324219 C 95.324219 100.691406 95.863281 100.996094 96.4375 101.238281 C 97.011719 101.484375 97.605469 101.664062 98.214844 101.777344 L 98.214844 109.535156 L 86.011719 109.535156 L 86.011719 83.511719 C 86.449219 83.476562 86.878906 83.425781 87.304688 83.355469 Z M 83.390625 109.535156 L 59.851562 109.535156 L 59.851562 93.015625 C 60.875 92.769531 61.828125 92.351562 62.703125 91.765625 C 63.457031 92.070312 64.242188 92.265625 65.054688 92.351562 C 65.863281 92.4375 66.671875 92.410156 67.472656 92.269531 C 68.277344 92.132812 69.046875 91.886719 69.78125 91.53125 C 70.515625 91.175781 71.1875 90.730469 71.796875 90.1875 C 72.40625 89.644531 72.929688 89.03125 73.367188 88.34375 C 73.804688 87.65625 74.136719 86.917969 74.371094 86.136719 C 74.601562 85.355469 74.722656 84.558594 74.734375 83.742188 C 74.742188 82.925781 74.640625 82.125 74.425781 81.339844 C 74.753906 81.144531 75.066406 80.929688 75.367188 80.695312 C 77.785156 82.367188 80.457031 83.308594 83.390625 83.519531 Z M 83.390625 109.535156 "/></g><g clip-rule="nonzero" clip-path="url(#ec6af732cf)"><path style=" stroke:none;fill-rule:nonzero;fill:#245d42;fill-opacity:1;" d="M 125.773438 22.722656 L 127.636719 21.035156 C 127.335938 20.757812 127.03125 20.492188 126.730469 20.222656 L 125.246094 22.25 C 125.148438 22.382812 125.15625 22.570312 125.269531 22.695312 C 125.402344 22.84375 125.628906 22.855469 125.773438 22.722656 Z M 99.082031 146.660156 C 98.890625 146.703125 98.765625 146.894531 98.808594 147.085938 L 99.34375 149.5625 C 99.730469 149.4375 100.121094 149.3125 100.503906 149.183594 L 99.484375 146.867188 C 99.414062 146.714844 99.25 146.625 99.082031 146.660156 Z M 106.226562 143.910156 C 106.039062 143.96875 105.9375 144.171875 106 144.359375 L 106.789062 146.761719 C 107.164062 146.597656 107.535156 146.433594 107.902344 146.265625 L 106.648438 144.070312 C 106.5625 143.925781 106.390625 143.855469 106.226562 143.910156 Z M 110.554688 138.296875 L 111.816406 144.339844 C 113.667969 143.363281 115.476562 142.3125 117.234375 141.191406 L 112.648438 137.085938 C 111.730469 136.269531 110.300781 137.09375 110.554688 138.296875 Z M 125.40625 131.421875 C 125.246094 131.535156 125.210938 131.757812 125.328125 131.917969 L 126.8125 133.945312 C 127.113281 133.675781 127.417969 133.40625 127.714844 133.132812 L 125.855469 131.445312 C 125.730469 131.332031 125.542969 131.320312 125.40625 131.421875 Z M 119.460938 136.246094 C 119.289062 136.34375 119.234375 136.5625 119.332031 136.734375 L 120.597656 138.910156 C 120.929688 138.675781 121.257812 138.433594 121.582031 138.191406 L 119.90625 136.316406 C 119.792969 136.191406 119.609375 136.160156 119.460938 136.246094 Z M 91.6875 148.652344 C 91.492188 148.671875 91.351562 148.851562 91.371094 149.046875 L 91.644531 151.558594 C 92.042969 151.480469 92.441406 151.390625 92.835938 151.300781 L 92.066406 148.898438 C 92.015625 148.742188 91.859375 148.632812 91.6875 148.652344 Z M 46.234375 144.113281 L 44.976562 146.3125 C 45.34375 146.480469 45.71875 146.644531 46.089844 146.804688 L 46.882812 144.402344 C 46.933594 144.246094 46.871094 144.070312 46.71875 143.984375 C 46.550781 143.886719 46.332031 143.945312 46.234375 144.113281 Z M 53.871094 146.71875 C 53.691406 146.640625 53.480469 146.71875 53.402344 146.902344 L 52.378906 149.21875 C 52.765625 149.347656 53.152344 149.472656 53.539062 149.59375 L 54.078125 147.117188 C 54.113281 146.957031 54.027344 146.789062 53.871094 146.71875 Z M 40.132812 137.085938 L 35.546875 141.191406 C 37.304688 142.3125 39.113281 143.363281 40.964844 144.339844 L 42.226562 138.296875 C 42.480469 137.09375 41.046875 136.269531 40.132812 137.085938 Z M 84.125 149.859375 C 83.929688 149.859375 83.769531 150.019531 83.773438 150.21875 L 83.78125 152.734375 C 84.183594 152.695312 84.589844 152.652344 84.992188 152.605469 L 84.476562 150.144531 C 84.441406 149.980469 84.296875 149.859375 84.125 149.859375 Z M 61.269531 148.691406 C 61.082031 148.628906 60.882812 148.734375 60.824219 148.921875 L 60.050781 151.324219 C 60.445312 151.414062 60.84375 151.5 61.242188 151.582031 L 61.515625 149.066406 C 61.535156 148.902344 61.433594 148.742188 61.269531 148.691406 Z M 75.179688 146.824219 L 73.144531 153.019531 C 74.222656 153.066406 75.300781 153.09375 76.390625 153.09375 C 77.476562 153.09375 78.558594 153.066406 79.636719 153.019531 L 77.601562 146.824219 C 77.214844 145.65625 75.5625 145.65625 75.179688 146.824219 Z M 68.835938 149.878906 C 68.640625 149.839844 68.453125 149.960938 68.414062 150.15625 L 67.898438 152.617188 C 68.300781 152.664062 68.703125 152.707031 69.109375 152.746094 L 69.117188 150.230469 C 69.117188 150.0625 69.003906 149.914062 68.835938 149.878906 Z M 15.210938 111.28125 L 9.171875 112.546875 C 10.148438 114.398438 11.199219 116.207031 12.320312 117.964844 L 16.421875 113.378906 C 17.242188 112.460938 16.414062 111.03125 15.210938 111.28125 Z M 6.847656 99.8125 C 6.808594 99.617188 6.617188 99.496094 6.425781 99.539062 L 3.949219 100.074219 C 4.070312 100.460938 4.195312 100.847656 4.328125 101.234375 L 6.644531 100.210938 C 6.796875 100.144531 6.886719 99.980469 6.847656 99.8125 Z M 9.601562 106.957031 C 9.539062 106.769531 9.339844 106.667969 9.152344 106.730469 L 6.75 107.519531 C 6.910156 107.890625 7.074219 108.265625 7.242188 108.632812 L 9.441406 107.375 C 9.582031 107.292969 9.65625 107.121094 9.601562 106.957031 Z M 4.859375 92.417969 C 4.835938 92.222656 4.660156 92.082031 4.464844 92.101562 L 1.949219 92.375 C 2.03125 92.773438 2.121094 93.171875 2.207031 93.566406 L 4.613281 92.792969 C 4.769531 92.742188 4.875 92.589844 4.859375 92.417969 Z M 3.648438 84.855469 C 3.648438 84.660156 3.488281 84.5 3.292969 84.5 L 0.773438 84.511719 C 0.816406 84.914062 0.859375 85.316406 0.902344 85.722656 L 3.367188 85.207031 C 3.527344 85.171875 3.652344 85.027344 3.648438 84.855469 Z M 21.96875 28.238281 C 22.113281 28.109375 22.125 27.882812 21.992188 27.738281 L 20.304688 25.875 C 20.03125 26.175781 19.761719 26.476562 19.492188 26.78125 L 21.519531 28.261719 C 21.652344 28.363281 21.839844 28.355469 21.96875 28.238281 Z M 32.964844 136.382812 L 31.285156 138.257812 C 31.613281 138.5 31.941406 138.738281 32.269531 138.976562 L 33.539062 136.796875 C 33.621094 136.652344 33.59375 136.46875 33.46875 136.351562 C 33.320312 136.222656 33.09375 136.234375 32.964844 136.382812 Z M 21.59375 126.058594 L 19.566406 127.539062 C 19.835938 127.84375 20.105469 128.144531 20.378906 128.445312 L 22.066406 126.582031 C 22.175781 126.460938 22.191406 126.273438 22.089844 126.132812 C 21.972656 125.976562 21.75 125.941406 21.59375 126.058594 Z M 16.777344 120.0625 L 14.601562 121.328125 C 14.835938 121.660156 15.074219 121.984375 15.316406 122.3125 L 17.195312 120.632812 C 17.316406 120.523438 17.351562 120.339844 17.261719 120.191406 C 17.164062 120.019531 16.945312 119.964844 16.777344 120.0625 Z M 3.628906 69.5625 C 3.671875 69.371094 3.546875 69.183594 3.355469 69.140625 L 0.890625 68.628906 C 0.847656 69.03125 0.804688 69.433594 0.765625 69.835938 L 3.28125 69.847656 C 3.445312 69.847656 3.59375 69.730469 3.628906 69.5625 Z M 6.6875 75.910156 L 0.488281 73.875 C 0.445312 74.949219 0.417969 76.03125 0.417969 77.121094 C 0.417969 78.207031 0.445312 79.289062 0.488281 80.363281 L 6.6875 78.328125 C 7.855469 77.945312 7.855469 76.292969 6.6875 75.910156 Z M 16.421875 40.863281 L 12.320312 36.277344 C 11.199219 38.03125 10.148438 39.839844 9.171875 41.695312 L 15.210938 42.957031 C 16.414062 43.207031 17.242188 41.777344 16.421875 40.863281 Z M 17.15625 34.195312 C 17.289062 34.050781 17.273438 33.824219 17.128906 33.695312 L 15.253906 32.015625 C 15.011719 32.34375 14.769531 32.667969 14.535156 33 L 16.710938 34.265625 C 16.855469 34.351562 17.042969 34.324219 17.15625 34.195312 Z M 4.820312 62 C 4.878906 61.8125 4.777344 61.613281 4.589844 61.550781 L 2.183594 60.78125 C 2.097656 61.175781 2.007812 61.574219 1.929688 61.972656 L 4.441406 62.246094 C 4.605469 62.261719 4.765625 62.164062 4.820312 62 Z M 6.792969 54.601562 C 6.871094 54.421875 6.789062 54.210938 6.609375 54.132812 L 4.292969 53.109375 C 4.164062 53.496094 4.039062 53.882812 3.914062 54.269531 L 6.390625 54.804688 C 6.554688 54.839844 6.722656 54.757812 6.792969 54.601562 Z M 9.527344 47.449219 C 9.625 47.277344 9.566406 47.0625 9.394531 46.964844 L 7.195312 45.703125 C 7.027344 46.074219 6.867188 46.449219 6.703125 46.820312 L 9.105469 47.609375 C 9.265625 47.664062 9.441406 47.597656 9.527344 47.449219 Z M 27.375 22.820312 C 27.535156 22.703125 27.570312 22.480469 27.453125 22.320312 L 25.96875 20.296875 C 25.664062 20.5625 25.363281 20.832031 25.066406 21.109375 L 26.925781 22.796875 C 27.050781 22.90625 27.238281 22.921875 27.375 22.820312 Z M 135.625 120.042969 C 135.492188 120.191406 135.503906 120.414062 135.652344 120.546875 L 137.527344 122.222656 C 137.769531 121.898438 138.011719 121.570312 138.246094 121.238281 L 136.070312 119.972656 C 135.925781 119.890625 135.738281 119.914062 135.625 120.042969 Z M 130.8125 126 C 130.667969 126.132812 130.65625 126.355469 130.789062 126.5 L 132.476562 128.363281 C 132.75 128.066406 133.019531 127.761719 133.289062 127.457031 L 131.261719 125.976562 C 131.128906 125.878906 130.941406 125.882812 130.8125 126 Z M 136.359375 113.378906 L 140.460938 117.964844 C 141.582031 116.207031 142.632812 114.398438 143.609375 112.546875 L 137.566406 111.28125 C 136.363281 111.03125 135.539062 112.460938 136.359375 113.378906 Z M 145.988281 99.636719 C 145.910156 99.816406 145.992188 100.027344 146.171875 100.105469 L 148.488281 101.128906 C 148.617188 100.742188 148.742188 100.359375 148.863281 99.96875 L 146.390625 99.433594 C 146.226562 99.398438 146.058594 99.480469 145.988281 99.636719 Z M 143.253906 106.789062 C 143.15625 106.960938 143.214844 107.175781 143.386719 107.277344 L 145.582031 108.535156 C 145.753906 108.164062 145.914062 107.792969 146.074219 107.417969 L 143.671875 106.628906 C 143.515625 106.578125 143.339844 106.640625 143.253906 106.789062 Z M 136.003906 34.179688 L 138.179688 32.910156 C 137.945312 32.582031 137.703125 32.253906 137.464844 31.925781 L 135.585938 33.605469 C 135.464844 33.714844 135.429688 33.902344 135.515625 34.050781 C 135.617188 34.21875 135.832031 34.277344 136.003906 34.179688 Z M 131.1875 28.183594 L 133.214844 26.699219 C 132.945312 26.394531 132.675781 26.09375 132.402344 25.792969 L 130.714844 27.65625 C 130.601562 27.777344 130.589844 27.964844 130.691406 28.105469 C 130.808594 28.261719 131.03125 28.296875 131.1875 28.183594 Z M 147.960938 92.238281 C 147.902344 92.425781 148.003906 92.628906 148.191406 92.6875 L 150.597656 93.460938 C 150.683594 93.0625 150.769531 92.667969 150.851562 92.265625 L 148.339844 91.996094 C 148.171875 91.976562 148.011719 92.074219 147.960938 92.238281 Z M 147.921875 61.824219 C 147.945312 62.019531 148.121094 62.160156 148.316406 62.136719 L 150.832031 61.863281 C 150.75 61.464844 150.660156 61.070312 150.574219 60.671875 L 148.167969 61.445312 C 148.011719 61.496094 147.90625 61.652344 147.921875 61.824219 Z M 152.289062 73.875 L 146.09375 75.910156 C 144.925781 76.292969 144.925781 77.945312 146.09375 78.328125 L 152.289062 80.363281 C 152.335938 79.289062 152.363281 78.207031 152.363281 77.121094 C 152.363281 76.03125 152.335938 74.949219 152.289062 73.875 Z M 145.933594 54.429688 C 145.972656 54.621094 146.164062 54.742188 146.355469 54.703125 L 148.832031 54.167969 C 148.707031 53.777344 148.582031 53.390625 148.453125 53.003906 L 146.136719 54.027344 C 145.984375 54.09375 145.894531 54.261719 145.933594 54.429688 Z M 149.128906 69.382812 C 149.132812 69.578125 149.292969 69.738281 149.488281 69.738281 L 152.003906 69.730469 C 151.964844 69.324219 151.921875 68.921875 151.875 68.519531 L 149.414062 69.035156 C 149.25 69.066406 149.128906 69.210938 149.128906 69.382812 Z M 143.179688 47.285156 C 143.242188 47.472656 143.441406 47.570312 143.628906 47.511719 L 146.03125 46.722656 C 145.871094 46.347656 145.707031 45.976562 145.539062 45.605469 L 143.339844 46.863281 C 143.195312 46.945312 143.125 47.121094 143.179688 47.285156 Z M 137.566406 42.957031 L 143.609375 41.695312 C 142.632812 39.839844 141.582031 38.03125 140.460938 36.277344 L 136.359375 40.863281 C 135.539062 41.777344 136.363281 43.207031 137.566406 42.957031 Z M 91.957031 5.320312 L 92.730469 2.914062 C 92.332031 2.824219 91.9375 2.738281 91.539062 2.65625 L 91.265625 5.171875 C 91.246094 5.335938 91.347656 5.496094 91.511719 5.550781 C 91.699219 5.609375 91.898438 5.503906 91.957031 5.320312 Z M 61.09375 5.585938 C 61.289062 5.566406 61.429688 5.390625 61.40625 5.195312 L 61.132812 2.679688 C 60.734375 2.761719 60.339844 2.847656 59.941406 2.9375 L 60.714844 5.34375 C 60.765625 5.5 60.921875 5.605469 61.09375 5.585938 Z M 53.699219 7.578125 C 53.890625 7.535156 54.015625 7.347656 53.972656 7.152344 L 53.4375 4.679688 C 53.046875 4.800781 52.660156 4.925781 52.277344 5.054688 L 53.296875 7.371094 C 53.363281 7.523438 53.53125 7.613281 53.699219 7.578125 Z M 68.652344 4.378906 C 68.851562 4.378906 69.007812 4.21875 69.007812 4.023438 L 69 1.503906 C 68.59375 1.542969 68.191406 1.585938 67.789062 1.632812 L 68.304688 4.097656 C 68.335938 4.257812 68.480469 4.378906 68.652344 4.378906 Z M 46.554688 10.332031 C 46.742188 10.269531 46.84375 10.066406 46.78125 9.878906 L 45.992188 7.476562 C 45.617188 7.640625 45.246094 7.804688 44.875 7.972656 L 46.132812 10.167969 C 46.214844 10.3125 46.390625 10.382812 46.554688 10.332031 Z M 149.148438 84.675781 C 149.109375 84.867188 149.234375 85.058594 149.425781 85.097656 L 151.890625 85.613281 C 151.933594 85.210938 151.976562 84.804688 152.015625 84.402344 L 149.5 84.390625 C 149.332031 84.390625 149.183594 84.507812 149.148438 84.675781 Z M 40.964844 9.898438 C 39.113281 10.878906 37.304688 11.925781 35.546875 13.050781 L 40.132812 17.152344 C 41.046875 17.972656 42.480469 17.144531 42.226562 15.941406 Z M 33.320312 17.992188 C 33.488281 17.894531 33.546875 17.675781 33.449219 17.507812 L 32.179688 15.328125 C 31.851562 15.566406 31.523438 15.804688 31.199219 16.046875 L 32.875 17.921875 C 32.984375 18.046875 33.171875 18.078125 33.320312 17.992188 Z M 119.816406 17.859375 L 121.492188 15.980469 C 121.167969 15.742188 120.839844 15.5 120.511719 15.265625 L 119.242188 17.441406 C 119.160156 17.585938 119.183594 17.769531 119.3125 17.886719 C 119.460938 18.015625 119.683594 18.003906 119.816406 17.859375 Z M 110.554688 15.941406 C 110.300781 17.144531 111.730469 17.972656 112.648438 17.152344 L 117.234375 13.050781 C 115.476562 11.925781 113.667969 10.878906 111.816406 9.898438 Z M 73.144531 1.21875 L 75.179688 7.414062 C 75.5625 8.582031 77.214844 8.582031 77.601562 7.414062 L 79.636719 1.21875 C 78.558594 1.175781 77.476562 1.144531 76.390625 1.144531 C 75.300781 1.144531 74.222656 1.175781 73.144531 1.21875 Z M 84.367188 4.085938 L 84.882812 1.621094 C 84.480469 1.574219 84.074219 1.535156 83.671875 1.496094 L 83.664062 4.011719 C 83.664062 4.175781 83.777344 4.324219 83.945312 4.359375 C 84.136719 4.402344 84.328125 4.277344 84.367188 4.085938 Z M 27.007812 131.515625 L 25.144531 133.207031 C 25.445312 133.480469 25.75 133.75 26.050781 134.015625 L 27.535156 131.992188 C 27.632812 131.859375 27.625 131.667969 27.511719 131.542969 C 27.378906 131.394531 27.152344 131.386719 27.007812 131.515625 Z M 99.378906 7.339844 L 100.398438 5.023438 C 100.015625 4.894531 99.628906 4.765625 99.238281 4.644531 L 98.703125 7.121094 C 98.667969 7.28125 98.75 7.453125 98.910156 7.519531 C 99.089844 7.601562 99.300781 7.519531 99.378906 7.339844 Z M 106.058594 10.257812 C 105.910156 10.171875 105.847656 9.992188 105.898438 9.835938 L 106.6875 7.433594 C 107.0625 7.597656 107.433594 7.757812 107.804688 7.925781 L 106.546875 10.125 C 106.449219 10.296875 106.230469 10.355469 106.058594 10.257812 "/></g><g style="fill:#000000;fill-opacity:1;"><g transform="translate(182.41168, 108.695669)"><path style="stroke:none" d="M 18.65625 0.65625 C 13.65625 0.65625 9.84375 -0.882812 7.21875 -3.96875 C 4.601562 -7.050781 3.148438 -11.285156 2.859375 -16.671875 L 10.203125 -18.65625 C 10.453125 -14.832031 11.195312 -11.742188 12.4375 -9.390625 C 13.6875 -7.046875 15.757812 -5.875 18.65625 -5.875 C 20.8125 -5.875 22.4375 -6.472656 23.53125 -7.671875 C 24.632812 -8.867188 25.1875 -10.59375 25.1875 -12.84375 C 25.1875 -15.289062 24.671875 -17.320312 23.640625 -18.9375 C 22.617188 -20.5625 20.976562 -22.351562 18.71875 -24.3125 L 8.734375 -33.125 C 6.734375 -34.882812 5.28125 -36.78125 4.375 -38.8125 C 3.46875 -40.84375 3.015625 -43.328125 3.015625 -46.265625 C 3.015625 -50.617188 4.257812 -53.992188 6.75 -56.390625 C 9.25 -58.796875 12.65625 -60 16.96875 -60 C 21.664062 -60 25.210938 -58.75 27.609375 -56.25 C 30.003906 -53.75 31.445312 -49.882812 31.9375 -44.65625 L 24.890625 -42.734375 C 24.648438 -46.210938 23.976562 -48.894531 22.875 -50.78125 C 21.769531 -52.664062 19.800781 -53.609375 16.96875 -53.609375 C 14.863281 -53.609375 13.242188 -53.054688 12.109375 -51.953125 C 10.984375 -50.847656 10.421875 -49.222656 10.421875 -47.078125 C 10.421875 -45.304688 10.710938 -43.820312 11.296875 -42.625 C 11.890625 -41.425781 12.894531 -40.21875 14.3125 -39 L 24.375 -30.1875 C 26.96875 -27.882812 29.035156 -25.382812 30.578125 -22.6875 C 32.128906 -20 32.90625 -16.941406 32.90625 -13.515625 C 32.90625 -9.148438 31.582031 -5.695312 28.9375 -3.15625 C 26.289062 -0.613281 22.863281 0.65625 18.65625 0.65625 Z M 18.65625 0.65625 "/></g></g><g style="fill:#000000;fill-opacity:1;"><g transform="translate(217.147266, 108.695669)"><path style="stroke:none" d="M 4.1875 -59.484375 L 12.046875 -59.484375 L 12.046875 -38.046875 C 15.566406 -41.367188 19.113281 -43.03125 22.6875 -43.03125 C 24.988281 -43.03125 26.613281 -42.195312 27.5625 -40.53125 C 28.519531 -38.875 29 -36.820312 29 -34.375 L 29 0 L 21.15625 0 L 21.15625 -32.09375 C 21.15625 -33.707031 20.910156 -34.90625 20.421875 -35.6875 C 19.929688 -36.46875 19.046875 -36.859375 17.765625 -36.859375 C 16.054688 -36.859375 14.148438 -35.929688 12.046875 -34.078125 L 12.046875 0 L 4.1875 0 Z M 4.1875 -59.484375 "/></g></g><g style="fill:#000000;fill-opacity:1;"><g transform="translate(249.826619, 108.695669)"><path style="stroke:none" d="M 11.609375 0.59375 C 9.984375 0.59375 8.519531 0.128906 7.21875 -0.796875 C 5.925781 -1.734375 4.910156 -2.957031 4.171875 -4.46875 C 3.441406 -5.988281 3.078125 -7.582031 3.078125 -9.25 C 3.078125 -12.582031 3.785156 -15.285156 5.203125 -17.359375 C 6.628906 -19.441406 8.441406 -21.09375 10.640625 -22.3125 C 12.847656 -23.539062 15.910156 -24.941406 19.828125 -26.515625 L 19.828125 -29.515625 C 19.828125 -32.304688 19.546875 -34.273438 18.984375 -35.421875 C 18.421875 -36.578125 17.28125 -37.15625 15.5625 -37.15625 C 12.582031 -37.15625 11.09375 -35.148438 11.09375 -31.140625 L 11.09375 -29 L 3.296875 -29.296875 C 3.398438 -33.992188 4.476562 -37.457031 6.53125 -39.6875 C 8.59375 -41.914062 11.773438 -43.03125 16.078125 -43.03125 C 20.140625 -43.03125 23.085938 -41.914062 24.921875 -39.6875 C 26.765625 -37.457031 27.6875 -34.09375 27.6875 -29.59375 L 27.6875 -10.203125 C 27.6875 -7.023438 27.929688 -3.625 28.421875 0 L 21.21875 0 C 20.6875 -2.789062 20.34375 -4.867188 20.1875 -6.234375 C 19.601562 -4.328125 18.585938 -2.710938 17.140625 -1.390625 C 15.703125 -0.0664062 13.859375 0.59375 11.609375 0.59375 Z M 14.6875 -6.171875 C 15.71875 -6.171875 16.722656 -6.570312 17.703125 -7.375 C 18.679688 -8.1875 19.390625 -8.957031 19.828125 -9.6875 L 19.828125 -21.734375 C 17.722656 -20.554688 16.09375 -19.539062 14.9375 -18.6875 C 13.789062 -17.832031 12.835938 -16.84375 12.078125 -15.71875 C 11.316406 -14.59375 10.9375 -13.242188 10.9375 -11.671875 C 10.9375 -9.910156 11.253906 -8.550781 11.890625 -7.59375 C 12.523438 -6.644531 13.457031 -6.171875 14.6875 -6.171875 Z M 14.6875 -6.171875 "/></g></g><g style="fill:#000000;fill-opacity:1;"><g transform="translate(281.110676, 108.695669)"><path style="stroke:none" d="M 13.8125 0.59375 C 10.132812 0.59375 7.4375 -0.738281 5.71875 -3.40625 C 4.007812 -6.082031 3.15625 -10.503906 3.15625 -16.671875 L 3.15625 -24.890625 C 3.15625 -30.523438 3.898438 -34.957031 5.390625 -38.1875 C 6.890625 -41.414062 9.617188 -43.03125 13.578125 -43.03125 C 16.078125 -43.03125 18.429688 -41.929688 20.640625 -39.734375 L 20.640625 -59.484375 L 28.5 -59.484375 L 28.5 0 L 20.640625 0 L 20.640625 -2.71875 C 18.578125 -0.507812 16.300781 0.59375 13.8125 0.59375 Z M 15.78125 -5.578125 C 17.351562 -5.578125 18.972656 -6.117188 20.640625 -7.203125 L 20.640625 -35.03125 C 18.828125 -36.25 17.160156 -36.859375 15.640625 -36.859375 C 12.554688 -36.859375 11.015625 -33.898438 11.015625 -27.984375 L 11.015625 -16.015625 C 11.015625 -12.585938 11.332031 -9.988281 11.96875 -8.21875 C 12.601562 -6.457031 13.875 -5.578125 15.78125 -5.578125 Z M 15.78125 -5.578125 "/></g></g><g style="fill:#000000;fill-opacity:1;"><g transform="translate(313.569718, 108.695669)"><path style="stroke:none" d="M 15.71875 0.59375 C 12.4375 0.59375 9.890625 -0.03125 8.078125 -1.28125 C 6.265625 -2.53125 4.988281 -4.378906 4.25 -6.828125 C 3.519531 -9.273438 3.15625 -12.457031 3.15625 -16.375 L 3.15625 -26.0625 C 3.15625 -31.9375 4.070312 -36.234375 5.90625 -38.953125 C 7.75 -41.671875 11.019531 -43.03125 15.71875 -43.03125 C 19.144531 -43.03125 21.722656 -42.320312 23.453125 -40.90625 C 25.191406 -39.488281 26.34375 -37.492188 26.90625 -34.921875 C 27.476562 -32.347656 27.765625 -28.882812 27.765625 -24.53125 L 27.765625 -21.078125 L 11.015625 -21.078125 L 11.015625 -12.5625 C 11.015625 -9.96875 11.394531 -8.09375 12.15625 -6.9375 C 12.914062 -5.789062 14.125 -5.21875 15.78125 -5.21875 C 17.445312 -5.21875 18.570312 -5.789062 19.15625 -6.9375 C 19.75 -8.09375 20.046875 -9.84375 20.046875 -12.1875 L 20.046875 -14.765625 L 27.6875 -14.765625 L 27.6875 -13.140625 C 27.6875 -8.691406 26.726562 -5.289062 24.8125 -2.9375 C 22.90625 -0.582031 19.875 0.59375 15.71875 0.59375 Z M 20.046875 -25.328125 L 20.046875 -29.15625 C 20.046875 -32.039062 19.765625 -34.109375 19.203125 -35.359375 C 18.640625 -36.609375 17.453125 -37.234375 15.640625 -37.234375 C 14.367188 -37.234375 13.398438 -36.9375 12.734375 -36.34375 C 12.078125 -35.757812 11.625 -34.796875 11.375 -33.453125 C 11.132812 -32.109375 11.015625 -30.160156 11.015625 -27.609375 L 11.015625 -25.328125 Z M 20.046875 -25.328125 "/></g></g><g style="fill:#000000;fill-opacity:1;"><g transform="translate(344.486597, 108.695669)"><path style="stroke:none" d="M 3.96875 -42.453125 L 11.828125 -42.453125 L 11.828125 -39.0625 C 14.128906 -41.707031 16.820312 -43.03125 19.90625 -43.03125 C 23.769531 -43.03125 26.347656 -41.378906 27.640625 -38.078125 C 28.941406 -34.773438 29.59375 -31.113281 29.59375 -27.09375 L 29.59375 -16.8125 C 29.59375 -11.625 28.796875 -7.425781 27.203125 -4.21875 C 25.617188 -1.007812 22.890625 0.59375 19.015625 0.59375 C 16.523438 0.59375 14.128906 -0.65625 11.828125 -3.15625 L 11.828125 13.953125 L 3.96875 13.953125 Z M 17.484375 -5.578125 C 19.285156 -5.578125 20.441406 -6.492188 20.953125 -8.328125 C 21.472656 -10.171875 21.734375 -13 21.734375 -16.8125 L 21.734375 -27.09375 C 21.734375 -30.226562 21.4375 -32.640625 20.84375 -34.328125 C 20.257812 -36.015625 19.039062 -36.859375 17.1875 -36.859375 C 15.375 -36.859375 13.585938 -36.125 11.828125 -34.65625 L 11.828125 -7.484375 C 13.535156 -6.210938 15.421875 -5.578125 17.484375 -5.578125 Z M 17.484375 -5.578125 "/></g></g><g style="fill:#000000;fill-opacity:1;"><g transform="translate(377.239379, 108.695669)"><path style="stroke:none" d="M 15.640625 0.59375 C 11.140625 0.59375 7.945312 -0.738281 6.0625 -3.40625 C 4.175781 -6.082031 3.234375 -9.960938 3.234375 -15.046875 L 3.234375 -27.390625 C 3.234375 -32.484375 4.175781 -36.363281 6.0625 -39.03125 C 7.945312 -41.695312 11.140625 -43.03125 15.640625 -43.03125 C 20.097656 -43.03125 23.269531 -41.695312 25.15625 -39.03125 C 27.039062 -36.363281 27.984375 -32.484375 27.984375 -27.390625 L 27.984375 -15.046875 C 27.984375 -9.960938 27.039062 -6.082031 25.15625 -3.40625 C 23.269531 -0.738281 20.097656 0.59375 15.640625 0.59375 Z M 15.640625 -5.21875 C 17.054688 -5.21875 18.082031 -5.628906 18.71875 -6.453125 C 19.363281 -7.285156 19.757812 -8.3125 19.90625 -9.53125 C 20.050781 -10.757812 20.125 -12.429688 20.125 -14.546875 L 20.125 -27.828125 C 20.125 -29.929688 20.050781 -31.609375 19.90625 -32.859375 C 19.757812 -34.109375 19.363281 -35.148438 18.71875 -35.984375 C 18.082031 -36.816406 17.054688 -37.234375 15.640625 -37.234375 C 14.222656 -37.234375 13.179688 -36.816406 12.515625 -35.984375 C 11.859375 -35.148438 11.457031 -34.109375 11.3125 -32.859375 C 11.164062 -31.609375 11.09375 -29.929688 11.09375 -27.828125 L 11.09375 -14.546875 C 11.09375 -12.429688 11.164062 -10.757812 11.3125 -9.53125 C 11.457031 -8.3125 11.859375 -7.285156 12.515625 -6.453125 C 13.179688 -5.628906 14.222656 -5.21875 15.640625 -5.21875 Z M 15.640625 -5.21875 "/></g></g><g style="fill:#000000;fill-opacity:1;"><g transform="translate(408.44999, 108.695669)"><path style="stroke:none" d="M 4.484375 -56.984375 L 12.34375 -56.984375 L 12.34375 -48.765625 L 4.484375 -48.765625 Z M 4.484375 -42.453125 L 12.34375 -42.453125 L 12.34375 0 L 4.484375 0 Z M 4.484375 -42.453125 "/></g></g><g style="fill:#000000;fill-opacity:1;"><g transform="translate(425.267022, 108.695669)"><path style="stroke:none" d="M 3.96875 -42.453125 L 11.828125 -42.453125 L 11.828125 -38.265625 C 15.203125 -41.441406 18.648438 -43.03125 22.171875 -43.03125 C 24.472656 -43.03125 26.113281 -42.195312 27.09375 -40.53125 C 28.070312 -38.875 28.5625 -36.820312 28.5625 -34.375 L 28.5625 0 L 20.703125 0 L 20.703125 -32.09375 C 20.703125 -33.707031 20.457031 -34.90625 19.96875 -35.6875 C 19.476562 -36.46875 18.597656 -36.859375 17.328125 -36.859375 C 15.765625 -36.859375 13.929688 -35.976562 11.828125 -34.21875 L 11.828125 0 L 3.96875 0 Z M 3.96875 -42.453125 "/></g></g><g style="fill:#000000;fill-opacity:1;"><g transform="translate(457.505735, 108.695669)"><path style="stroke:none" d="M 15.28125 0.59375 C 9.15625 0.59375 6.09375 -2.785156 6.09375 -9.546875 L 6.09375 -37.234375 L 1.609375 -37.234375 L 1.609375 -42.453125 L 6.09375 -42.453125 L 6.09375 -54.859375 L 13.953125 -54.859375 L 13.953125 -42.453125 L 20.78125 -42.453125 L 20.78125 -37.234375 L 13.953125 -37.234375 L 13.953125 -10.0625 C 13.953125 -8.34375 14.21875 -7.140625 14.75 -6.453125 C 15.289062 -5.773438 16.320312 -5.4375 17.84375 -5.4375 C 18.820312 -5.4375 19.773438 -5.507812 20.703125 -5.65625 L 20.703125 0.140625 C 18.742188 0.441406 16.9375 0.59375 15.28125 0.59375 Z M 15.28125 0.59375 "/></g></g></g></svg>