<svg xmlns="http://www.w3.org/2000/svg" xmlns:xlink="http://www.w3.org/1999/xlink" width="676" zoomAndPan="magnify" viewBox="0 0 507 152.249993" height="203" preserveAspectRatio="xMidYMid meet" version="1.2"><defs><clipPath id="9914f6a317"><path d="M 1.242188 1.128906 L 151.074219 1.128906 L 151.074219 150.960938 L 1.242188 150.960938 Z M 1.242188 1.128906 "/></clipPath><clipPath id="2c0be51b92"><path d="M 76.160156 1.128906 C 34.785156 1.128906 1.242188 34.667969 1.242188 76.042969 C 1.242188 117.421875 34.785156 150.960938 76.160156 150.960938 C 117.535156 150.960938 151.074219 117.421875 151.074219 76.042969 C 151.074219 34.667969 117.535156 1.128906 76.160156 1.128906 Z M 76.160156 1.128906 "/></clipPath><clipPath id="ac7d3ed0e0"><path d="M 35.144531 38.117188 L 117 38.117188 L 117 110.707031 L 35.144531 110.707031 Z M 35.144531 38.117188 "/></clipPath><clipPath id="a5d0b7170e"><path d="M 1.242188 1.128906 L 150.890625 1.128906 L 150.890625 150.773438 L 1.242188 150.773438 Z M 1.242188 1.128906 "/></clipPath></defs><g id="bd55bc15ce"><g clip-rule="nonzero" clip-path="url(#9914f6a317)"><g clip-rule="nonzero" clip-path="url(#2c0be51b92)"><path style=" stroke:none;fill-rule:nonzero;fill:#000000;fill-opacity:1;" d="M 1.242188 1.128906 L 151.074219 1.128906 L 151.074219 150.960938 L 1.242188 150.960938 Z M 1.242188 1.128906 "/></g></g><g clip-rule="nonzero" clip-path="url(#ac7d3ed0e0)"><path style=" stroke:none;fill-rule:nonzero;fill:#ffffff;fill-opacity:1;" d="M 109.820312 78.351562 C 109.757812 77.726562 109.640625 77.109375 109.476562 76.5 C 109.3125 75.894531 109.101562 75.304688 108.839844 74.730469 C 108.582031 74.15625 108.277344 73.609375 107.925781 73.085938 C 107.578125 72.5625 107.1875 72.066406 106.761719 71.605469 C 106.332031 71.144531 105.871094 70.722656 105.371094 70.335938 C 104.875 69.949219 104.351562 69.605469 103.796875 69.304688 C 103.246094 69.003906 102.671875 68.75 102.078125 68.539062 C 101.484375 68.332031 100.875 68.171875 100.257812 68.0625 C 100.378906 67.050781 100.402344 66.039062 100.332031 65.023438 L 99.460938 52.386719 C 99.394531 51.429688 99.238281 50.488281 98.996094 49.558594 C 98.75 48.632812 98.421875 47.734375 98.011719 46.867188 C 97.597656 46 97.109375 45.179688 96.542969 44.40625 C 95.976562 43.632812 95.339844 42.917969 94.640625 42.265625 C 93.9375 41.609375 93.183594 41.027344 92.371094 40.511719 C 91.558594 40 90.707031 39.570312 89.816406 39.21875 C 88.921875 38.863281 88.003906 38.597656 87.0625 38.421875 C 86.121094 38.242188 85.167969 38.152344 84.210938 38.152344 C 83.25 38.152344 82.300781 38.238281 81.355469 38.417969 C 80.414062 38.597656 79.496094 38.863281 78.605469 39.214844 C 77.710938 39.566406 76.859375 39.996094 76.046875 40.507812 C 75.238281 41.019531 74.480469 41.605469 73.777344 42.257812 C 73.078125 42.914062 72.441406 43.625 71.875 44.398438 C 71.308594 45.175781 70.816406 45.992188 70.40625 46.859375 C 69.992188 47.726562 69.664062 48.621094 69.417969 49.550781 C 69.175781 50.476562 69.019531 51.421875 68.953125 52.378906 L 68.792969 54.660156 C 67.707031 54.015625 66.53125 53.632812 65.273438 53.511719 C 64.980469 52.636719 64.558594 51.832031 64.007812 51.09375 C 63.457031 50.355469 62.804688 49.722656 62.050781 49.195312 C 61.296875 48.664062 60.476562 48.269531 59.597656 48 C 58.714844 47.734375 57.8125 47.613281 56.890625 47.632812 C 55.972656 47.65625 55.078125 47.820312 54.210938 48.128906 C 53.34375 48.4375 52.542969 48.875 51.816406 49.441406 C 51.089844 50.003906 50.46875 50.667969 49.953125 51.429688 C 49.4375 52.195312 49.054688 53.019531 48.800781 53.90625 C 48.632812 54.09375 48.53125 54.316406 48.492188 54.566406 C 48.457031 54.820312 48.488281 55.058594 48.59375 55.292969 C 48.695312 55.523438 48.855469 55.707031 49.070312 55.847656 C 49.28125 55.984375 49.515625 56.054688 49.769531 56.054688 C 49.789062 56.054688 49.804688 56.054688 49.820312 56.054688 L 49.894531 56.054688 C 50.207031 56.0625 50.484375 55.96875 50.726562 55.773438 C 50.96875 55.578125 51.125 55.332031 51.1875 55.027344 C 51.328125 54.347656 51.578125 53.710938 51.941406 53.117188 C 52.300781 52.523438 52.75 52.007812 53.289062 51.570312 C 53.828125 51.132812 54.421875 50.796875 55.078125 50.5625 C 55.730469 50.332031 56.40625 50.214844 57.097656 50.214844 C 57.792969 50.214844 58.46875 50.332031 59.121094 50.5625 C 59.773438 50.796875 60.371094 51.132812 60.910156 51.570312 C 61.449219 52.007812 61.898438 52.523438 62.257812 53.117188 C 62.617188 53.710938 62.871094 54.347656 63.011719 55.027344 C 63.074219 55.332031 63.226562 55.578125 63.472656 55.773438 C 63.714844 55.96875 63.992188 56.0625 64.300781 56.054688 L 64.378906 56.054688 C 64.394531 56.054688 64.410156 56.054688 64.425781 56.054688 C 64.824219 56.054688 65.214844 56.09375 65.605469 56.171875 C 65.992188 56.246094 66.371094 56.363281 66.738281 56.515625 C 67.101562 56.667969 67.449219 56.851562 67.78125 57.074219 C 68.109375 57.292969 68.414062 57.542969 68.695312 57.824219 C 68.972656 58.101562 69.226562 58.40625 69.445312 58.738281 C 69.664062 59.066406 69.851562 59.414062 70.003906 59.78125 C 70.15625 60.144531 70.269531 60.523438 70.347656 60.914062 C 70.425781 61.300781 70.464844 61.691406 70.464844 62.089844 C 70.46875 63.070312 70.242188 63.996094 69.785156 64.867188 C 69.691406 65.050781 69.640625 65.246094 69.640625 65.453125 C 69.640625 65.660156 69.683594 65.859375 69.777344 66.042969 C 69.871094 66.226562 70 66.382812 70.167969 66.503906 C 70.332031 66.628906 70.519531 66.707031 70.722656 66.738281 C 71.371094 66.847656 71.984375 67.054688 72.5625 67.359375 C 73.144531 67.667969 73.660156 68.058594 74.113281 68.535156 C 74.5625 69.007812 74.929688 69.542969 75.207031 70.136719 C 75.484375 70.734375 75.660156 71.355469 75.734375 72.007812 C 75.808594 72.660156 75.78125 73.304688 75.644531 73.949219 C 75.507812 74.589844 75.273438 75.195312 74.941406 75.757812 C 74.605469 76.324219 74.191406 76.820312 73.699219 77.253906 C 73.203125 77.683594 72.652344 78.023438 72.046875 78.273438 C 71.886719 78.339844 71.742188 78.433594 71.621094 78.558594 C 71.5 78.679688 71.40625 78.824219 71.339844 78.984375 C 71.277344 79.144531 71.246094 79.3125 71.246094 79.484375 C 71.25 79.65625 71.285156 79.824219 71.355469 79.984375 C 71.601562 80.554688 71.757812 81.152344 71.824219 81.773438 C 71.886719 82.390625 71.855469 83.007812 71.726562 83.617188 C 71.601562 84.230469 71.382812 84.804688 71.078125 85.347656 C 70.769531 85.894531 70.390625 86.378906 69.933594 86.800781 C 69.476562 87.226562 68.964844 87.574219 68.402344 87.839844 C 67.839844 88.109375 67.25 88.285156 66.628906 88.367188 C 66.011719 88.453125 65.394531 88.441406 64.78125 88.332031 C 64.167969 88.226562 63.582031 88.027344 63.03125 87.742188 C 62.800781 87.621094 62.554688 87.574219 62.296875 87.601562 C 62.039062 87.628906 61.8125 87.722656 61.609375 87.890625 C 61.0625 88.339844 60.449219 88.683594 59.777344 88.921875 L 59.777344 80.714844 L 65.265625 75.164062 C 65.386719 75.042969 65.480469 74.902344 65.542969 74.742188 C 65.609375 74.585938 65.640625 74.421875 65.640625 74.25 C 65.640625 74.078125 65.605469 73.910156 65.539062 73.753906 C 65.472656 73.59375 65.378906 73.457031 65.257812 73.335938 C 65.136719 73.214844 64.996094 73.121094 64.835938 73.058594 C 64.675781 72.992188 64.511719 72.960938 64.339844 72.960938 C 64.167969 72.964844 64.003906 72.996094 63.847656 73.0625 C 63.6875 73.132812 63.550781 73.226562 63.429688 73.347656 L 59.777344 77.039062 L 59.777344 69.738281 C 59.777344 69.570312 59.746094 69.402344 59.679688 69.246094 C 59.613281 69.085938 59.523438 68.949219 59.402344 68.828125 C 59.28125 68.707031 59.140625 68.613281 58.980469 68.546875 C 58.824219 68.480469 58.660156 68.449219 58.488281 68.449219 C 58.316406 68.449219 58.152344 68.480469 57.992188 68.546875 C 57.835938 68.613281 57.695312 68.707031 57.574219 68.828125 C 57.453125 68.949219 57.359375 69.085938 57.292969 69.246094 C 57.226562 69.402344 57.195312 69.570312 57.195312 69.738281 L 57.195312 83.328125 L 53.441406 80.042969 C 53.3125 79.929688 53.167969 79.847656 53.003906 79.792969 C 52.84375 79.738281 52.675781 79.714844 52.503906 79.726562 C 52.335938 79.738281 52.171875 79.78125 52.019531 79.859375 C 51.863281 79.933594 51.730469 80.035156 51.617188 80.164062 C 51.507812 80.292969 51.421875 80.441406 51.367188 80.601562 C 51.3125 80.765625 51.289062 80.929688 51.300781 81.101562 C 51.3125 81.273438 51.359375 81.4375 51.433594 81.589844 C 51.507812 81.742188 51.613281 81.875 51.742188 81.988281 L 57.195312 86.761719 L 57.195312 89.234375 C 56.113281 89.132812 55.128906 88.761719 54.246094 88.125 C 54.039062 87.976562 53.808594 87.894531 53.550781 87.882812 C 53.292969 87.871094 53.054688 87.929688 52.835938 88.058594 C 52.296875 88.375 51.726562 88.601562 51.121094 88.742188 C 50.515625 88.878906 49.902344 88.925781 49.28125 88.875 C 48.660156 88.824219 48.0625 88.679688 47.488281 88.445312 C 46.914062 88.210938 46.386719 87.894531 45.910156 87.496094 C 45.429688 87.097656 45.023438 86.636719 44.6875 86.113281 C 44.351562 85.589844 44.105469 85.027344 43.941406 84.425781 C 43.78125 83.824219 43.710938 83.214844 43.738281 82.59375 C 43.765625 81.972656 43.886719 81.367188 44.097656 80.785156 C 44.167969 80.601562 44.191406 80.410156 44.171875 80.214844 C 44.152344 80.019531 44.09375 79.839844 43.992188 79.671875 C 43.886719 79.503906 43.753906 79.363281 43.589844 79.257812 C 43.425781 79.152344 43.246094 79.085938 43.050781 79.058594 C 42.679688 79.011719 42.320312 78.929688 41.964844 78.816406 C 41.609375 78.699219 41.269531 78.550781 40.941406 78.375 C 40.613281 78.195312 40.304688 77.988281 40.015625 77.753906 C 39.726562 77.515625 39.464844 77.257812 39.222656 76.972656 C 38.980469 76.6875 38.769531 76.382812 38.585938 76.058594 C 38.398438 75.734375 38.246094 75.398438 38.125 75.042969 C 38.003906 74.691406 37.914062 74.332031 37.859375 73.960938 C 37.804688 73.59375 37.785156 73.222656 37.796875 72.851562 C 37.8125 72.476562 37.859375 72.109375 37.941406 71.746094 C 38.023438 71.382812 38.140625 71.027344 38.285156 70.6875 C 38.433594 70.34375 38.613281 70.019531 38.820312 69.707031 C 39.027344 69.398438 39.261719 69.113281 39.523438 68.84375 C 39.785156 68.578125 40.070312 68.339844 40.375 68.125 C 40.679688 67.914062 41.003906 67.730469 41.34375 67.574219 C 41.683594 67.421875 42.035156 67.300781 42.394531 67.210938 C 42.757812 67.125 43.125 67.070312 43.496094 67.046875 C 43.609375 67.042969 43.714844 67.023438 43.820312 66.988281 C 43.925781 66.953125 44.023438 66.910156 44.117188 66.847656 C 44.210938 66.789062 44.296875 66.71875 44.371094 66.640625 C 44.445312 66.558594 44.511719 66.46875 44.5625 66.371094 C 44.617188 66.273438 44.65625 66.171875 44.683594 66.066406 C 44.707031 65.957031 44.71875 65.847656 44.71875 65.738281 C 44.71875 65.628906 44.703125 65.519531 44.671875 65.414062 C 44.644531 65.308594 44.601562 65.207031 44.546875 65.109375 C 44.191406 64.496094 43.953125 63.84375 43.828125 63.148438 C 43.703125 62.449219 43.703125 61.753906 43.824219 61.058594 C 43.945312 60.359375 44.179688 59.703125 44.53125 59.089844 C 44.882812 58.476562 45.328125 57.941406 45.867188 57.484375 C 46 57.375 46.101562 57.242188 46.179688 57.089844 C 46.257812 56.9375 46.304688 56.773438 46.320312 56.605469 C 46.332031 56.433594 46.3125 56.265625 46.261719 56.105469 C 46.207031 55.941406 46.125 55.792969 46.015625 55.664062 C 45.90625 55.535156 45.773438 55.429688 45.621094 55.351562 C 45.46875 55.273438 45.308594 55.226562 45.136719 55.210938 C 44.964844 55.199219 44.800781 55.21875 44.636719 55.269531 C 44.472656 55.320312 44.328125 55.402344 44.195312 55.515625 C 43.542969 56.066406 42.984375 56.703125 42.523438 57.421875 C 42.058594 58.140625 41.710938 58.910156 41.476562 59.734375 C 41.246094 60.558594 41.136719 61.394531 41.152344 62.25 C 41.167969 63.105469 41.308594 63.941406 41.574219 64.753906 C 40.671875 65 39.832031 65.378906 39.054688 65.898438 C 38.277344 66.414062 37.601562 67.042969 37.027344 67.777344 C 36.453125 68.515625 36.011719 69.324219 35.703125 70.203125 C 35.390625 71.085938 35.226562 71.992188 35.210938 72.925781 C 35.195312 73.859375 35.328125 74.773438 35.609375 75.664062 C 35.890625 76.554688 36.304688 77.375 36.851562 78.132812 C 37.398438 78.890625 38.050781 79.539062 38.8125 80.082031 C 39.570312 80.625 40.394531 81.035156 41.289062 81.3125 C 41.148438 82.089844 41.113281 82.875 41.1875 83.660156 C 41.257812 84.449219 41.4375 85.210938 41.722656 85.949219 C 42.003906 86.6875 42.382812 87.375 42.855469 88.007812 C 43.328125 88.644531 43.878906 89.203125 44.503906 89.6875 C 45.132812 90.167969 45.8125 90.558594 46.546875 90.855469 C 47.28125 91.152344 48.039062 91.339844 48.824219 91.429688 C 49.613281 91.515625 50.394531 91.492188 51.175781 91.363281 C 51.957031 91.234375 52.707031 91.003906 53.421875 90.667969 C 54.585938 91.355469 55.84375 91.742188 57.195312 91.828125 L 57.195312 107.882812 L 53.679688 107.882812 C 53.507812 107.882812 53.34375 107.914062 53.183594 107.980469 C 53.027344 108.046875 52.886719 108.140625 52.765625 108.261719 C 52.644531 108.382812 52.550781 108.519531 52.484375 108.679688 C 52.417969 108.835938 52.386719 109.003906 52.386719 109.171875 C 52.386719 109.34375 52.417969 109.507812 52.484375 109.667969 C 52.550781 109.824219 52.644531 109.964844 52.765625 110.085938 C 52.886719 110.207031 53.027344 110.300781 53.183594 110.367188 C 53.34375 110.433594 53.507812 110.464844 53.679688 110.464844 L 105.410156 110.464844 C 105.582031 110.464844 105.746094 110.433594 105.902344 110.367188 C 106.0625 110.300781 106.203125 110.207031 106.324219 110.085938 C 106.445312 109.964844 106.539062 109.824219 106.601562 109.667969 C 106.667969 109.507812 106.703125 109.34375 106.703125 109.171875 C 106.703125 109.003906 106.667969 108.835938 106.601562 108.679688 C 106.539062 108.519531 106.445312 108.382812 106.324219 108.261719 C 106.203125 108.140625 106.0625 108.046875 105.902344 107.980469 C 105.746094 107.914062 105.582031 107.882812 105.410156 107.882812 L 100.148438 107.882812 L 100.148438 100.3125 C 101.042969 100.203125 101.898438 99.949219 102.707031 99.5625 C 103.519531 99.171875 104.25 98.660156 104.894531 98.03125 C 105.539062 97.402344 106.066406 96.6875 106.476562 95.886719 C 106.886719 95.085938 107.160156 94.238281 107.292969 93.347656 C 107.320312 93.175781 107.3125 93.007812 107.269531 92.84375 C 107.230469 92.675781 107.160156 92.523438 107.058594 92.386719 C 106.957031 92.246094 106.832031 92.132812 106.6875 92.042969 C 106.539062 91.957031 106.382812 91.898438 106.210938 91.871094 C 106.042969 91.847656 105.875 91.851562 105.707031 91.894531 C 105.542969 91.933594 105.390625 92.003906 105.25 92.105469 C 105.113281 92.207031 105 92.332031 104.910156 92.480469 C 104.820312 92.625 104.765625 92.785156 104.738281 92.953125 C 104.644531 93.535156 104.464844 94.089844 104.203125 94.617188 C 103.9375 95.144531 103.601562 95.621094 103.1875 96.042969 C 102.777344 96.46875 102.316406 96.820312 101.796875 97.101562 C 101.277344 97.382812 100.730469 97.582031 100.148438 97.695312 L 100.148438 93.121094 L 104.898438 88.851562 C 105.027344 88.734375 105.128906 88.601562 105.203125 88.445312 C 105.277344 88.292969 105.316406 88.128906 105.328125 87.957031 C 105.335938 87.785156 105.3125 87.621094 105.253906 87.457031 C 105.199219 87.296875 105.113281 87.152344 104.996094 87.023438 C 104.882812 86.898438 104.75 86.796875 104.59375 86.722656 C 104.4375 86.648438 104.277344 86.609375 104.105469 86.597656 C 103.933594 86.589844 103.765625 86.613281 103.605469 86.671875 C 103.445312 86.730469 103.300781 86.816406 103.171875 86.929688 L 100.148438 89.648438 L 100.148438 83.390625 C 100.148438 83.21875 100.117188 83.054688 100.050781 82.898438 C 99.988281 82.738281 99.894531 82.597656 99.773438 82.476562 C 99.652344 82.355469 99.511719 82.265625 99.351562 82.199219 C 99.195312 82.132812 99.03125 82.101562 98.859375 82.101562 C 98.6875 82.101562 98.523438 82.132812 98.363281 82.199219 C 98.207031 82.265625 98.066406 82.355469 97.945312 82.476562 C 97.824219 82.597656 97.730469 82.738281 97.664062 82.898438 C 97.597656 83.054688 97.566406 83.21875 97.566406 83.390625 L 97.566406 97.59375 C 97.144531 97.476562 96.738281 97.316406 96.351562 97.105469 C 95.96875 96.898438 95.609375 96.648438 95.28125 96.355469 C 94.953125 96.066406 94.664062 95.742188 94.410156 95.382812 C 94.15625 95.027344 93.945312 94.644531 93.777344 94.238281 C 93.613281 93.832031 93.496094 93.410156 93.425781 92.980469 C 93.355469 92.546875 93.335938 92.109375 93.367188 91.671875 C 93.398438 91.234375 93.476562 90.804688 93.609375 90.386719 C 93.738281 89.96875 93.910156 89.570312 94.132812 89.191406 C 94.21875 89.042969 94.273438 88.882812 94.296875 88.710938 C 94.320312 88.542969 94.308594 88.375 94.265625 88.207031 C 94.222656 88.042969 94.148438 87.890625 94.042969 87.753906 C 93.9375 87.617188 93.8125 87.507812 93.664062 87.421875 C 92.554688 86.777344 91.625 85.941406 90.871094 84.90625 C 90.117188 83.871094 89.601562 82.730469 89.328125 81.480469 C 91.628906 80.710938 93.65625 79.484375 95.402344 77.800781 C 95.527344 77.683594 95.621094 77.542969 95.691406 77.386719 C 95.757812 77.230469 95.796875 77.066406 95.800781 76.894531 C 95.804688 76.722656 95.773438 76.558594 95.710938 76.398438 C 95.648438 76.238281 95.558594 76.097656 95.4375 75.972656 C 95.320312 75.851562 95.183594 75.753906 95.027344 75.683594 C 94.867188 75.617188 94.703125 75.582031 94.53125 75.578125 C 94.363281 75.574219 94.195312 75.605469 94.035156 75.667969 C 93.875 75.730469 93.734375 75.820312 93.613281 75.9375 C 92.515625 76.996094 91.277344 77.84375 89.894531 78.480469 C 88.511719 79.117188 87.0625 79.511719 85.546875 79.65625 L 85.546875 74.210938 L 91.792969 68.503906 C 91.921875 68.386719 92.019531 68.25 92.09375 68.097656 C 92.164062 67.941406 92.207031 67.777344 92.214844 67.605469 C 92.222656 67.433594 92.195312 67.269531 92.136719 67.109375 C 92.078125 66.945312 91.992188 66.800781 91.875 66.675781 C 91.761719 66.550781 91.625 66.449219 91.46875 66.378906 C 91.316406 66.304688 91.152344 66.265625 90.980469 66.257812 C 90.808594 66.25 90.644531 66.273438 90.480469 66.332031 C 90.320312 66.390625 90.175781 66.480469 90.050781 66.59375 L 85.546875 70.710938 L 85.546875 56.761719 C 85.546875 56.589844 85.515625 56.425781 85.449219 56.269531 C 85.382812 56.109375 85.289062 55.96875 85.167969 55.847656 C 85.046875 55.726562 84.90625 55.632812 84.75 55.570312 C 84.589844 55.503906 84.425781 55.46875 84.253906 55.46875 C 84.082031 55.46875 83.917969 55.503906 83.761719 55.570312 C 83.601562 55.632812 83.460938 55.726562 83.339844 55.847656 C 83.21875 55.96875 83.125 56.109375 83.0625 56.269531 C 82.996094 56.425781 82.960938 56.589844 82.960938 56.761719 L 82.960938 64.019531 L 80.050781 60.613281 C 79.941406 60.484375 79.808594 60.378906 79.65625 60.300781 C 79.503906 60.226562 79.339844 60.179688 79.171875 60.167969 C 79 60.152344 78.832031 60.171875 78.667969 60.226562 C 78.507812 60.277344 78.359375 60.359375 78.230469 60.472656 C 78.097656 60.582031 77.996094 60.714844 77.917969 60.867188 C 77.839844 61.019531 77.792969 61.183594 77.78125 61.351562 C 77.769531 61.523438 77.789062 61.691406 77.839844 61.855469 C 77.894531 62.015625 77.976562 62.164062 78.085938 62.292969 L 82.960938 67.996094 L 82.960938 79.667969 C 80.753906 79.476562 78.714844 78.773438 76.855469 77.566406 C 77.039062 77.296875 77.207031 77.015625 77.359375 76.726562 C 77.515625 76.4375 77.648438 76.140625 77.769531 75.832031 C 77.886719 75.527344 77.988281 75.214844 78.074219 74.898438 C 78.15625 74.582031 78.222656 74.261719 78.269531 73.9375 C 78.316406 73.613281 78.34375 73.285156 78.355469 72.957031 C 78.363281 72.632812 78.355469 72.304688 78.328125 71.976562 C 78.300781 71.652344 78.253906 71.328125 78.191406 71.003906 C 78.125 70.683594 78.042969 70.367188 77.945312 70.054688 C 77.84375 69.742188 77.726562 69.4375 77.589844 69.136719 C 77.457031 68.839844 77.304688 68.550781 77.136719 68.269531 C 76.96875 67.988281 76.785156 67.714844 76.585938 67.457031 C 76.386719 67.195312 76.171875 66.945312 75.945312 66.710938 C 75.71875 66.472656 75.476562 66.25 75.222656 66.042969 C 74.972656 65.835938 74.707031 65.640625 74.433594 65.460938 C 74.15625 65.28125 73.875 65.121094 73.578125 64.972656 C 73.285156 64.828125 72.984375 64.699219 72.675781 64.585938 C 72.878906 63.929688 72.996094 63.253906 73.035156 62.566406 C 73.074219 61.878906 73.03125 61.199219 72.902344 60.519531 C 72.777344 59.84375 72.574219 59.191406 72.292969 58.5625 C 72.007812 57.9375 71.65625 57.351562 71.234375 56.808594 L 71.53125 52.558594 C 71.585938 51.761719 71.714844 50.980469 71.917969 50.207031 C 72.121094 49.4375 72.394531 48.691406 72.738281 47.972656 C 73.078125 47.253906 73.488281 46.570312 73.957031 45.929688 C 74.429688 45.285156 74.957031 44.691406 75.539062 44.148438 C 76.125 43.605469 76.753906 43.121094 77.425781 42.695312 C 78.101562 42.269531 78.808594 41.910156 79.550781 41.617188 C 80.292969 41.324219 81.054688 41.105469 81.839844 40.957031 C 82.621094 40.808594 83.410156 40.734375 84.210938 40.734375 C 85.007812 40.734375 85.796875 40.808594 86.582031 40.957031 C 87.363281 41.109375 88.125 41.328125 88.867188 41.621094 C 89.609375 41.914062 90.316406 42.273438 90.992188 42.699219 C 91.664062 43.125 92.292969 43.609375 92.875 44.152344 C 93.460938 44.695312 93.984375 45.289062 94.457031 45.933594 C 94.929688 46.578125 95.335938 47.257812 95.679688 47.980469 C 96.019531 48.699219 96.292969 49.445312 96.496094 50.214844 C 96.699219 50.988281 96.828125 51.769531 96.882812 52.566406 L 97.753906 65.203125 C 97.917969 67.554688 97.5 69.796875 96.496094 71.933594 C 96.421875 72.085938 96.378906 72.25 96.371094 72.421875 C 96.363281 72.59375 96.386719 72.757812 96.445312 72.921875 C 96.503906 73.082031 96.589844 73.226562 96.707031 73.351562 C 96.820312 73.480469 96.957031 73.578125 97.109375 73.652344 C 97.265625 73.726562 97.429688 73.765625 97.597656 73.773438 C 97.769531 73.785156 97.9375 73.757812 98.097656 73.699219 C 98.257812 73.644531 98.402344 73.558594 98.53125 73.441406 C 98.65625 73.328125 98.757812 73.191406 98.832031 73.035156 C 99.203125 72.25 99.507812 71.433594 99.746094 70.597656 C 100.273438 70.6875 100.785156 70.820312 101.285156 71 C 101.785156 71.179688 102.265625 71.402344 102.726562 71.667969 C 103.1875 71.929688 103.625 72.234375 104.03125 72.574219 C 104.441406 72.914062 104.816406 73.289062 105.160156 73.695312 C 105.503906 74.101562 105.808594 74.535156 106.074219 74.996094 C 106.339844 75.457031 106.566406 75.9375 106.746094 76.433594 C 106.929688 76.933594 107.066406 77.445312 107.160156 77.96875 C 107.253906 78.492188 107.296875 79.023438 107.296875 79.554688 C 107.296875 79.726562 107.332031 79.890625 107.398438 80.046875 C 107.460938 80.207031 107.554688 80.347656 107.675781 80.46875 C 107.796875 80.589844 107.9375 80.683594 108.097656 80.746094 C 108.253906 80.8125 108.417969 80.84375 108.589844 80.84375 C 109.285156 80.847656 109.957031 80.96875 110.605469 81.210938 C 111.253906 81.453125 111.84375 81.804688 112.367188 82.257812 C 112.890625 82.714844 113.316406 83.246094 113.648438 83.859375 C 113.976562 84.46875 114.191406 85.117188 114.285156 85.804688 C 114.382812 86.492188 114.355469 87.171875 114.203125 87.851562 C 114.050781 88.527344 113.785156 89.15625 113.40625 89.738281 C 113.027344 90.320312 112.558594 90.816406 112 91.226562 C 111.441406 91.640625 110.828125 91.941406 110.164062 92.128906 C 109.996094 92.175781 109.847656 92.253906 109.714844 92.359375 C 109.578125 92.464844 109.46875 92.59375 109.386719 92.742188 C 109.300781 92.894531 109.25 93.054688 109.230469 93.222656 C 109.210938 93.394531 109.222656 93.5625 109.269531 93.726562 C 109.316406 93.890625 109.394531 94.039062 109.5 94.175781 C 109.605469 94.308594 109.734375 94.417969 109.882812 94.503906 C 110.035156 94.585938 110.195312 94.636719 110.363281 94.65625 C 110.535156 94.675781 110.703125 94.664062 110.867188 94.617188 C 111.320312 94.488281 111.761719 94.320312 112.1875 94.117188 C 112.617188 93.910156 113.023438 93.671875 113.40625 93.398438 C 113.792969 93.125 114.152344 92.820312 114.488281 92.488281 C 114.820312 92.152344 115.125 91.792969 115.398438 91.40625 C 115.671875 91.019531 115.910156 90.613281 116.113281 90.1875 C 116.316406 89.757812 116.484375 89.320312 116.609375 88.863281 C 116.738281 88.410156 116.828125 87.945312 116.878906 87.476562 C 116.929688 87.003906 116.9375 86.535156 116.90625 86.0625 C 116.878906 85.589844 116.808594 85.125 116.699219 84.664062 C 116.589844 84.203125 116.441406 83.757812 116.253906 83.320312 C 116.070312 82.886719 115.847656 82.472656 115.589844 82.074219 C 115.335938 81.675781 115.046875 81.304688 114.726562 80.957031 C 114.40625 80.609375 114.058594 80.289062 113.683594 80 C 113.308594 79.710938 112.914062 79.457031 112.496094 79.234375 C 112.078125 79.011719 111.644531 78.828125 111.195312 78.679688 C 110.746094 78.53125 110.289062 78.421875 109.820312 78.351562 Z M 86.820312 82.097656 C 87.132812 83.484375 87.679688 84.773438 88.460938 85.960938 C 89.242188 87.148438 90.207031 88.164062 91.359375 89 C 91.132812 89.570312 90.96875 90.160156 90.875 90.765625 C 90.777344 91.371094 90.746094 91.980469 90.785156 92.59375 C 90.824219 93.207031 90.929688 93.808594 91.101562 94.398438 C 91.273438 94.988281 91.507812 95.550781 91.804688 96.085938 C 92.101562 96.625 92.453125 97.125 92.859375 97.582031 C 93.269531 98.042969 93.722656 98.453125 94.21875 98.8125 C 94.71875 99.171875 95.25 99.46875 95.8125 99.710938 C 96.378906 99.953125 96.960938 100.128906 97.566406 100.242188 L 97.566406 107.882812 L 85.546875 107.882812 L 85.546875 82.253906 C 85.976562 82.214844 86.398438 82.164062 86.820312 82.097656 Z M 82.960938 107.882812 L 59.777344 107.882812 L 59.777344 91.609375 C 60.789062 91.367188 61.726562 90.957031 62.589844 90.378906 C 63.332031 90.679688 64.105469 90.871094 64.902344 90.957031 C 65.703125 91.042969 66.496094 91.015625 67.289062 90.878906 C 68.078125 90.742188 68.835938 90.496094 69.558594 90.148438 C 70.28125 89.800781 70.945312 89.359375 71.542969 88.824219 C 72.144531 88.292969 72.660156 87.6875 73.089844 87.007812 C 73.523438 86.332031 73.851562 85.605469 74.082031 84.835938 C 74.308594 84.066406 74.429688 83.28125 74.4375 82.476562 C 74.445312 81.675781 74.34375 80.886719 74.132812 80.113281 C 74.457031 79.921875 74.765625 79.710938 75.0625 79.476562 C 77.445312 81.121094 80.078125 82.050781 82.960938 82.261719 Z M 82.960938 107.882812 "/></g><g clip-rule="nonzero" clip-path="url(#a5d0b7170e)"><path style=" stroke:none;fill-rule:nonzero;fill:#a6a6a6;fill-opacity:1;" d="M 124.707031 22.378906 L 126.542969 20.714844 C 126.246094 20.445312 125.949219 20.179688 125.648438 19.917969 L 124.1875 21.914062 C 124.089844 22.042969 124.097656 22.230469 124.210938 22.355469 C 124.339844 22.5 124.5625 22.507812 124.707031 22.378906 Z M 98.417969 144.449219 C 98.230469 144.488281 98.109375 144.675781 98.148438 144.863281 L 98.675781 147.304688 C 99.058594 147.179688 99.441406 147.058594 99.820312 146.929688 L 98.8125 144.648438 C 98.746094 144.5 98.582031 144.414062 98.417969 144.449219 Z M 105.457031 141.734375 C 105.269531 141.796875 105.171875 141.996094 105.230469 142.179688 L 106.007812 144.546875 C 106.378906 144.386719 106.742188 144.226562 107.109375 144.058594 L 105.871094 141.894531 C 105.789062 141.753906 105.617188 141.683594 105.457031 141.734375 Z M 109.714844 136.210938 L 110.960938 142.160156 C 112.785156 141.195312 114.566406 140.164062 116.296875 139.058594 L 111.78125 135.019531 C 110.878906 134.210938 109.46875 135.023438 109.714844 136.210938 Z M 124.34375 129.4375 C 124.1875 129.550781 124.152344 129.769531 124.269531 129.925781 L 125.730469 131.921875 C 126.027344 131.65625 126.324219 131.390625 126.621094 131.121094 L 124.785156 129.460938 C 124.667969 129.351562 124.480469 129.335938 124.34375 129.4375 Z M 118.488281 134.191406 C 118.320312 134.285156 118.265625 134.5 118.363281 134.667969 L 119.609375 136.8125 C 119.9375 136.582031 120.257812 136.34375 120.578125 136.105469 L 118.925781 134.257812 C 118.820312 134.136719 118.636719 134.105469 118.488281 134.191406 Z M 91.136719 146.410156 C 90.945312 146.429688 90.804688 146.601562 90.824219 146.796875 L 91.09375 149.273438 C 91.488281 149.191406 91.878906 149.105469 92.269531 149.019531 L 91.507812 146.648438 C 91.457031 146.496094 91.304688 146.390625 91.136719 146.410156 Z M 46.371094 141.9375 L 45.128906 144.105469 C 45.492188 144.269531 45.859375 144.429688 46.226562 144.589844 L 47.007812 142.222656 C 47.058594 142.066406 46.996094 141.894531 46.847656 141.808594 C 46.679688 141.714844 46.464844 141.773438 46.371094 141.9375 Z M 53.890625 144.503906 C 53.714844 144.425781 53.507812 144.503906 53.429688 144.683594 L 52.421875 146.964844 C 52.800781 147.089844 53.183594 147.214844 53.566406 147.335938 L 54.09375 144.898438 C 54.128906 144.738281 54.046875 144.570312 53.890625 144.503906 Z M 40.359375 135.019531 L 35.84375 139.058594 C 37.574219 140.164062 39.355469 141.195312 41.179688 142.160156 L 42.421875 136.210938 C 42.671875 135.023438 41.261719 134.210938 40.359375 135.019531 Z M 83.6875 147.597656 C 83.496094 147.597656 83.339844 147.753906 83.339844 147.949219 L 83.347656 150.429688 C 83.746094 150.390625 84.144531 150.347656 84.539062 150.300781 L 84.035156 147.875 C 84 147.71875 83.859375 147.597656 83.6875 147.597656 Z M 61.179688 146.445312 C 60.992188 146.386719 60.796875 146.488281 60.738281 146.671875 L 59.976562 149.042969 C 60.367188 149.128906 60.757812 149.214844 61.152344 149.292969 L 61.417969 146.816406 C 61.4375 146.65625 61.339844 146.496094 61.179688 146.445312 Z M 74.878906 144.609375 L 72.875 150.710938 C 73.933594 150.753906 75 150.78125 76.070312 150.78125 C 77.140625 150.78125 78.207031 150.753906 79.265625 150.710938 L 77.261719 144.609375 C 76.882812 143.457031 75.253906 143.457031 74.878906 144.609375 Z M 68.628906 147.617188 C 68.4375 147.578125 68.253906 147.699219 68.214844 147.886719 L 67.707031 150.3125 C 68.101562 150.359375 68.5 150.402344 68.898438 150.4375 L 68.90625 147.960938 C 68.90625 147.796875 68.792969 147.652344 68.628906 147.617188 Z M 15.816406 109.601562 L 9.863281 110.847656 C 10.828125 112.671875 11.859375 114.453125 12.964844 116.183594 L 17.007812 111.667969 C 17.8125 110.765625 17 109.355469 15.816406 109.601562 Z M 7.578125 98.304688 C 7.535156 98.113281 7.351562 97.996094 7.160156 98.035156 L 4.722656 98.5625 C 4.84375 98.945312 4.964844 99.324219 5.09375 99.707031 L 7.375 98.699219 C 7.523438 98.632812 7.613281 98.46875 7.578125 98.304688 Z M 10.289062 105.339844 C 10.226562 105.15625 10.03125 105.054688 9.847656 105.117188 L 7.480469 105.894531 C 7.640625 106.261719 7.800781 106.628906 7.964844 106.992188 L 10.128906 105.753906 C 10.269531 105.671875 10.339844 105.503906 10.289062 105.339844 Z M 5.617188 91.023438 C 5.597656 90.828125 5.421875 90.691406 5.230469 90.710938 L 2.753906 90.980469 C 2.832031 91.375 2.921875 91.761719 3.007812 92.152344 L 5.375 91.394531 C 5.53125 91.34375 5.636719 91.191406 5.617188 91.023438 Z M 4.425781 83.574219 C 4.425781 83.382812 4.269531 83.226562 4.074219 83.226562 L 1.597656 83.234375 C 1.636719 83.632812 1.679688 84.03125 1.722656 84.425781 L 4.148438 83.917969 C 4.308594 83.886719 4.429688 83.746094 4.425781 83.574219 Z M 22.46875 27.8125 C 22.613281 27.683594 22.625 27.460938 22.492188 27.316406 L 20.828125 25.484375 C 20.5625 25.777344 20.296875 26.078125 20.03125 26.375 L 22.027344 27.835938 C 22.15625 27.933594 22.34375 27.925781 22.46875 27.8125 Z M 33.300781 134.320312 L 31.648438 136.171875 C 31.96875 136.40625 32.289062 136.644531 32.617188 136.875 L 33.863281 134.730469 C 33.945312 134.589844 33.921875 134.40625 33.792969 134.292969 C 33.648438 134.164062 33.429688 134.179688 33.300781 134.320312 Z M 22.097656 124.15625 L 20.101562 125.613281 C 20.367188 125.914062 20.632812 126.210938 20.902344 126.507812 L 22.566406 124.671875 C 22.675781 124.550781 22.6875 124.367188 22.589844 124.230469 C 22.472656 124.074219 22.253906 124.039062 22.097656 124.15625 Z M 17.355469 118.25 L 15.210938 119.496094 C 15.445312 119.820312 15.679688 120.144531 15.917969 120.464844 L 17.765625 118.8125 C 17.886719 118.703125 17.921875 118.523438 17.835938 118.375 C 17.738281 118.207031 17.523438 118.152344 17.355469 118.25 Z M 4.410156 68.511719 C 4.449219 68.324219 4.328125 68.136719 4.136719 68.097656 L 1.710938 67.589844 C 1.667969 67.988281 1.625 68.386719 1.585938 68.785156 L 4.0625 68.792969 C 4.226562 68.792969 4.375 68.679688 4.410156 68.511719 Z M 7.417969 74.765625 L 1.316406 72.757812 C 1.269531 73.820312 1.242188 74.882812 1.242188 75.957031 C 1.242188 77.027344 1.269531 78.089844 1.316406 79.152344 L 7.417969 77.148438 C 8.566406 76.769531 8.566406 75.140625 7.417969 74.765625 Z M 17.007812 40.246094 L 12.964844 35.726562 C 11.859375 37.457031 10.828125 39.238281 9.863281 41.0625 L 15.816406 42.308594 C 17 42.554688 17.8125 41.148438 17.007812 40.246094 Z M 17.730469 33.679688 C 17.859375 33.535156 17.847656 33.3125 17.703125 33.183594 L 15.855469 31.53125 C 15.617188 31.855469 15.378906 32.175781 15.148438 32.5 L 17.292969 33.75 C 17.433594 33.832031 17.617188 33.804688 17.730469 33.679688 Z M 5.578125 61.0625 C 5.636719 60.878906 5.539062 60.683594 5.351562 60.621094 L 2.984375 59.863281 C 2.898438 60.253906 2.8125 60.644531 2.730469 61.035156 L 5.207031 61.304688 C 5.371094 61.324219 5.527344 61.226562 5.578125 61.0625 Z M 7.523438 53.777344 C 7.601562 53.601562 7.519531 53.390625 7.34375 53.3125 L 5.058594 52.308594 C 4.933594 52.6875 4.808594 53.070312 4.6875 53.449219 L 7.128906 53.980469 C 7.285156 54.011719 7.453125 53.933594 7.523438 53.777344 Z M 10.214844 46.734375 C 10.3125 46.566406 10.253906 46.351562 10.085938 46.253906 L 7.921875 45.015625 C 7.753906 45.378906 7.59375 45.746094 7.433594 46.113281 L 9.800781 46.890625 C 9.957031 46.941406 10.132812 46.878906 10.214844 46.734375 Z M 27.796875 22.476562 C 27.953125 22.359375 27.984375 22.140625 27.871094 21.984375 L 26.410156 19.988281 C 26.109375 20.253906 25.8125 20.519531 25.519531 20.789062 L 27.351562 22.453125 C 27.472656 22.5625 27.65625 22.574219 27.796875 22.476562 Z M 134.410156 118.230469 C 134.28125 118.375 134.292969 118.597656 134.4375 118.726562 L 136.285156 120.378906 C 136.523438 120.058594 136.757812 119.734375 136.992188 119.410156 L 134.847656 118.160156 C 134.707031 118.078125 134.523438 118.105469 134.410156 118.230469 Z M 129.671875 124.097656 C 129.527344 124.226562 129.515625 124.449219 129.644531 124.59375 L 131.308594 126.425781 C 131.578125 126.132812 131.84375 125.832031 132.109375 125.535156 L 130.113281 124.074219 C 129.980469 123.976562 129.796875 123.984375 129.671875 124.097656 Z M 135.132812 111.667969 L 139.171875 116.183594 C 140.277344 114.453125 141.3125 112.671875 142.273438 110.847656 L 136.324219 109.601562 C 135.136719 109.355469 134.324219 110.765625 135.132812 111.667969 Z M 144.617188 98.132812 C 144.539062 98.3125 144.621094 98.519531 144.796875 98.597656 L 147.078125 99.601562 C 147.207031 99.222656 147.332031 98.84375 147.449219 98.460938 L 145.011719 97.933594 C 144.851562 97.898438 144.6875 97.980469 144.617188 98.132812 Z M 141.921875 105.175781 C 141.828125 105.347656 141.886719 105.558594 142.054688 105.65625 L 144.21875 106.894531 C 144.382812 106.53125 144.542969 106.164062 144.703125 105.796875 L 142.335938 105.019531 C 142.183594 104.96875 142.007812 105.03125 141.921875 105.175781 Z M 134.78125 33.664062 L 136.925781 32.414062 C 136.695312 32.089844 136.457031 31.765625 136.21875 31.445312 L 134.371094 33.097656 C 134.25 33.207031 134.21875 33.390625 134.304688 33.535156 C 134.402344 33.703125 134.613281 33.757812 134.78125 33.664062 Z M 130.039062 27.757812 L 132.035156 26.296875 C 131.769531 25.996094 131.503906 25.699219 131.234375 25.40625 L 129.574219 27.238281 C 129.464844 27.359375 129.449219 27.542969 129.550781 27.679688 C 129.664062 27.835938 129.882812 27.871094 130.039062 27.757812 Z M 146.558594 90.847656 C 146.5 91.03125 146.601562 91.230469 146.785156 91.289062 L 149.15625 92.046875 C 149.242188 91.65625 149.328125 91.265625 149.40625 90.875 L 146.929688 90.605469 C 146.769531 90.589844 146.613281 90.6875 146.558594 90.847656 Z M 146.523438 60.890625 C 146.542969 61.082031 146.714844 61.21875 146.910156 61.199219 L 149.386719 60.929688 C 149.304688 60.539062 149.21875 60.148438 149.132812 59.757812 L 146.765625 60.515625 C 146.609375 60.566406 146.503906 60.71875 146.523438 60.890625 Z M 150.824219 72.757812 L 144.722656 74.765625 C 143.570312 75.140625 143.570312 76.769531 144.722656 77.148438 L 150.824219 79.152344 C 150.867188 78.089844 150.898438 77.027344 150.898438 75.957031 C 150.898438 74.882812 150.867188 73.820312 150.824219 72.757812 Z M 144.5625 53.605469 C 144.601562 53.796875 144.789062 53.917969 144.980469 53.875 L 147.417969 53.347656 C 147.296875 52.964844 147.171875 52.585938 147.046875 52.207031 L 144.761719 53.210938 C 144.613281 53.277344 144.527344 53.441406 144.5625 53.605469 Z M 147.710938 68.335938 C 147.710938 68.53125 147.871094 68.6875 148.0625 68.683594 L 150.542969 68.675781 C 150.503906 68.277344 150.460938 67.882812 150.417969 67.484375 L 147.992188 67.992188 C 147.832031 68.023438 147.710938 68.167969 147.710938 68.335938 Z M 141.851562 46.570312 C 141.910156 46.753906 142.109375 46.855469 142.292969 46.792969 L 144.660156 46.015625 C 144.5 45.648438 144.339844 45.28125 144.171875 44.917969 L 142.007812 46.15625 C 141.867188 46.238281 141.796875 46.410156 141.851562 46.570312 Z M 136.324219 42.308594 L 142.273438 41.0625 C 141.3125 39.238281 140.277344 37.457031 139.171875 35.726562 L 135.132812 40.246094 C 134.324219 41.148438 135.136719 42.554688 136.324219 42.308594 Z M 91.402344 5.238281 L 92.164062 2.871094 C 91.773438 2.785156 91.382812 2.699219 90.988281 2.617188 L 90.71875 5.09375 C 90.703125 5.253906 90.800781 5.414062 90.960938 5.464844 C 91.144531 5.523438 91.34375 5.421875 91.402344 5.238281 Z M 61.003906 5.503906 C 61.195312 5.480469 61.335938 5.308594 61.3125 5.117188 L 61.042969 2.636719 C 60.652344 2.71875 60.261719 2.804688 59.871094 2.890625 L 60.632812 5.261719 C 60.679688 5.417969 60.835938 5.519531 61.003906 5.503906 Z M 53.722656 7.464844 C 53.910156 7.421875 54.03125 7.234375 53.988281 7.046875 L 53.464844 4.609375 C 53.082031 4.730469 52.699219 4.851562 52.320312 4.980469 L 53.328125 7.261719 C 53.390625 7.410156 53.554688 7.5 53.722656 7.464844 Z M 68.449219 4.3125 C 68.644531 4.3125 68.800781 4.15625 68.800781 3.960938 L 68.789062 1.480469 C 68.390625 1.519531 67.996094 1.5625 67.597656 1.609375 L 68.105469 4.035156 C 68.136719 4.195312 68.28125 4.3125 68.449219 4.3125 Z M 46.683594 10.175781 C 46.867188 10.113281 46.96875 9.917969 46.90625 9.730469 L 46.128906 7.363281 C 45.761719 7.527344 45.394531 7.6875 45.03125 7.851562 L 46.269531 10.015625 C 46.351562 10.15625 46.523438 10.226562 46.683594 10.175781 Z M 147.730469 83.398438 C 147.691406 83.585938 147.8125 83.773438 148.003906 83.8125 L 150.429688 84.320312 C 150.472656 83.921875 150.515625 83.527344 150.554688 83.125 L 148.074219 83.117188 C 147.910156 83.117188 147.765625 83.230469 147.730469 83.398438 Z M 41.179688 9.75 C 39.355469 10.714844 37.574219 11.746094 35.84375 12.851562 L 40.359375 16.894531 C 41.261719 17.699219 42.671875 16.886719 42.421875 15.703125 Z M 33.648438 17.722656 C 33.816406 17.625 33.875 17.410156 33.777344 17.242188 L 32.527344 15.097656 C 32.203125 15.332031 31.878906 15.566406 31.558594 15.804688 L 33.210938 17.652344 C 33.320312 17.773438 33.503906 17.808594 33.648438 17.722656 Z M 118.839844 17.589844 L 120.492188 15.742188 C 120.171875 15.503906 119.847656 15.265625 119.523438 15.035156 L 118.277344 17.179688 C 118.191406 17.320312 118.21875 17.503906 118.34375 17.617188 C 118.488281 17.746094 118.710938 17.734375 118.839844 17.589844 Z M 109.714844 15.703125 C 109.46875 16.886719 110.878906 17.699219 111.78125 16.894531 L 116.296875 12.851562 C 114.566406 11.746094 112.785156 10.714844 110.960938 9.75 Z M 72.875 1.203125 L 74.878906 7.304688 C 75.253906 8.453125 76.882812 8.453125 77.261719 7.304688 L 79.265625 1.203125 C 78.207031 1.15625 77.140625 1.128906 76.070312 1.128906 C 75 1.128906 73.933594 1.15625 72.875 1.203125 Z M 83.925781 4.023438 L 84.433594 1.597656 C 84.035156 1.550781 83.640625 1.511719 83.242188 1.472656 L 83.234375 3.949219 C 83.230469 4.113281 83.34375 4.261719 83.511719 4.292969 C 83.699219 4.335938 83.886719 4.210938 83.925781 4.023438 Z M 27.433594 129.53125 L 25.597656 131.195312 C 25.890625 131.464844 26.191406 131.730469 26.492188 131.992188 L 27.949219 130 C 28.046875 129.867188 28.042969 129.683594 27.925781 129.554688 C 27.796875 129.414062 27.574219 129.402344 27.433594 129.53125 Z M 98.710938 7.226562 L 99.71875 4.945312 C 99.335938 4.820312 98.957031 4.695312 98.574219 4.574219 L 98.046875 7.011719 C 98.011719 7.171875 98.09375 7.339844 98.25 7.40625 C 98.425781 7.484375 98.632812 7.40625 98.710938 7.226562 Z M 105.292969 10.101562 C 105.144531 10.015625 105.082031 9.84375 105.132812 9.6875 L 105.910156 7.320312 C 106.277344 7.480469 106.644531 7.640625 107.011719 7.808594 L 105.769531 9.972656 C 105.671875 10.140625 105.460938 10.199219 105.292969 10.101562 "/></g><g style="fill:#000000;fill-opacity:1;"><g transform="translate(180.490401, 107.054707)"><path style="stroke:none" d="M 18.375 0.65625 C 13.457031 0.65625 9.707031 -0.863281 7.125 -3.90625 C 4.539062 -6.945312 3.109375 -11.117188 2.828125 -16.421875 L 10.046875 -18.375 C 10.296875 -14.613281 11.035156 -11.570312 12.265625 -9.25 C 13.492188 -6.9375 15.53125 -5.78125 18.375 -5.78125 C 20.488281 -5.78125 22.085938 -6.367188 23.171875 -7.546875 C 24.265625 -8.734375 24.8125 -10.4375 24.8125 -12.65625 C 24.8125 -15.070312 24.300781 -17.070312 23.28125 -18.65625 C 22.269531 -20.25 20.65625 -22.007812 18.4375 -23.9375 L 8.609375 -32.625 C 6.628906 -34.351562 5.191406 -36.21875 4.296875 -38.21875 C 3.410156 -40.226562 2.96875 -42.675781 2.96875 -45.5625 C 2.96875 -49.851562 4.195312 -53.179688 6.65625 -55.546875 C 9.113281 -57.910156 12.460938 -59.09375 16.703125 -59.09375 C 21.335938 -59.09375 24.832031 -57.863281 27.1875 -55.40625 C 29.550781 -52.945312 30.976562 -49.132812 31.46875 -43.96875 L 24.515625 -42.09375 C 24.273438 -45.519531 23.613281 -48.160156 22.53125 -50.015625 C 21.445312 -51.867188 19.503906 -52.796875 16.703125 -52.796875 C 14.628906 -52.796875 13.035156 -52.253906 11.921875 -51.171875 C 10.816406 -50.085938 10.265625 -48.484375 10.265625 -46.359375 C 10.265625 -44.628906 10.550781 -43.171875 11.125 -41.984375 C 11.707031 -40.804688 12.703125 -39.613281 14.109375 -38.40625 L 24.015625 -29.734375 C 26.566406 -27.460938 28.601562 -25 30.125 -22.34375 C 31.644531 -19.695312 32.40625 -16.6875 32.40625 -13.3125 C 32.40625 -9.019531 31.101562 -5.617188 28.5 -3.109375 C 25.894531 -0.597656 22.519531 0.65625 18.375 0.65625 Z M 18.375 0.65625 "/></g></g><g style="fill:#000000;fill-opacity:1;"><g transform="translate(214.70159, 107.054707)"><path style="stroke:none" d="M 4.125 -58.578125 L 11.859375 -58.578125 L 11.859375 -37.46875 C 15.328125 -40.75 18.820312 -42.390625 22.34375 -42.390625 C 24.613281 -42.390625 26.21875 -41.566406 27.15625 -39.921875 C 28.09375 -38.285156 28.5625 -36.257812 28.5625 -33.84375 L 28.5625 0 L 20.828125 0 L 20.828125 -31.609375 C 20.828125 -33.203125 20.585938 -34.382812 20.109375 -35.15625 C 19.628906 -35.925781 18.757812 -36.3125 17.5 -36.3125 C 15.8125 -36.3125 13.929688 -35.394531 11.859375 -33.5625 L 11.859375 0 L 4.125 0 Z M 4.125 -58.578125 "/></g></g><g style="fill:#000000;fill-opacity:1;"><g transform="translate(246.887589, 107.054707)"><path style="stroke:none" d="M 11.421875 0.578125 C 9.835938 0.578125 8.40625 0.117188 7.125 -0.796875 C 5.84375 -1.710938 4.835938 -2.914062 4.109375 -4.40625 C 3.390625 -5.90625 3.03125 -7.472656 3.03125 -9.109375 C 3.03125 -12.390625 3.726562 -15.050781 5.125 -17.09375 C 6.53125 -19.144531 8.316406 -20.773438 10.484375 -21.984375 C 12.660156 -23.191406 15.675781 -24.566406 19.53125 -26.109375 L 19.53125 -29.078125 C 19.53125 -31.828125 19.25 -33.765625 18.6875 -34.890625 C 18.132812 -36.023438 17.015625 -36.59375 15.328125 -36.59375 C 12.390625 -36.59375 10.921875 -34.617188 10.921875 -30.671875 L 10.921875 -28.5625 L 3.25 -28.859375 C 3.351562 -33.484375 4.414062 -36.894531 6.4375 -39.09375 C 8.457031 -41.289062 11.59375 -42.390625 15.84375 -42.390625 C 19.84375 -42.390625 22.742188 -41.289062 24.546875 -39.09375 C 26.359375 -36.894531 27.265625 -33.578125 27.265625 -29.140625 L 27.265625 -10.046875 C 27.265625 -6.921875 27.503906 -3.570312 27.984375 0 L 20.90625 0 C 20.375 -2.75 20.035156 -4.796875 19.890625 -6.140625 C 19.304688 -4.265625 18.300781 -2.675781 16.875 -1.375 C 15.457031 -0.0703125 13.640625 0.578125 11.421875 0.578125 Z M 14.46875 -6.078125 C 15.476562 -6.078125 16.460938 -6.472656 17.421875 -7.265625 C 18.390625 -8.066406 19.09375 -8.828125 19.53125 -9.546875 L 19.53125 -21.40625 C 17.457031 -20.25 15.851562 -19.25 14.71875 -18.40625 C 13.582031 -17.5625 12.640625 -16.582031 11.890625 -15.46875 C 11.148438 -14.363281 10.78125 -13.039062 10.78125 -11.5 C 10.78125 -9.757812 11.09375 -8.421875 11.71875 -7.484375 C 12.34375 -6.546875 13.257812 -6.078125 14.46875 -6.078125 Z M 14.46875 -6.078125 "/></g></g><g style="fill:#000000;fill-opacity:1;"><g transform="translate(277.699355, 107.054707)"><path style="stroke:none" d="M 13.59375 0.578125 C 9.976562 0.578125 7.328125 -0.734375 5.640625 -3.359375 C 3.953125 -5.992188 3.109375 -10.347656 3.109375 -16.421875 L 3.109375 -24.515625 C 3.109375 -30.066406 3.84375 -34.429688 5.3125 -37.609375 C 6.78125 -40.796875 9.46875 -42.390625 13.375 -42.390625 C 15.832031 -42.390625 18.148438 -41.300781 20.328125 -39.125 L 20.328125 -58.578125 L 28.0625 -58.578125 L 28.0625 0 L 20.328125 0 L 20.328125 -2.671875 C 18.296875 -0.503906 16.050781 0.578125 13.59375 0.578125 Z M 15.546875 -5.5 C 17.085938 -5.5 18.679688 -6.03125 20.328125 -7.09375 L 20.328125 -34.5 C 18.535156 -35.707031 16.894531 -36.3125 15.40625 -36.3125 C 12.363281 -36.3125 10.84375 -33.394531 10.84375 -27.5625 L 10.84375 -15.765625 C 10.84375 -12.390625 11.15625 -9.832031 11.78125 -8.09375 C 12.414062 -6.363281 13.671875 -5.5 15.546875 -5.5 Z M 15.546875 -5.5 "/></g></g><g style="fill:#000000;fill-opacity:1;"><g transform="translate(309.66837, 107.054707)"><path style="stroke:none" d="M 15.484375 0.578125 C 12.242188 0.578125 9.734375 -0.0351562 7.953125 -1.265625 C 6.171875 -2.492188 4.914062 -4.3125 4.1875 -6.71875 C 3.46875 -9.132812 3.109375 -12.269531 3.109375 -16.125 L 3.109375 -25.671875 C 3.109375 -31.460938 4.007812 -35.695312 5.8125 -38.375 C 7.625 -41.050781 10.847656 -42.390625 15.484375 -42.390625 C 18.859375 -42.390625 21.398438 -41.6875 23.109375 -40.28125 C 24.816406 -38.882812 25.945312 -36.921875 26.5 -34.390625 C 27.0625 -31.859375 27.34375 -28.445312 27.34375 -24.15625 L 27.34375 -20.765625 L 10.84375 -20.765625 L 10.84375 -12.375 C 10.84375 -9.8125 11.21875 -7.960938 11.96875 -6.828125 C 12.71875 -5.703125 13.910156 -5.140625 15.546875 -5.140625 C 17.191406 -5.140625 18.300781 -5.703125 18.875 -6.828125 C 19.457031 -7.960938 19.75 -9.6875 19.75 -12 L 19.75 -14.53125 L 27.265625 -14.53125 L 27.265625 -12.953125 C 27.265625 -8.554688 26.320312 -5.203125 24.4375 -2.890625 C 22.5625 -0.578125 19.578125 0.578125 15.484375 0.578125 Z M 19.75 -24.953125 L 19.75 -28.71875 C 19.75 -31.5625 19.46875 -33.597656 18.90625 -34.828125 C 18.351562 -36.054688 17.1875 -36.671875 15.40625 -36.671875 C 14.15625 -36.671875 13.203125 -36.378906 12.546875 -35.796875 C 11.898438 -35.222656 11.453125 -34.269531 11.203125 -32.9375 C 10.960938 -31.613281 10.84375 -29.703125 10.84375 -27.203125 L 10.84375 -24.953125 Z M 19.75 -24.953125 "/></g></g><g style="fill:#000000;fill-opacity:1;"><g transform="translate(340.118502, 107.054707)"><path style="stroke:none" d="M 3.90625 -41.8125 L 11.640625 -41.8125 L 11.640625 -38.484375 C 13.910156 -41.085938 16.5625 -42.390625 19.59375 -42.390625 C 23.40625 -42.390625 25.945312 -40.757812 27.21875 -37.5 C 28.5 -34.25 29.140625 -30.644531 29.140625 -26.6875 L 29.140625 -16.5625 C 29.140625 -11.445312 28.359375 -7.3125 26.796875 -4.15625 C 25.234375 -1 22.546875 0.578125 18.734375 0.578125 C 16.273438 0.578125 13.910156 -0.648438 11.640625 -3.109375 L 11.640625 13.75 L 3.90625 13.75 Z M 17.21875 -5.5 C 19 -5.5 20.140625 -6.398438 20.640625 -8.203125 C 21.148438 -10.015625 21.40625 -12.800781 21.40625 -16.5625 L 21.40625 -26.6875 C 21.40625 -29.769531 21.113281 -32.144531 20.53125 -33.8125 C 19.957031 -35.476562 18.753906 -36.3125 16.921875 -36.3125 C 15.140625 -36.3125 13.378906 -35.585938 11.640625 -34.140625 L 11.640625 -7.375 C 13.328125 -6.125 15.1875 -5.5 17.21875 -5.5 Z M 17.21875 -5.5 "/></g></g><g style="fill:#000000;fill-opacity:1;"><g transform="translate(372.376822, 107.054707)"><path style="stroke:none" d="M 15.40625 0.578125 C 10.96875 0.578125 7.820312 -0.734375 5.96875 -3.359375 C 4.113281 -5.992188 3.1875 -9.816406 3.1875 -14.828125 L 3.1875 -26.984375 C 3.1875 -31.992188 4.113281 -35.8125 5.96875 -38.4375 C 7.820312 -41.070312 10.96875 -42.390625 15.40625 -42.390625 C 19.789062 -42.390625 22.910156 -41.070312 24.765625 -38.4375 C 26.628906 -35.8125 27.5625 -31.992188 27.5625 -26.984375 L 27.5625 -14.828125 C 27.5625 -9.816406 26.628906 -5.992188 24.765625 -3.359375 C 22.910156 -0.734375 19.789062 0.578125 15.40625 0.578125 Z M 15.40625 -5.140625 C 16.800781 -5.140625 17.8125 -5.546875 18.4375 -6.359375 C 19.070312 -7.179688 19.457031 -8.191406 19.59375 -9.390625 C 19.738281 -10.597656 19.8125 -12.242188 19.8125 -14.328125 L 19.8125 -27.40625 C 19.8125 -29.476562 19.738281 -31.128906 19.59375 -32.359375 C 19.457031 -33.597656 19.070312 -34.625 18.4375 -35.4375 C 17.8125 -36.257812 16.800781 -36.671875 15.40625 -36.671875 C 14.007812 -36.671875 12.984375 -36.257812 12.328125 -35.4375 C 11.679688 -34.625 11.285156 -33.597656 11.140625 -32.359375 C 10.992188 -31.128906 10.921875 -29.476562 10.921875 -27.40625 L 10.921875 -14.328125 C 10.921875 -12.242188 10.992188 -10.597656 11.140625 -9.390625 C 11.285156 -8.191406 11.679688 -7.179688 12.328125 -6.359375 C 12.984375 -5.546875 14.007812 -5.140625 15.40625 -5.140625 Z M 15.40625 -5.140625 "/></g></g><g style="fill:#000000;fill-opacity:1;"><g transform="translate(403.116251, 107.054707)"><path style="stroke:none" d="M 4.40625 -56.125 L 12.15625 -56.125 L 12.15625 -48.03125 L 4.40625 -48.03125 Z M 4.40625 -41.8125 L 12.15625 -41.8125 L 12.15625 0 L 4.40625 0 Z M 4.40625 -41.8125 "/></g></g><g style="fill:#000000;fill-opacity:1;"><g transform="translate(419.679399, 107.054707)"><path style="stroke:none" d="M 3.90625 -41.8125 L 11.640625 -41.8125 L 11.640625 -37.6875 C 14.972656 -40.820312 18.375 -42.390625 21.84375 -42.390625 C 24.113281 -42.390625 25.726562 -41.566406 26.6875 -39.921875 C 27.65625 -38.285156 28.140625 -36.257812 28.140625 -33.84375 L 28.140625 0 L 20.390625 0 L 20.390625 -31.609375 C 20.390625 -33.203125 20.148438 -34.382812 19.671875 -35.15625 C 19.191406 -35.925781 18.320312 -36.3125 17.0625 -36.3125 C 15.519531 -36.3125 13.710938 -35.441406 11.640625 -33.703125 L 11.640625 0 L 3.90625 0 Z M 3.90625 -41.8125 "/></g></g><g style="fill:#000000;fill-opacity:1;"><g transform="translate(451.431411, 107.054707)"><path style="stroke:none" d="M 15.046875 0.578125 C 9.015625 0.578125 6 -2.75 6 -9.40625 L 6 -36.671875 L 1.59375 -36.671875 L 1.59375 -41.8125 L 6 -41.8125 L 6 -54.03125 L 13.75 -54.03125 L 13.75 -41.8125 L 20.46875 -41.8125 L 20.46875 -36.671875 L 13.75 -36.671875 L 13.75 -9.90625 C 13.75 -8.21875 14.007812 -7.035156 14.53125 -6.359375 C 15.0625 -5.691406 16.078125 -5.359375 17.578125 -5.359375 C 18.535156 -5.359375 19.472656 -5.425781 20.390625 -5.5625 L 20.390625 0.140625 C 18.460938 0.429688 16.679688 0.578125 15.046875 0.578125 Z M 15.046875 0.578125 "/></g></g></g></svg>